{
.appVersion = "1277";
copyright = "Copyright 2010 Google Inc. All Rights Reserved.";
customParameters = (
{
name = glyphOrder;
value = (
.notdef,
.null,
nonmarkingreturn,
space,
exclam,
quotedbl,
numbersign,
dollar,
percent,
ampersand,
quotesingle,
parenleft,
parenright,
asterisk,
plus,
comma,
hyphen,
period,
slash,
zero,
one,
two,
three,
four,
five,
six,
seven,
eight,
nine,
colon,
semicolon,
less,
equal,
greater,
question,
at,
A,
B,
C,
D,
E,
F,
G,
H,
I,
J,
K,
L,
M,
N,
O,
P,
Q,
R,
S,
T,
U,
V,
W,
X,
Y,
Z,
bracketleft,
backslash,
bracketright,
asciicircum,
underscore,
grave,
a,
b,
c,
d,
e,
f,
g,
h,
i,
j,
k,
l,
m,
n,
o,
p,
q,
r,
s,
t,
u,
v,
w,
x,
y,
z,
braceleft,
bar,
braceright,
asciitilde,
Adieresis,
Aring,
Ccedilla,
Eacute,
Ntilde,
Odieresis,
Udieresis,
aacute,
agrave,
acircumflex,
adieresis,
atilde,
aring,
ccedilla,
eacute,
egrave,
ecircumflex,
edieresis,
iacute,
igrave,
icircumflex,
idieresis,
ntilde,
oacute,
ograve,
ocircumflex,
odieresis,
otilde,
uacute,
ugrave,
ucircumflex,
udieresis,
dagger,
degree,
cent,
sterling,
section,
bullet,
paragraph,
germandbls,
registered,
copyright,
trademark,
acute,
dieresis,
notequal,
AE,
Oslash,
infinity,
plusminus,
lessequal,
greaterequal,
yen,
mu1,
partialdiff,
summation,
product,
integral,
ordfeminine,
ordmasculine,
Ohm,
ae,
oslash,
questiondown,
exclamdown,
logicalnot,
radical,
florin,
approxequal,
uni2206,
guillemotleft,
guillemotright,
ellipsis,
Agrave,
Atilde,
Otilde,
OE,
oe,
endash,
emdash,
quotedblleft,
quotedblright,
quoteleft,
quoteright,
divide,
lozenge,
ydieresis,
Ydieresis,
fraction,
Euro,
guilsinglleft,
guilsinglright,
fi,
fl,
daggerdbl,
periodcentered,
quotesinglbase,
quotedblbase,
perthousand,
Acircumflex,
Ecircumflex,
Aacute,
Edieresis,
Egrave,
Iacute,
Icircumflex,
Idieresis,
Igrave,
Oacute,
Ocircumflex,
Ograve,
Uacute,
Ucircumflex,
Ugrave,
dotlessi,
circumflex,
tilde,
uni02C9,
breve,
dotaccent,
ring,
cedilla,
hungarumlaut,
ogonek,
caron,
Lslash,
lslash,
Scaron,
scaron,
Zcaron,
zcaron,
brokenbar,
Eth,
eth,

glyphs = (
{
glyphname = .notdef;
lastChange = "2019-12-17 15:39:55 +0000";
layers = (
{
layerId = "90A2DC70-B0EC-4941-B875-3E2B1B2F3578";
paths = (
{
closed = 1;
nodes = (
"1082 0 LINE",
"1082 1349 LINE",
"147 1349 LINE",
"147 0 LINE"
);
},
{
closed = 1;
nodes = (
"963 119 LINE",
"266 119 LINE",
"266 1230 LINE",
"963 1230 LINE"
);
}
);
userData = {
assembly = "PUSHB[ ]\011/* 4 values pushed */
5 1 6 0 
SVTCA[0]\011/* SetFreedomAndProjectionVectorToAxis */
MDAP[1]\011/* MoveDirectAbsPt */
MDRP[01101]\011/* MoveDirectRelPt */
MDAP[1]\011/* MoveDirectAbsPt */
MDRP[01101]\011/* MoveDirectRelPt */
IUP[1]\011/* InterpolateUntPts */
IUP[0]\011/* InterpolateUntPts */";
};
width = 1229;
}
);
note = .notdef;
},
{
glyphname = exclam;
lastChange = "2019-12-17 15:39:55 +0000";
layers = (
{
layerId = "90A2DC70-B0EC-4941-B875-3E2B1B2F3578";
paths = (
{
closed = 1;
nodes = (
"870 1348 LINE",
"674 1348 LINE",
"513 397 LINE",
"661 397 LINE"
);
},
{
closed = 1;
nodes = (
"604 0 LINE",
"643 201 LINE",
"449 201 LINE",
"410 0 LINE"
);
}
);
userData = {
assembly = "NPUSHB[ ]\011/* 12 values pushed */
1 1 4 2 4 5 158 91 4 18 2 3 
SVTCA[0]\011/* SetFreedomAndProjectionVectorToAxis */
MIAP[1]\011/* MoveIndirectAbsPt */
MIAP[1]\011/* MoveIndirectAbsPt */
CALL[ ]\011/* CallFunction */
SRP1[ ]\011/* SetRefPoint1 */
SRP2[ ]\011/* SetRefPoint2 */
SVTCA[0]\011/* SetFreedomAndProjectionVectorToAxis */
IP[ ]\011/* InterpolatePts */
RTG[ ]\011/* RoundToGrid */
MDAP[1]\011/* MoveDirectAbsPt */
IUP[1]\011/* InterpolateUntPts */
IUP[0]\011/* InterpolateUntPts */";
};
width = 1229;
}
);
note = exclam;
unicode = 0021;
},
{
glyphname = quotedbl;
lastChange = "2019-12-17 15:39:55 +0000";
layers = (
{
layerId = "90A2DC70-B0EC-4941-B875-3E2B1B2F3578";
paths = (
{
closed = 1;
nodes = (
"1133 1484 LINE",
"909 1484 LINE",
"825 845 LINE",
"967 845 LINE"
);
},
{
closed = 1;
nodes = (
"684 1484 LINE",
"460 1484 LINE",
"377 845 LINE",
"518 845 LINE"
);
}
);
userData = {
assembly = "PUSHB[ ]\011/* 6 values pushed */
5 0 0 6 2 0 
SVTCA[0]\011/* SetFreedomAndProjectionVectorToAxis */
MIAP[1]\011/* MoveIndirectAbsPt */
SHP[1]\011/* ShiftPointByLastPoint */
SHP[1]\011/* ShiftPointByLastPoint */
MDAP[1]\011/* MoveDirectAbsPt */
SHP[0]\011/* ShiftPointByLastPoint */
IUP[1]\011/* InterpolateUntPts */
IUP[0]\011/* InterpolateUntPts */";
};
width = 1229;
}
);
note = quotedbl;
unicode = 0022;
},
{
glyphname = numbersign;
lastChange = "2019-12-17 15:39:55 +0000";
layers = (
{
layerId = "90A2DC70-B0EC-4941-B875-3E2B1B2F3578";
paths = (
{
closed = 1;
nodes = (
"1220 833 LINE",
"1241 941 LINE",
"1030 941 LINE",
"1197 1349 LINE",
"1087 1349 LINE",
"920 941 LINE",
"557 941 LINE",
"724 1349 LINE",
"614 1349 LINE",
"446 941 LINE",
"183 941 LINE",
"162 833 LINE",
"403 833 LINE",
"274 516 LINE",
"49 516 LINE",
"28 408 LINE",
"229 408 LINE",
"66 0 LINE",
"176 0 LINE",
"339 408 LINE",
"702 408 LINE",
"537 0 LINE",
"647 0 LINE",
"814 408 LINE",
"1097 408 LINE",
"1118 516 LINE",
"858 516 LINE",
"987 833 LINE"
);
},
{
closed = 1;
nodes = (
"876 833 LINE",
"747 516 LINE",
"385 516 LINE",
"516 833 LINE"
);
}
);
userData = {
assembly = "NPUSHB[ ]\011/* 68 values pushed */
4 7 8 3 11 14 11 175 89 1 29 30 3 14 0 28 31 3 15 18 15 175 89 21 22 25 3 18 79 18 1 79 18 95 18 159 18 239 18 4 79 14 1 79 14 95 14 207 14 223 14 4 14 18 14 18 5 20 23 24 3 19 3 6 9 10 3 5 
SVTCA[0]\011/* SetFreedomAndProjectionVectorToAxis */
MDAP[1]\011/* MoveDirectAbsPt */
SLOOP[ ]\011/* SetLoopVariable */
SHP[1]\011/* ShiftPointByLastPoint */
MIAP[1]\011/* MoveIndirectAbsPt */
SLOOP[ ]\011/* SetLoopVariable */
SHP[1]\011/* ShiftPointByLastPoint */
SRP2[ ]\011/* SetRefPoint2 */
IP[ ]\011/* InterpolatePts */
IP[ ]\011/* InterpolatePts */
MDAP[1]\011/* MoveDirectAbsPt */
MDAP[1]\011/* MoveDirectAbsPt */
DELTAP1[ ]\011/* DeltaExceptionP1 */
DELTAP2[ ]\011/* DeltaExceptionP2 */
DELTAP1[ ]\011/* DeltaExceptionP1 */
DELTAP2[ ]\011/* DeltaExceptionP2 */
SRP1[ ]\011/* SetRefPoint1 */
SLOOP[ ]\011/* SetLoopVariable */
SHP[1]\011/* ShiftPointByLastPoint */
CALL[ ]\011/* CallFunction */
SRP1[ ]\011/* SetRefPoint1 */
SVTCA[0]\011/* SetFreedomAndProjectionVectorToAxis */
SLOOP[ ]\011/* SetLoopVariable */
SHP[1]\011/* ShiftPointByLastPoint */
SRP1[ ]\011/* SetRefPoint1 */
SLOOP[ ]\011/* SetLoopVariable */
SHP[1]\011/* ShiftPointByLastPoint */
CALL[ ]\011/* CallFunction */
SRP1[ ]\011/* SetRefPoint1 */
SVTCA[0]\011/* SetFreedomAndProjectionVectorToAxis */
SLOOP[ ]\011/* SetLoopVariable */
SHP[1]\011/* ShiftPointByLastPoint */
IUP[1]\011/* InterpolateUntPts */
IUP[0]\011/* InterpolateUntPts */";
};
width = 1229;
}
);
note = numbersign;
unicode = 0023;
},
{
glyphname = dollar;
lastChange = "2019-12-17 15:39:55 +0000";
layers = (
{
layerId = "90A2DC70-B0EC-4941-B875-3E2B1B2F3578";
paths = (
{
closed = 1;
nodes = (
"585 20 LINE",
"754 27 OFFCURVE",
"1002 141 OFFCURVE",
"1128 345 OFFCURVE",
"1128 465 QCURVE SMOOTH",
"1128 550 OFFCURVE",
"1052 664 OFFCURVE",
"913 741 OFFCURVE",
"734 787 QCURVE",
"817 1213 LINE",
"928 1205 OFFCURVE",
"1031 1097 OFFCURVE",
"1033 992 QCURVE",
"1213 1025 LINE",
"1202 1193 OFFCURVE",
"1028 1339 OFFCURVE",
"843 1346 QCURVE",
"868 1476 LINE",
"740 1476 LINE",
"715 1346 LINE",
"600 1343 OFFCURVE",
"411 1285 OFFCURVE",
"279 1175 OFFCURVE",
"216 1027 OFFCURVE",
"216 946 QCURVE SMOOTH",
"216 874 OFFCURVE",
"275 776 OFFCURVE",
"373 709 OFFCURVE",
"531 658 OFFCURVE",
"579 647 QCURVE",
"484 158 LINE",
"212 172 OFFCURVE",
"212 416 QCURVE",
"35 379 LINE",
"37 34 OFFCURVE",
"457 20 QCURVE",
"426 -141 LINE",
"554 -141 LINE"
);
},
{
closed = 1;
nodes = (
"395 1018 LINE",
"433 1204 OFFCURVE",
"689 1215 QCURVE",
"609 802 LINE",
"477 837 OFFCURVE",
"390 914 OFFCURVE",
"390 974 QCURVE"
);
},
{
closed = 1;
nodes = (
"952 315 OFFCURVE",
"777 166 OFFCURVE",
"611 156 QCURVE",
"703 627 LINE",
"817 597 OFFCURVE",
"905 549 OFFCURVE",
"952 481 OFFCURVE",
"952 432 QCURVE SMOOTH"
);
}
);
userData = {
assembly = "NPUSHB[ ]\011/* 59 values pushed */
28 42 18 42 115 89 49 8 41 8 115 89 29 41 41 18 2 20 19 64 32 39 72 19 64 18 23 72 19 25 19 21 25 3 18 6 50 7 2 7 115 89 0 144 1 1 1 64 5 80 5 2 5 37 1 5 3 2 24 
SVTCA[0]\011/* SetFreedomAndProjectionVectorToAxis */
MIAP[1]\011/* MoveIndirectAbsPt */
SLOOP[ ]\011/* SetLoopVariable */
SHP[1]\011/* ShiftPointByLastPoint */
MDAP[1]\011/* MoveDirectAbsPt */
DELTAP1[ ]\011/* DeltaExceptionP1 */
MDAP[1]\011/* MoveDirectAbsPt */
DELTAP1[ ]\011/* DeltaExceptionP1 */
SHP[1]\011/* ShiftPointByLastPoint */
CALL[ ]\011/* CallFunction */
SRP1[ ]\011/* SetRefPoint1 */
SVTCA[0]\011/* SetFreedomAndProjectionVectorToAxis */
SHP[1]\011/* ShiftPointByLastPoint */
RTG[ ]\011/* RoundToGrid */
MIAP[1]\011/* MoveIndirectAbsPt */
SLOOP[ ]\011/* SetLoopVariable */
SHP[1]\011/* ShiftPointByLastPoint */
MDAP[1]\011/* MoveDirectAbsPt */
MDAP[1]\011/* MoveDirectAbsPt */
CALL[ ]\011/* CallFunction */
CALL[ ]\011/* CallFunction */
SHP[1]\011/* ShiftPointByLastPoint */
SRP1[ ]\011/* SetRefPoint1 */
SRP2[ ]\011/* SetRefPoint2 */
IP[ ]\011/* InterpolatePts */
MDAP[1]\011/* MoveDirectAbsPt */
SHP[1]\011/* ShiftPointByLastPoint */
CALL[ ]\011/* CallFunction */
SRP1[ ]\011/* SetRefPoint1 */
SVTCA[0]\011/* SetFreedomAndProjectionVectorToAxis */
SHP[1]\011/* ShiftPointByLastPoint */
CALL[ ]\011/* CallFunction */
SRP1[ ]\011/* SetRefPoint1 */
SVTCA[0]\011/* SetFreedomAndProjectionVectorToAxis */
SHP[1]\011/* ShiftPointByLastPoint */
IUP[1]\011/* InterpolateUntPts */
IUP[0]\011/* InterpolateUntPts */";
};
width = 1229;
}
);
note = dollar;
unicode = 0024;
},
{
glyphname = percent;
lastChange = "2019-12-17 15:39:55 +0000";
layers = (
{
layerId = "90A2DC70-B0EC-4941-B875-3E2B1B2F3578";
paths = (
{
closed = 1;
nodes = (
"1313 1353 LINE",
"1166 1353 LINE",
"-29 0 LINE",
"116 0 LINE"
);
},
{
closed = 1;
nodes = (
"359 1361 OFFCURVE",
"226 1301 OFFCURVE",
"131 1173 OFFCURVE",
"82 988 OFFCURVE",
"82 912 QCURVE SMOOTH",
"82 684 OFFCURVE",
"315 684 QCURVE SMOOTH",
"404 684 OFFCURVE",
"537 751 OFFCURVE",
"633 883 OFFCURVE",
"680 1062 OFFCURVE",
"680 1141 QCURVE SMOOTH",
"680 1361 OFFCURVE",
"451 1361 QCURVE SMOOTH"
);
},
{
closed = 1;
nodes = (
"534 1067 OFFCURVE",
"488 891 OFFCURVE",
"405 797 OFFCURVE",
"339 797 QCURVE SMOOTH",
"286 797 OFFCURVE",
"229 853 OFFCURVE",
"229 922 QCURVE SMOOTH",
"229 987 OFFCURVE",
"278 1170 OFFCURVE",
"360 1253 OFFCURVE",
"429 1253 QCURVE SMOOTH",
"484 1253 OFFCURVE",
"534 1195 OFFCURVE",
"534 1134 QCURVE SMOOTH"
);
},
{
closed = 1;
nodes = (
"878 665 OFFCURVE",
"745 603 OFFCURVE",
"652 475 OFFCURVE",
"603 292 OFFCURVE",
"603 216 QCURVE SMOOTH",
"603 -12 OFFCURVE",
"836 -12 QCURVE SMOOTH",
"952 -12 OFFCURVE",
"1115 106 OFFCURVE",
"1201 330 OFFCURVE",
"1201 444 QCURVE SMOOTH",
"1201 665 OFFCURVE",
"971 665 QCURVE SMOOTH"
);
},
{
closed = 1;
nodes = (
"1054 368 OFFCURVE",
"1009 194 OFFCURVE",
"925 101 OFFCURVE",
"860 101 QCURVE SMOOTH",
"807 101 OFFCURVE",
"750 157 OFFCURVE",
"750 226 QCURVE SMOOTH",
"750 292 OFFCURVE",
"799 473 OFFCURVE",
"880 557 OFFCURVE",
"949 557 QCURVE SMOOTH",
"999 557 OFFCURVE",
"1054 505 OFFCURVE",
"1054 437 QCURVE SMOOTH"
);
}
);
userData = {
assembly = "NPUSHB[ ]\011/* 32 values pushed */
32 48 182 89 38 32 183 91 38 55 182 89 38 25 11 28 182 89 4 11 183 91 4 21 182 89 4 7 2 6 0 24 
SVTCA[0]\011/* SetFreedomAndProjectionVectorToAxis */
MIAP[1]\011/* MoveIndirectAbsPt */
MIAP[1]\011/* MoveIndirectAbsPt */
MIAP[1]\011/* MoveIndirectAbsPt */
CALL[ ]\011/* CallFunction */
CALL[ ]\011/* CallFunction */
CALL[ ]\011/* CallFunction */
SVTCA[0]\011/* SetFreedomAndProjectionVectorToAxis */
RTG[ ]\011/* RoundToGrid */
MIAP[1]\011/* MoveIndirectAbsPt */
CALL[ ]\011/* CallFunction */
CALL[ ]\011/* CallFunction */
CALL[ ]\011/* CallFunction */
IUP[1]\011/* InterpolateUntPts */
IUP[0]\011/* InterpolateUntPts */";
};
width = 1229;
}
);
note = percent;
unicode = 0025;
},
{
glyphname = ampersand;
lastChange = "2019-12-17 15:39:55 +0000";
layers = (
{
layerId = "90A2DC70-B0EC-4941-B875-3E2B1B2F3578";
paths = (
{
closed = 1;
nodes = (
"1030 -12 OFFCURVE",
"1082 10 QCURVE",
"1108 145 LINE",
"1067 129 OFFCURVE",
"1010 129 QCURVE SMOOTH",
"970 129 OFFCURVE",
"883 180 OFFCURVE",
"850 234 QCURVE",
"1014 461 OFFCURVE",
"1102 696 QCURVE",
"966 739 LINE",
"884 512 OFFCURVE",
"762 333 QCURVE",
"650 486 OFFCURVE",
"560 722 QCURVE",
"768 802 OFFCURVE",
"956 923 OFFCURVE",
"1045 1062 OFFCURVE",
"1045 1145 QCURVE SMOOTH",
"1045 1243 OFFCURVE",
"898 1357 OFFCURVE",
"770 1357 QCURVE SMOOTH",
"581 1357 OFFCURVE",
"352 1146 OFFCURVE",
"352 962 QCURVE SMOOTH",
"352 862 OFFCURVE",
"381 777 QCURVE",
"188 686 OFFCURVE",
"-1 424 OFFCURVE",
"-1 267 QCURVE SMOOTH",
"-1 131 OFFCURVE",
"179 -20 OFFCURVE",
"352 -20 QCURVE SMOOTH",
"545 -20 OFFCURVE",
"726 117 QCURVE",
"766 56 OFFCURVE",
"894 -12 OFFCURVE",
"965 -12 QCURVE SMOOTH"
);
},
{
closed = 1;
nodes = (
"889 1081 OFFCURVE",
"860 1015 OFFCURVE",
"796 954 OFFCURVE",
"695 898 OFFCURVE",
"526 832 QCURVE",
"501 907 OFFCURVE",
"501 981 QCURVE SMOOTH",
"501 1105 OFFCURVE",
"637 1236 OFFCURVE",
"743 1236 QCURVE SMOOTH",
"812 1236 OFFCURVE",
"889 1172 OFFCURVE",
"889 1117 QCURVE SMOOTH"
);
},
{
closed = 1;
nodes = (
"592 170 OFFCURVE",
"452 111 OFFCURVE",
"386 111 QCURVE SMOOTH",
"280 111 OFFCURVE",
"170 212 OFFCURVE",
"170 302 QCURVE SMOOTH",
"170 410 OFFCURVE",
"297 601 OFFCURVE",
"413 658 QCURVE",
"504 419 OFFCURVE",
"643 217 QCURVE"
);
}
);
userData = {
assembly = "NPUSHB[ ]\011/* 31 values pushed */
3 51 30 25 4 27 53 23 11 46 4 5 27 27 16 5 16 41 81 89 16 4 33 59 5 59 81 89 0 5 22 
SVTCA[0]\011/* SetFreedomAndProjectionVectorToAxis */
MIAP[1]\011/* MoveIndirectAbsPt */
SHP[1]\011/* ShiftPointByLastPoint */
CALL[ ]\011/* CallFunction */
SRP1[ ]\011/* SetRefPoint1 */
SVTCA[0]\011/* SetFreedomAndProjectionVectorToAxis */
SHP[1]\011/* ShiftPointByLastPoint */
RTG[ ]\011/* RoundToGrid */
MIAP[1]\011/* MoveIndirectAbsPt */
CALL[ ]\011/* CallFunction */
SRP1[ ]\011/* SetRefPoint1 */
SRP2[ ]\011/* SetRefPoint2 */
SVTCA[0]\011/* SetFreedomAndProjectionVectorToAxis */
IP[ ]\011/* InterpolatePts */
RTG[ ]\011/* RoundToGrid */
MDAP[1]\011/* MoveDirectAbsPt */
SRP1[ ]\011/* SetRefPoint1 */
SLOOP[ ]\011/* SetLoopVariable */
IP[ ]\011/* InterpolatePts */
SRP2[ ]\011/* SetRefPoint2 */
SLOOP[ ]\011/* SetLoopVariable */
IP[ ]\011/* InterpolatePts */
IUP[1]\011/* InterpolateUntPts */
IUP[0]\011/* InterpolateUntPts */";
};
width = 1229;
}
);
note = ampersand;
unicode = 0026;
},
{
glyphname = quotesingle;
lastChange = "2019-12-17 15:39:55 +0000";
layers = (
{
layerId = "90A2DC70-B0EC-4941-B875-3E2B1B2F3578";
paths = (
{
closed = 1;
nodes = (
"909 1484 LINE",
"685 1484 LINE",
"602 845 LINE",
"743 845 LINE"
);
}
);
userData = {
assembly = "PUSHB[ ]\011/* 4 values pushed */
0 0 2 0 
SVTCA[0]\011/* SetFreedomAndProjectionVectorToAxis */
MIAP[1]\011/* MoveIndirectAbsPt */
SHP[1]\011/* ShiftPointByLastPoint */
MDAP[1]\011/* MoveDirectAbsPt */
IUP[1]\011/* InterpolateUntPts */
IUP[0]\011/* InterpolateUntPts */";
};
width = 1229;
}
);
note = quotesingle;
unicode = 0027;
},
{
glyphname = parenleft;
lastChange = "2019-12-17 15:39:55 +0000";
layers = (
{
layerId = "90A2DC70-B0EC-4941-B875-3E2B1B2F3578";
paths = (
{
closed = 1;
nodes = (
"497 442 OFFCURVE",
"621 890 OFFCURVE",
"863 1275 OFFCURVE",
"1074 1484 QCURVE",
"884 1484 LINE",
"667 1268 OFFCURVE",
"428 881 OFFCURVE",
"309 433 OFFCURVE",
"309 234 QCURVE SMOOTH",
"309 64 OFFCURVE",
"408 -258 OFFCURVE",
"513 -425 QCURVE",
"703 -425 LINE",
"593 -245 OFFCURVE",
"497 71 OFFCURVE",
"497 240 QCURVE SMOOTH"
);
}
);
userData = {
assembly = "PUSHB[ ]\011/* 4 values pushed */
11 0 3 27 
SVTCA[0]\011/* SetFreedomAndProjectionVectorToAxis */
MIAP[1]\011/* MoveIndirectAbsPt */
MIAP[1]\011/* MoveIndirectAbsPt */
IUP[1]\011/* InterpolateUntPts */
IUP[0]\011/* InterpolateUntPts */";
};
width = 1229;
}
);
note = parenleft;
unicode = 0028;
},
{
glyphname = parenright;
lastChange = "2019-12-17 15:39:55 +0000";
layers = (
{
layerId = "90A2DC70-B0EC-4941-B875-3E2B1B2F3578";
paths = (
{
closed = 1;
nodes = (
"556 -210 OFFCURVE",
"794 177 OFFCURVE",
"915 636 OFFCURVE",
"915 832 QCURVE SMOOTH",
"915 998 OFFCURVE",
"818 1314 OFFCURVE",
"711 1484 QCURVE",
"519 1484 LINE",
"623 1318 OFFCURVE",
"728 990 OFFCURVE",
"728 816 QCURVE SMOOTH",
"728 620 OFFCURVE",
"606 174 OFFCURVE",
"362 -213 OFFCURVE",
"148 -425 QCURVE",
"340 -425 LINE"
);
}
);
userData = {
assembly = "PUSHB[ ]\011/* 4 values pushed */
8 0 0 27 
SVTCA[0]\011/* SetFreedomAndProjectionVectorToAxis */
MIAP[1]\011/* MoveIndirectAbsPt */
MIAP[1]\011/* MoveIndirectAbsPt */
IUP[1]\011/* InterpolateUntPts */
IUP[0]\011/* InterpolateUntPts */";
};
width = 1229;
}
);
note = parenright;
unicode = 0029;
},
{
glyphname = asterisk;
lastChange = "2019-12-17 15:39:55 +0000";
layers = (
{
layerId = "90A2DC70-B0EC-4941-B875-3E2B1B2F3578";
paths = (
{
closed = 1;
nodes = (
"867 1483 LINE",
"731 1483 LINE",
"686 1186 LINE",
"439 1293 LINE",
"368 1159 LINE",
"634 1086 LINE",
"397 838 LINE",
"502 766 LINE",
"708 1022 LINE",
"808 764 LINE",
"941 836 LINE",
"804 1086 LINE",
"1100 1159 LINE",
"1081 1291 LINE",
"797 1188 LINE"
);
}
);
userData = {
assembly = "NPUSHB[ ]\011/* 32 values pushed */
2 10 10 1 11 4 8 8 5 3 9 12 0 12 11 12 11 12 5 13 0 7 16 5 32 5 128 5 144 5 4 5 
SVTCA[0]\011/* SetFreedomAndProjectionVectorToAxis */
MDAP[1]\011/* MoveDirectAbsPt */
DELTAP1[ ]\011/* DeltaExceptionP1 */
SHP[1]\011/* ShiftPointByLastPoint */
MIAP[1]\011/* MoveIndirectAbsPt */
SRP2[ ]\011/* SetRefPoint2 */
IP[ ]\011/* InterpolatePts */
IP[ ]\011/* InterpolatePts */
MDAP[1]\011/* MoveDirectAbsPt */
MDAP[1]\011/* MoveDirectAbsPt */
SRP1[ ]\011/* SetRefPoint1 */
SHP[1]\011/* ShiftPointByLastPoint */
SRP0[ ]\011/* SetRefPoint0 */
MDRP[01101]\011/* MoveDirectRelPt */
SHP[0]\011/* ShiftPointByLastPoint */
SRP1[ ]\011/* SetRefPoint1 */
IP[ ]\011/* InterpolatePts */
MDAP[1]\011/* MoveDirectAbsPt */
SHP[1]\011/* ShiftPointByLastPoint */
SRP1[ ]\011/* SetRefPoint1 */
SHP[1]\011/* ShiftPointByLastPoint */
SHP[1]\011/* ShiftPointByLastPoint */
MDAP[1]\011/* MoveDirectAbsPt */
SHP[1]\011/* ShiftPointByLastPoint */
IUP[1]\011/* InterpolateUntPts */
IUP[0]\011/* InterpolateUntPts */";
};
width = 1229;
}
);
note = asterisk;
unicode = 002A;
},
{
glyphname = plus;
lastChange = "2019-12-17 15:39:55 +0000";
layers = (
{
layerId = "90A2DC70-B0EC-4941-B875-3E2B1B2F3578";
paths = (
{
closed = 1;
nodes = (
"1111 608 LINE",
"1111 754 LINE",
"687 754 LINE",
"687 1182 LINE",
"540 1182 LINE",
"540 754 LINE",
"116 754 LINE",
"116 608 LINE",
"540 608 LINE",
"540 180 LINE",
"687 180 LINE",
"687 608 LINE"
);
}
);
userData = {
assembly = "NPUSHB[ ]\011/* 26 values pushed */
4 2 14 4 2 14 89 7 5 14 0 7 1 12 3 7 5 0 4 5 4 173 89 9 5 179 
SVTCA[0]\011/* SetFreedomAndProjectionVectorToAxis */
MIAP[1]\011/* MoveIndirectAbsPt */
SHP[1]\011/* ShiftPointByLastPoint */
CALL[ ]\011/* CallFunction */
SRP1[ ]\011/* SetRefPoint1 */
SVTCA[0]\011/* SetFreedomAndProjectionVectorToAxis */
SHP[1]\011/* ShiftPointByLastPoint */
RTG[ ]\011/* RoundToGrid */
SRP0[ ]\011/* SetRefPoint0 */
MDRP[00110]\011/* MoveDirectRelPt */
SDS[ ]\011/* SetDeltaShiftInGState */
SDB[ ]\011/* SetDeltaBaseInGState */
DELTAP1[ ]\011/* DeltaExceptionP1 */
CALL[ ]\011/* CallFunction */
CALL[ ]\011/* CallFunction */
CALL[ ]\011/* CallFunction */
IUP[1]\011/* InterpolateUntPts */
IUP[0]\011/* InterpolateUntPts */";
};
width = 1229;
}
);
note = plus;
unicode = 002B;
},
{
glyphname = comma;
lastChange = "2019-12-17 15:39:55 +0000";
layers = (
{
layerId = "90A2DC70-B0EC-4941-B875-3E2B1B2F3578";
paths = (
{
closed = 1;
nodes = (
"206 -363 LINE",
"646 299 LINE",
"381 299 LINE",
"83 -363 LINE"
);
}
);
userData = {
assembly = "PUSHB[ ]\011/* 6 values pushed */
1 3 156 91 1 4 
SVTCA[0]\011/* SetFreedomAndProjectionVectorToAxis */
SRP0[ ]\011/* SetRefPoint0 */
MDRP[00110]\011/* MoveDirectRelPt */
CALL[ ]\011/* CallFunction */
IUP[1]\011/* InterpolateUntPts */
IUP[0]\011/* InterpolateUntPts */";
};
width = 1229;
}
);
note = comma;
unicode = 002C;
},
{
glyphname = hyphen;
lastChange = "2019-12-17 15:39:55 +0000";
layers = (
{
layerId = "90A2DC70-B0EC-4941-B875-3E2B1B2F3578";
paths = (
{
closed = 1;
nodes = (
"879 464 LINE",
"910 624 LINE",
"350 624 LINE",
"319 464 LINE"
);
}
);
userData = {
assembly = "PUSHB[ ]\011/* 6 values pushed */
1 0 186 89 1 189 
SVTCA[0]\011/* SetFreedomAndProjectionVectorToAxis */
MIAP[1]\011/* MoveIndirectAbsPt */
CALL[ ]\011/* CallFunction */
IUP[1]\011/* InterpolateUntPts */
IUP[0]\011/* InterpolateUntPts */";
};
width = 1229;
}
);
note = hyphen;
unicode = "002D,00AD";
},
{
glyphname = period;
lastChange = "2019-12-17 15:39:55 +0000";
layers = (
{
layerId = "90A2DC70-B0EC-4941-B875-3E2B1B2F3578";
paths = (
{
closed = 1;
nodes = (
"626 0 LINE",
"684 299 LINE",
"449 299 LINE",
"391 0 LINE"
);
}
);
userData = {
assembly = "PUSHB[ ]\011/* 6 values pushed */
0 1 155 91 0 18 
SVTCA[0]\011/* SetFreedomAndProjectionVectorToAxis */
MIAP[1]\011/* MoveIndirectAbsPt */
CALL[ ]\011/* CallFunction */
IUP[1]\011/* InterpolateUntPts */
IUP[0]\011/* InterpolateUntPts */";
};
width = 1229;
}
);
note = period;
unicode = 002E;
},
{
glyphname = slash;
lastChange = "2019-12-17 15:39:55 +0000";
layers = (
{
layerId = "90A2DC70-B0EC-4941-B875-3E2B1B2F3578";
paths = (
{
closed = 1;
nodes = (
"187 -20 LINE",
"1296 1484 LINE",
"1118 1484 LINE",
"5 -20 LINE"
);
}
);
userData = {
assembly = "PUSHB[ ]\011/* 6 values pushed */
0 3 22 2 1 0 
SVTCA[0]\011/* SetFreedomAndProjectionVectorToAxis */
MIAP[1]\011/* MoveIndirectAbsPt */
SHP[1]\011/* ShiftPointByLastPoint */
MIAP[1]\011/* MoveIndirectAbsPt */
SHP[1]\011/* ShiftPointByLastPoint */
IUP[1]\011/* InterpolateUntPts */
IUP[0]\011/* InterpolateUntPts */";
};
width = 1229;
}
);
note = slash;
unicode = 002F;
},
{
glyphname = zero;
lastChange = "2019-12-17 15:39:55 +0000";
layers = (
{
layerId = "90A2DC70-B0EC-4941-B875-3E2B1B2F3578";
paths = (
{
closed = 1;
nodes = (
"654 -20 OFFCURVE",
"891 119 OFFCURVE",
"1065 398 OFFCURVE",
"1159 792 OFFCURVE",
"1159 949 QCURVE SMOOTH",
"1159 1160 OFFCURVE",
"971 1370 OFFCURVE",
"778 1370 QCURVE SMOOTH",
"616 1370 OFFCURVE",
"385 1239 OFFCURVE",
"218 966 OFFCURVE",
"121 564 OFFCURVE",
"121 411 QCURVE SMOOTH",
"121 199 OFFCURVE",
"311 -20 OFFCURVE",
"502 -20 QCURVE SMOOTH"
);
},
{
closed = 1;
nodes = (
"978 831 OFFCURVE",
"904 472 OFFCURVE",
"793 241 OFFCURVE",
"638 127 OFFCURVE",
"533 127 QCURVE SMOOTH",
"416 127 OFFCURVE",
"302 267 OFFCURVE",
"302 415 QCURVE SMOOTH",
"302 573 OFFCURVE",
"416 1021 OFFCURVE",
"601 1224 OFFCURVE",
"750 1224 QCURVE SMOOTH",
"868 1224 OFFCURVE",
"978 1091 OFFCURVE",
"978 947 QCURVE SMOOTH"
);
},
{
closed = 1;
nodes = (
"733 555 LINE",
"782 804 LINE",
"547 804 LINE",
"498 555 LINE"
);
}
);
userData = {
assembly = "NPUSHB[ ]\011/* 26 values pushed */
31 12 32 124 32 140 32 3 14 3 32 32 0 8 8 19 115 89 8 7 0 26 115 89 0 25 
SVTCA[0]\011/* SetFreedomAndProjectionVectorToAxis */
MIAP[1]\011/* MoveIndirectAbsPt */
CALL[ ]\011/* CallFunction */
SVTCA[0]\011/* SetFreedomAndProjectionVectorToAxis */
RTG[ ]\011/* RoundToGrid */
MIAP[1]\011/* MoveIndirectAbsPt */
CALL[ ]\011/* CallFunction */
SRP1[ ]\011/* SetRefPoint1 */
SRP2[ ]\011/* SetRefPoint2 */
SVTCA[0]\011/* SetFreedomAndProjectionVectorToAxis */
IP[ ]\011/* InterpolatePts */
RTG[ ]\011/* RoundToGrid */
MDAP[1]\011/* MoveDirectAbsPt */
SDS[ ]\011/* SetDeltaShiftInGState */
SDB[ ]\011/* SetDeltaBaseInGState */
DELTAP1[ ]\011/* DeltaExceptionP1 */
SHP[1]\011/* ShiftPointByLastPoint */
IUP[1]\011/* InterpolateUntPts */
IUP[0]\011/* InterpolateUntPts */";
};
width = 1229;
}
);
note = zero;
unicode = 0030;
},
{
glyphname = one;
lastChange = "2019-12-17 15:39:55 +0000";
layers = (
{
layerId = "90A2DC70-B0EC-4941-B875-3E2B1B2F3578";
paths = (
{
closed = 1;
nodes = (
"1025 0 LINE",
"1053 145 LINE",
"700 145 LINE",
"934 1349 LINE",
"768 1349 LINE",
"698 1250 OFFCURVE",
"411 1120 OFFCURVE",
"261 1120 QCURVE",
"232 972 LINE",
"366 972 OFFCURVE",
"665 1087 OFFCURVE",
"718 1166 QCURVE",
"519 145 LINE",
"80 145 LINE",
"52 0 LINE"
);
}
);
userData = {
assembly = "NPUSHB[ ]\011/* 19 values pushed */
3 6 11 7 6 115 89 7 7 11 6 12 2 0 2 115 89 0 24 
SVTCA[0]\011/* SetFreedomAndProjectionVectorToAxis */
MIAP[1]\011/* MoveIndirectAbsPt */
CALL[ ]\011/* CallFunction */
SRP1[ ]\011/* SetRefPoint1 */
SVTCA[0]\011/* SetFreedomAndProjectionVectorToAxis */
SHP[1]\011/* ShiftPointByLastPoint */
RTG[ ]\011/* RoundToGrid */
MIAP[1]\011/* MoveIndirectAbsPt */
SHP[1]\011/* ShiftPointByLastPoint */
MDAP[1]\011/* MoveDirectAbsPt */
CALL[ ]\011/* CallFunction */
SRP1[ ]\011/* SetRefPoint1 */
SRP2[ ]\011/* SetRefPoint2 */
SVTCA[0]\011/* SetFreedomAndProjectionVectorToAxis */
IP[ ]\011/* InterpolatePts */
IUP[1]\011/* InterpolateUntPts */
IUP[0]\011/* InterpolateUntPts */";
};
width = 1229;
}
);
note = one;
unicode = 0031;
},
{
glyphname = two;
lastChange = "2019-12-17 15:39:55 +0000";
layers = (
{
layerId = "90A2DC70-B0EC-4941-B875-3E2B1B2F3578";
paths = (
{
closed = 1;
nodes = (
"979 0 LINE",
"1007 146 LINE",
"284 146 LINE",
"324 209 OFFCURVE",
"487 350 OFFCURVE",
"619 441 QCURVE SMOOTH",
"830 585 OFFCURVE",
"1002 732 OFFCURVE",
"1112 876 OFFCURVE",
"1160 1012 OFFCURVE",
"1160 1084 QCURVE SMOOTH",
"1160 1224 OFFCURVE",
"956 1370 OFFCURVE",
"772 1370 QCURVE SMOOTH",
"579 1370 OFFCURVE",
"303 1173 OFFCURVE",
"249 1001 QCURVE",
"429 984 LINE",
"466 1103 OFFCURVE",
"635 1222 OFFCURVE",
"744 1222 QCURVE SMOOTH",
"855 1222 OFFCURVE",
"971 1130 OFFCURVE",
"971 1047 QCURVE SMOOTH",
"971 978 OFFCURVE",
"903 849 OFFCURVE",
"754 708 OFFCURVE",
"587 589 QCURVE SMOOTH",
"572 578 OFFCURVE",
"316 394 OFFCURVE",
"120 207 OFFCURVE",
"62 117 QCURVE",
"39 0 LINE"
);
}
);
userData = {
assembly = "NPUSHB[ ]\011/* 22 values pushed */
15 15 1 14 3 15 15 19 19 12 115 89 19 7 1 30 0 30 115 89 0 24 
SVTCA[0]\011/* SetFreedomAndProjectionVectorToAxis */
MIAP[1]\011/* MoveIndirectAbsPt */
CALL[ ]\011/* CallFunction */
SRP1[ ]\011/* SetRefPoint1 */
SVTCA[0]\011/* SetFreedomAndProjectionVectorToAxis */
SHP[1]\011/* ShiftPointByLastPoint */
RTG[ ]\011/* RoundToGrid */
MIAP[1]\011/* MoveIndirectAbsPt */
CALL[ ]\011/* CallFunction */
SRP1[ ]\011/* SetRefPoint1 */
SVTCA[0]\011/* SetFreedomAndProjectionVectorToAxis */
SHP[1]\011/* ShiftPointByLastPoint */
RTG[ ]\011/* RoundToGrid */
MDAP[1]\011/* MoveDirectAbsPt */
SDS[ ]\011/* SetDeltaShiftInGState */
SDB[ ]\011/* SetDeltaBaseInGState */
DELTAP1[ ]\011/* DeltaExceptionP1 */
IUP[1]\011/* InterpolateUntPts */
IUP[0]\011/* InterpolateUntPts */";
};
width = 1229;
}
);
note = two;
unicode = 0032;
},
{
glyphname = three;
lastChange = "2019-12-17 15:39:55 +0000";
layers = (
{
layerId = "90A2DC70-B0EC-4941-B875-3E2B1B2F3578";
paths = (
{
closed = 1;
nodes = (
"638 -20 OFFCURVE",
"844 46 OFFCURVE",
"990 169 OFFCURVE",
"1071 347 OFFCURVE",
"1071 426 QCURVE SMOOTH",
"1071 531 OFFCURVE",
"923 674 OFFCURVE",
"794 689 QCURVE",
"795 693 LINE",
"959 725 OFFCURVE",
"1160 944 OFFCURVE",
"1160 1091 QCURVE SMOOTH",
"1160 1224 OFFCURVE",
"962 1370 OFFCURVE",
"774 1370 QCURVE SMOOTH",
"580 1370 OFFCURVE",
"296 1175 OFFCURVE",
"242 1003 QCURVE",
"420 989 LINE",
"454 1100 OFFCURVE",
"625 1222 OFFCURVE",
"744 1222 QCURVE SMOOTH",
"858 1222 OFFCURVE",
"969 1132 OFFCURVE",
"969 1051 QCURVE SMOOTH",
"969 959 OFFCURVE",
"871 834 OFFCURVE",
"704 765 OFFCURVE",
"608 765 QCURVE SMOOTH",
"510 765 LINE",
"479 609 LINE",
"581 609 LINE SMOOTH",
"719 609 OFFCURVE",
"884 506 OFFCURVE",
"884 417 QCURVE SMOOTH",
"884 343 OFFCURVE",
"798 202 OFFCURVE",
"644 129 OFFCURVE",
"541 129 QCURVE SMOOTH",
"282 129 OFFCURVE",
"282 358 QCURVE SMOOTH",
"283 379 LINE",
"93 362 LINE",
"92 353 OFFCURVE",
"92 325 QCURVE SMOOTH",
"92 156 OFFCURVE",
"306 -20 OFFCURVE",
"512 -20 QCURVE SMOOTH"
);
}
);
userData = {
assembly = "NPUSHB[ ]\011/* 40 values pushed */
39 18 17 0 6 16 6 32 6 96 6 4 12 3 6 6 9 17 18 17 115 89 18 29 18 29 0 33 33 26 115 89 33 7 0 9 115 89 0 25 
SVTCA[0]\011/* SetFreedomAndProjectionVectorToAxis */
MIAP[1]\011/* MoveIndirectAbsPt */
CALL[ ]\011/* CallFunction */
SVTCA[0]\011/* SetFreedomAndProjectionVectorToAxis */
RTG[ ]\011/* RoundToGrid */
MIAP[1]\011/* MoveIndirectAbsPt */
CALL[ ]\011/* CallFunction */
SRP1[ ]\011/* SetRefPoint1 */
SRP2[ ]\011/* SetRefPoint2 */
SVTCA[0]\011/* SetFreedomAndProjectionVectorToAxis */
IP[ ]\011/* InterpolatePts */
IP[ ]\011/* InterpolatePts */
RTG[ ]\011/* RoundToGrid */
MDAP[1]\011/* MoveDirectAbsPt */
MDAP[1]\011/* MoveDirectAbsPt */
CALL[ ]\011/* CallFunction */
SRP1[ ]\011/* SetRefPoint1 */
SRP2[ ]\011/* SetRefPoint2 */
SVTCA[0]\011/* SetFreedomAndProjectionVectorToAxis */
IP[ ]\011/* InterpolatePts */
RTG[ ]\011/* RoundToGrid */
MDAP[1]\011/* MoveDirectAbsPt */
SDS[ ]\011/* SetDeltaShiftInGState */
SDB[ ]\011/* SetDeltaBaseInGState */
DELTAP1[ ]\011/* DeltaExceptionP1 */
SRP1[ ]\011/* SetRefPoint1 */
SRP2[ ]\011/* SetRefPoint2 */
IP[ ]\011/* InterpolatePts */
IUP[1]\011/* InterpolateUntPts */
IUP[0]\011/* InterpolateUntPts */";
};
width = 1229;
}
);
note = three;
unicode = 0033;
},
{
glyphname = four;
lastChange = "2019-12-17 15:39:55 +0000";
layers = (
{
layerId = "90A2DC70-B0EC-4941-B875-3E2B1B2F3578";
paths = (
{
closed = 1;
nodes = (
"1082 319 LINE",
"1110 461 LINE",
"922 461 LINE",
"1094 1349 LINE",
"895 1349 LINE",
"87 459 LINE",
"60 319 LINE",
"714 319 LINE",
"652 0 LINE",
"832 0 LINE",
"894 319 LINE"
);
},
{
closed = 1;
nodes = (
"742 461 LINE",
"242 461 LINE",
"876 1154 LINE"
);
}
);
userData = {
assembly = "NPUSHB[ ]\011/* 28 values pushed */
3 0 4 12 4 115 89 5 8 13 3 15 12 31 12 47 12 3 12 12 1 11 7 6 6 2 1 24 
SVTCA[0]\011/* SetFreedomAndProjectionVectorToAxis */
MIAP[1]\011/* MoveIndirectAbsPt */
SHP[1]\011/* ShiftPointByLastPoint */
MIAP[1]\011/* MoveIndirectAbsPt */
SHP[1]\011/* ShiftPointByLastPoint */
SHP[1]\011/* ShiftPointByLastPoint */
SRP2[ ]\011/* SetRefPoint2 */
IP[ ]\011/* InterpolatePts */
MDAP[1]\011/* MoveDirectAbsPt */
DELTAP1[ ]\011/* DeltaExceptionP1 */
SLOOP[ ]\011/* SetLoopVariable */
SHP[1]\011/* ShiftPointByLastPoint */
CALL[ ]\011/* CallFunction */
SRP1[ ]\011/* SetRefPoint1 */
SVTCA[0]\011/* SetFreedomAndProjectionVectorToAxis */
SHP[1]\011/* ShiftPointByLastPoint */
SHP[1]\011/* ShiftPointByLastPoint */
IUP[1]\011/* InterpolateUntPts */
IUP[0]\011/* InterpolateUntPts */";
};
width = 1229;
}
);
note = four;
unicode = 0034;
},
{
glyphname = five;
lastChange = "2019-12-17 15:39:55 +0000";
layers = (
{
layerId = "90A2DC70-B0EC-4941-B875-3E2B1B2F3578";
paths = (
{
closed = 1;
nodes = (
"662 -20 OFFCURVE",
"937 125 OFFCURVE",
"1089 394 OFFCURVE",
"1089 535 QCURVE SMOOTH",
"1089 688 OFFCURVE",
"884 869 OFFCURVE",
"708 869 QCURVE SMOOTH",
"535 869 OFFCURVE",
"399 779 QCURVE",
"511 1204 LINE",
"1146 1204 LINE",
"1174 1349 LINE",
"373 1349 LINE",
"185 621 LINE",
"361 621 LINE",
"436 677 OFFCURVE",
"569 722 OFFCURVE",
"642 722 QCURVE SMOOTH",
"762 722 OFFCURVE",
"899 601 OFFCURVE",
"899 498 QCURVE SMOOTH",
"899 411 OFFCURVE",
"801 226 OFFCURVE",
"629 127 OFFCURVE",
"523 127 QCURVE SMOOTH",
"286 127 OFFCURVE",
"270 336 QCURVE",
"84 315 LINE",
"84 154 OFFCURVE",
"292 -20 OFFCURVE",
"490 -20 QCURVE SMOOTH"
);
}
);
userData = {
assembly = "NPUSHB[ ]\011/* 33 values pushed */
4 4 6 16 17 17 22 24 24 13 115 89 24 64 19 22 72 24 24 0 18 18 21 115 89 18 6 0 6 115 89 0 25 
SVTCA[0]\011/* SetFreedomAndProjectionVectorToAxis */
MIAP[1]\011/* MoveIndirectAbsPt */
CALL[ ]\011/* CallFunction */
SVTCA[0]\011/* SetFreedomAndProjectionVectorToAxis */
RTG[ ]\011/* RoundToGrid */
MIAP[1]\011/* MoveIndirectAbsPt */
CALL[ ]\011/* CallFunction */
SRP1[ ]\011/* SetRefPoint1 */
SRP2[ ]\011/* SetRefPoint2 */
SVTCA[0]\011/* SetFreedomAndProjectionVectorToAxis */
IP[ ]\011/* InterpolatePts */
RTG[ ]\011/* RoundToGrid */
MDAP[1]\011/* MoveDirectAbsPt */
CALL[ ]\011/* CallFunction */
CALL[ ]\011/* CallFunction */
SRP1[ ]\011/* SetRefPoint1 */
SVTCA[0]\011/* SetFreedomAndProjectionVectorToAxis */
SHP[1]\011/* ShiftPointByLastPoint */
SHP[1]\011/* ShiftPointByLastPoint */
RTG[ ]\011/* RoundToGrid */
MDAP[1]\011/* MoveDirectAbsPt */
SHP[1]\011/* ShiftPointByLastPoint */
SRP2[ ]\011/* SetRefPoint2 */
IP[ ]\011/* InterpolatePts */
MDAP[1]\011/* MoveDirectAbsPt */
IUP[1]\011/* InterpolateUntPts */
IUP[0]\011/* InterpolateUntPts */";
};
width = 1229;
}
);
note = five;
unicode = 0035;
},
{
glyphname = six;
lastChange = "2019-12-17 15:39:55 +0000";
layers = (
{
layerId = "90A2DC70-B0EC-4941-B875-3E2B1B2F3578";
paths = (
{
closed = 1;
nodes = (
"656 -20 OFFCURVE",
"859 68 OFFCURVE",
"1007 228 OFFCURVE",
"1089 448 OFFCURVE",
"1089 551 QCURVE SMOOTH",
"1089 704 OFFCURVE",
"903 881 OFFCURVE",
"738 881 QCURVE SMOOTH",
"623 881 OFFCURVE",
"427 786 OFFCURVE",
"360 695 QCURVE",
"408 943 OFFCURVE",
"633 1224 OFFCURVE",
"786 1224 QCURVE SMOOTH",
"867 1224 OFFCURVE",
"974 1143 OFFCURVE",
"984 1052 QCURVE",
"1163 1083 LINE",
"1134 1370 OFFCURVE",
"816 1370 QCURVE SMOOTH",
"672 1370 OFFCURVE",
"429 1228 OFFCURVE",
"252 957 OFFCURVE",
"147 571 OFFCURVE",
"147 413 QCURVE SMOOTH",
"147 202 OFFCURVE",
"343 -20 OFFCURVE",
"532 -20 QCURVE SMOOTH"
);
},
{
closed = 1;
nodes = (
"901 416 OFFCURVE",
"810 228 OFFCURVE",
"652 125 OFFCURVE",
"554 125 QCURVE SMOOTH",
"451 125 OFFCURVE",
"327 269 OFFCURVE",
"327 391 QCURVE SMOOTH",
"327 501 OFFCURVE",
"417 652 OFFCURVE",
"580 742 OFFCURVE",
"668 742 QCURVE SMOOTH",
"779 742 OFFCURVE",
"901 626 OFFCURVE",
"901 520 QCURVE SMOOTH"
);
}
);
userData = {
assembly = "NPUSHB[ ]\011/* 30 values pushed */
11 11 8 20 20 31 115 89 17 15 20 1 15 3 20 20 0 8 8 14 115 89 8 7 0 38 115 89 0 25 
SVTCA[0]\011/* SetFreedomAndProjectionVectorToAxis */
MIAP[1]\011/* MoveIndirectAbsPt */
CALL[ ]\011/* CallFunction */
SVTCA[0]\011/* SetFreedomAndProjectionVectorToAxis */
RTG[ ]\011/* RoundToGrid */
MIAP[1]\011/* MoveIndirectAbsPt */
CALL[ ]\011/* CallFunction */
SRP1[ ]\011/* SetRefPoint1 */
SRP2[ ]\011/* SetRefPoint2 */
SVTCA[0]\011/* SetFreedomAndProjectionVectorToAxis */
IP[ ]\011/* InterpolatePts */
RTG[ ]\011/* RoundToGrid */
MDAP[1]\011/* MoveDirectAbsPt */
SDS[ ]\011/* SetDeltaShiftInGState */
SDB[ ]\011/* SetDeltaBaseInGState */
DELTAP1[ ]\011/* DeltaExceptionP1 */
SHP[1]\011/* ShiftPointByLastPoint */
CALL[ ]\011/* CallFunction */
SRP1[ ]\011/* SetRefPoint1 */
SRP2[ ]\011/* SetRefPoint2 */
SVTCA[0]\011/* SetFreedomAndProjectionVectorToAxis */
IP[ ]\011/* InterpolatePts */
RTG[ ]\011/* RoundToGrid */
MDAP[1]\011/* MoveDirectAbsPt */
IUP[1]\011/* InterpolateUntPts */
IUP[0]\011/* InterpolateUntPts */";
};
width = 1229;
}
);
note = six;
unicode = 0036;
},
{
glyphname = seven;
lastChange = "2019-12-17 15:39:55 +0000";
layers = (
{
layerId = "90A2DC70-B0EC-4941-B875-3E2B1B2F3578";
paths = (
{
closed = 1;
nodes = (
"542 262 OFFCURVE",
"884 854 OFFCURVE",
"1199 1210 QCURVE",
"1226 1349 LINE",
"315 1349 LINE",
"287 1204 LINE",
"1024 1204 LINE",
"716 871 OFFCURVE",
"355 263 OFFCURVE",
"303 0 QCURVE",
"491 0 LINE"
);
}
);
userData = {
assembly = "NPUSHB[ ]\011/* 12 values pushed */
4 8 5 6 5 115 89 6 6 1 0 24 
SVTCA[0]\011/* SetFreedomAndProjectionVectorToAxis */
MIAP[1]\011/* MoveIndirectAbsPt */
SHP[0]\011/* ShiftPointByLastPoint */
MIAP[1]\011/* MoveIndirectAbsPt */
CALL[ ]\011/* CallFunction */
SRP1[ ]\011/* SetRefPoint1 */
SVTCA[0]\011/* SetFreedomAndProjectionVectorToAxis */
SHP[1]\011/* ShiftPointByLastPoint */
SHP[1]\011/* ShiftPointByLastPoint */
IUP[1]\011/* InterpolateUntPts */
IUP[0]\011/* InterpolateUntPts */";
};
width = 1229;
}
);
note = seven;
unicode = 0037;
},
{
glyphname = eight;
lastChange = "2019-12-17 15:39:55 +0000";
layers = (
{
layerId = "90A2DC70-B0EC-4941-B875-3E2B1B2F3578";
paths = (
{
closed = 1;
nodes = (
"637 -20 OFFCURVE",
"844 50 OFFCURVE",
"990 181 OFFCURVE",
"1070 366 OFFCURVE",
"1070 453 QCURVE SMOOTH",
"1070 556 OFFCURVE",
"948 692 OFFCURVE",
"842 709 QCURVE",
"843 713 LINE",
"976 739 OFFCURVE",
"1159 955 OFFCURVE",
"1159 1086 QCURVE SMOOTH",
"1159 1217 OFFCURVE",
"954 1370 OFFCURVE",
"771 1370 QCURVE SMOOTH",
"625 1370 OFFCURVE",
"388 1261 OFFCURVE",
"254 1070 OFFCURVE",
"254 961 QCURVE SMOOTH",
"254 866 OFFCURVE",
"357 733 OFFCURVE",
"447 711 QCURVE",
"446 707 LINE",
"350 692 OFFCURVE",
"186 574 OFFCURVE",
"92 396 OFFCURVE",
"92 291 QCURVE SMOOTH",
"92 141 OFFCURVE",
"309 -20 OFFCURVE",
"505 -20 QCURVE SMOOTH"
);
},
{
closed = 1;
nodes = (
"970 1010 OFFCURVE",
"912 863 OFFCURVE",
"766 779 OFFCURVE",
"658 779 QCURVE SMOOTH",
"549 779 OFFCURVE",
"437 871 OFFCURVE",
"437 958 QCURVE SMOOTH",
"437 1032 OFFCURVE",
"507 1165 OFFCURVE",
"649 1236 OFFCURVE",
"745 1236 QCURVE SMOOTH",
"970 1236 OFFCURVE",
"970 1068 QCURVE SMOOTH"
);
},
{
closed = 1;
nodes = (
"885 375 OFFCURVE",
"806 203 OFFCURVE",
"650 115 OFFCURVE",
"533 115 QCURVE SMOOTH",
"282 115 OFFCURVE",
"282 316 QCURVE SMOOTH",
"282 405 OFFCURVE",
"364 558 OFFCURVE",
"525 644 OFFCURVE",
"630 644 QCURVE SMOOTH",
"753 644 OFFCURVE",
"885 546 OFFCURVE",
"885 451 QCURVE SMOOTH"
);
}
);
userData = {
assembly = "NPUSHB[ ]\011/* 25 values pushed */
21 8 8 39 46 39 46 115 89 39 39 0 15 15 32 115 89 15 7 0 52 115 89 0 25 
SVTCA[0]\011/* SetFreedomAndProjectionVectorToAxis */
MIAP[1]\011/* MoveIndirectAbsPt */
CALL[ ]\011/* CallFunction */
SVTCA[0]\011/* SetFreedomAndProjectionVectorToAxis */
RTG[ ]\011/* RoundToGrid */
MIAP[1]\011/* MoveIndirectAbsPt */
CALL[ ]\011/* CallFunction */
SRP1[ ]\011/* SetRefPoint1 */
SRP2[ ]\011/* SetRefPoint2 */
SVTCA[0]\011/* SetFreedomAndProjectionVectorToAxis */
IP[ ]\011/* InterpolatePts */
RTG[ ]\011/* RoundToGrid */
MDAP[1]\011/* MoveDirectAbsPt */
CALL[ ]\011/* CallFunction */
SRP1[ ]\011/* SetRefPoint1 */
SRP2[ ]\011/* SetRefPoint2 */
SVTCA[0]\011/* SetFreedomAndProjectionVectorToAxis */
IP[ ]\011/* InterpolatePts */
SRP1[ ]\011/* SetRefPoint1 */
SHP[1]\011/* ShiftPointByLastPoint */
IUP[1]\011/* InterpolateUntPts */
IUP[0]\011/* InterpolateUntPts */";
};
width = 1229;
}
);
note = eight;
unicode = 0038;
},
{
glyphname = nine;
lastChange = "2019-12-17 15:39:55 +0000";
layers = (
{
layerId = "90A2DC70-B0EC-4941-B875-3E2B1B2F3578";
paths = (
{
closed = 1;
nodes = (
"617 -20 OFFCURVE",
"864 124 OFFCURVE",
"1047 408 OFFCURVE",
"1146 795 OFFCURVE",
"1146 955 QCURVE SMOOTH",
"1146 1370 OFFCURVE",
"771 1370 QCURVE SMOOTH",
"646 1370 OFFCURVE",
"434 1283 OFFCURVE",
"282 1123 OFFCURVE",
"201 904 OFFCURVE",
"201 796 QCURVE SMOOTH",
"201 635 OFFCURVE",
"384 451 OFFCURVE",
"542 451 QCURVE SMOOTH",
"659 451 OFFCURVE",
"873 561 OFFCURVE",
"930 650 QCURVE",
"879 399 OFFCURVE",
"650 125 OFFCURVE",
"499 125 QCURVE SMOOTH",
"315 125 OFFCURVE",
"296 301 QCURVE",
"118 274 LINE",
"131 120 OFFCURVE",
"302 -20 OFFCURVE",
"468 -20 QCURVE SMOOTH"
);
},
{
closed = 1;
nodes = (
"964 842 OFFCURVE",
"872 688 OFFCURVE",
"702 593 OFFCURVE",
"612 593 QCURVE SMOOTH",
"507 593 OFFCURVE",
"387 715 OFFCURVE",
"387 826 QCURVE SMOOTH",
"387 927 OFFCURVE",
"479 1120 OFFCURVE",
"638 1224 OFFCURVE",
"737 1224 QCURVE SMOOTH",
"843 1224 OFFCURVE",
"964 1082 OFFCURVE",
"964 960 QCURVE SMOOTH"
);
}
);
userData = {
assembly = "NPUSHB[ ]\011/* 25 values pushed */
4 4 0 12 12 37 115 89 9 12 12 0 20 20 30 115 89 20 7 0 6 115 89 0 25 
SVTCA[0]\011/* SetFreedomAndProjectionVectorToAxis */
MIAP[1]\011/* MoveIndirectAbsPt */
CALL[ ]\011/* CallFunction */
SVTCA[0]\011/* SetFreedomAndProjectionVectorToAxis */
RTG[ ]\011/* RoundToGrid */
MIAP[1]\011/* MoveIndirectAbsPt */
CALL[ ]\011/* CallFunction */
SRP1[ ]\011/* SetRefPoint1 */
SRP2[ ]\011/* SetRefPoint2 */
SVTCA[0]\011/* SetFreedomAndProjectionVectorToAxis */
IP[ ]\011/* InterpolatePts */
RTG[ ]\011/* RoundToGrid */
MDAP[1]\011/* MoveDirectAbsPt */
SHP[1]\011/* ShiftPointByLastPoint */
CALL[ ]\011/* CallFunction */
SRP1[ ]\011/* SetRefPoint1 */
SRP2[ ]\011/* SetRefPoint2 */
SVTCA[0]\011/* SetFreedomAndProjectionVectorToAxis */
IP[ ]\011/* InterpolatePts */
RTG[ ]\011/* RoundToGrid */
MDAP[1]\011/* MoveDirectAbsPt */
IUP[1]\011/* InterpolateUntPts */
IUP[0]\011/* InterpolateUntPts */";
};
width = 1229;
}
);
note = nine;
unicode = 0039;
},
{
glyphname = colon;
lastChange = "2019-12-17 15:39:55 +0000";
layers = (
{
layerId = "90A2DC70-B0EC-4941-B875-3E2B1B2F3578";
paths = (
{
closed = 1;
nodes = (
"626 0 LINE",
"684 299 LINE",
"449 299 LINE",
"391 0 LINE"
);
},
{
closed = 1;
nodes = (
"778 783 LINE",
"836 1082 LINE",
"601 1082 LINE",
"543 783 LINE"
);
}
);
userData = {
assembly = "NPUSHB[ ]\011/* 18 values pushed */
7 4 5 4 155 91 6 5 15 2 1 0 1 155 91 3 0 21 
SVTCA[0]\011/* SetFreedomAndProjectionVectorToAxis */
MIAP[1]\011/* MoveIndirectAbsPt */
SHP[0]\011/* ShiftPointByLastPoint */
CALL[ ]\011/* CallFunction */
SRP1[ ]\011/* SetRefPoint1 */
SVTCA[0]\011/* SetFreedomAndProjectionVectorToAxis */
SHP[1]\011/* ShiftPointByLastPoint */
RTG[ ]\011/* RoundToGrid */
MIAP[1]\011/* MoveIndirectAbsPt */
SHP[1]\011/* ShiftPointByLastPoint */
CALL[ ]\011/* CallFunction */
SRP1[ ]\011/* SetRefPoint1 */
SVTCA[0]\011/* SetFreedomAndProjectionVectorToAxis */
SHP[1]\011/* ShiftPointByLastPoint */
IUP[1]\011/* InterpolateUntPts */
IUP[0]\011/* InterpolateUntPts */";
};
width = 1229;
}
);
note = colon;
unicode = 003A;
},
{
glyphname = semicolon;
lastChange = "2019-12-17 15:39:55 +0000";
layers = (
{
layerId = "90A2DC70-B0EC-4941-B875-3E2B1B2F3578";
paths = (
{
closed = 1;
nodes = (
"778 783 LINE",
"836 1082 LINE",
"601 1082 LINE",
"543 783 LINE"
);
},
{
closed = 1;
nodes = (
"299 -363 LINE",
"739 299 LINE",
"474 299 LINE",
"176 -363 LINE"
);
}
);
userData = {
assembly = "NPUSHB[ ]\011/* 12 values pushed */
5 7 156 91 5 8 1 0 155 91 1 15 
SVTCA[0]\011/* SetFreedomAndProjectionVectorToAxis */
MIAP[1]\011/* MoveIndirectAbsPt */
CALL[ ]\011/* CallFunction */
SVTCA[0]\011/* SetFreedomAndProjectionVectorToAxis */
RTG[ ]\011/* RoundToGrid */
SRP0[ ]\011/* SetRefPoint0 */
MDRP[00110]\011/* MoveDirectRelPt */
CALL[ ]\011/* CallFunction */
IUP[1]\011/* InterpolateUntPts */
IUP[0]\011/* InterpolateUntPts */";
};
width = 1229;
}
);
note = semicolon;
unicode = "003B,037E";
},
{
glyphname = less;
lastChange = "2019-12-17 15:39:55 +0000";
layers = (
{
layerId = "90A2DC70-B0EC-4941-B875-3E2B1B2F3578";
paths = (
{
closed = 1;
nodes = (
"1111 154 LINE",
"1111 307 LINE",
"253 674 LINE",
"1111 1040 LINE",
"1111 1194 LINE",
"116 776 LINE",
"116 571 LINE"
);
}
);
userData = {
assembly = "NPUSHB[ ]\011/* 28 values pushed */
1 0 4 4 2 5 63 6 111 6 127 6 159 6 175 6 207 6 6 6 3 176 2 1 15 2 1 2 
SVTCA[0]\011/* SetFreedomAndProjectionVectorToAxis */
MDAP[1]\011/* MoveDirectAbsPt */
DELTAP1[ ]\011/* DeltaExceptionP1 */
DELTAP1[ ]\011/* DeltaExceptionP1 */
SHP[1]\011/* ShiftPointByLastPoint */
MDAP[1]\011/* MoveDirectAbsPt */
DELTAP1[ ]\011/* DeltaExceptionP1 */
SHP[1]\011/* ShiftPointByLastPoint */
SRP2[ ]\011/* SetRefPoint2 */
IP[ ]\011/* InterpolatePts */
RTDG[ ]\011/* RoundToDoubleGrid */
MDAP[1]\011/* MoveDirectAbsPt */
SHP[1]\011/* ShiftPointByLastPoint */
SHP[1]\011/* ShiftPointByLastPoint */
IUP[1]\011/* InterpolateUntPts */
IUP[0]\011/* InterpolateUntPts */";
};
width = 1229;
}
);
note = less;
unicode = 003C;
},
{
glyphname = equal;
lastChange = "2019-12-17 15:39:55 +0000";
layers = (
{
layerId = "90A2DC70-B0EC-4941-B875-3E2B1B2F3578";
paths = (
{
closed = 1;
nodes = (
"1111 856 LINE",
"1111 1004 LINE",
"116 1004 LINE",
"116 856 LINE"
);
},
{
closed = 1;
nodes = (
"1111 344 LINE",
"1111 492 LINE",
"116 492 LINE",
"116 344 LINE"
);
}
);
userData = {
assembly = "NPUSHB[ ]\011/* 54 values pushed */
4 5 173 89 79 4 111 4 127 4 143 4 4 15 4 239 4 2 12 3 4 64 18 22 72 4 1 0 173 89 48 1 80 1 96 1 112 1 4 80 1 112 1 128 1 176 1 208 1 5 15 1 1 1 
SVTCA[0]\011/* SetFreedomAndProjectionVectorToAxis */
MDAP[1]\011/* MoveDirectAbsPt */
DELTAP1[ ]\011/* DeltaExceptionP1 */
DELTAP1[ ]\011/* DeltaExceptionP1 */
DELTAP2[ ]\011/* DeltaExceptionP2 */
CALL[ ]\011/* CallFunction */
SVTCA[0]\011/* SetFreedomAndProjectionVectorToAxis */
RTG[ ]\011/* RoundToGrid */
MDAP[1]\011/* MoveDirectAbsPt */
CALL[ ]\011/* CallFunction */
SDS[ ]\011/* SetDeltaShiftInGState */
SDB[ ]\011/* SetDeltaBaseInGState */
DELTAP1[ ]\011/* DeltaExceptionP1 */
DELTAP2[ ]\011/* DeltaExceptionP2 */
CALL[ ]\011/* CallFunction */
IUP[1]\011/* InterpolateUntPts */
IUP[0]\011/* InterpolateUntPts */";
};
width = 1229;
}
);
note = equal;
unicode = 003D;
},
{
glyphname = greater;
lastChange = "2019-12-17 15:39:55 +0000";
layers = (
{
layerId = "90A2DC70-B0EC-4941-B875-3E2B1B2F3578";
paths = (
{
closed = 1;
nodes = (
"1111 571 LINE",
"1111 776 LINE",
"116 1194 LINE",
"116 1040 LINE",
"974 674 LINE",
"116 307 LINE",
"116 154 LINE"
);
}
);
userData = {
assembly = "NPUSHB[ ]\011/* 27 values pushed */
6 5 2 2 3 176 4 1 15 4 1 4 1 63 0 111 0 127 0 159 0 175 0 207 0 6 0 
SVTCA[0]\011/* SetFreedomAndProjectionVectorToAxis */
MDAP[1]\011/* MoveDirectAbsPt */
DELTAP1[ ]\011/* DeltaExceptionP1 */
SHP[0]\011/* ShiftPointByLastPoint */
MDAP[1]\011/* MoveDirectAbsPt */
DELTAP1[ ]\011/* DeltaExceptionP1 */
DELTAP1[ ]\011/* DeltaExceptionP1 */
SHP[1]\011/* ShiftPointByLastPoint */
IP[ ]\011/* InterpolatePts */
RTDG[ ]\011/* RoundToDoubleGrid */
MDAP[1]\011/* MoveDirectAbsPt */
SHP[1]\011/* ShiftPointByLastPoint */
SHP[1]\011/* ShiftPointByLastPoint */
IUP[1]\011/* InterpolateUntPts */
IUP[0]\011/* InterpolateUntPts */";
};
width = 1229;
}
);
note = greater;
unicode = 003E;
},
{
glyphname = question;
lastChange = "2019-12-17 15:39:55 +0000";
layers = (
{
layerId = "90A2DC70-B0EC-4941-B875-3E2B1B2F3578";
paths = (
{
closed = 1;
nodes = (
"613 439 OFFCURVE",
"738 569 OFFCURVE",
"876 651 QCURVE SMOOTH",
"985 715 OFFCURVE",
"1117 856 OFFCURVE",
"1171 1007 OFFCURVE",
"1171 1078 QCURVE SMOOTH",
"1171 1217 OFFCURVE",
"952 1370 OFFCURVE",
"755 1370 QCURVE SMOOTH",
"544 1370 OFFCURVE",
"238 1154 OFFCURVE",
"176 960 QCURVE",
"357 948 LINE",
"396 1075 OFFCURVE",
"594 1220 OFFCURVE",
"728 1220 QCURVE SMOOTH",
"849 1220 OFFCURVE",
"984 1129 OFFCURVE",
"984 1042 QCURVE SMOOTH",
"984 944 OFFCURVE",
"857 792 OFFCURVE",
"708 702 QCURVE SMOOTH",
"584 627 OFFCURVE",
"444 462 OFFCURVE",
"420 357 QCURVE",
"595 357 LINE"
);
},
{
closed = 1;
nodes = (
"538 0 LINE",
"577 201 LINE",
"382 201 LINE",
"343 0 LINE"
);
}
);
userData = {
assembly = "NPUSHB[ ]\011/* 15 values pushed */
1 1 27 17 27 28 158 91 27 18 13 13 17 17 10 
PUSHW[ ]\011/* 1 value pushed */
282 
PUSHB[ ]\011/* 3 values pushed */
89 17 4 
SVTCA[0]\011/* SetFreedomAndProjectionVectorToAxis */
MIAP[1]\011/* MoveIndirectAbsPt */
CALL[ ]\011/* CallFunction */
SRP1[ ]\011/* SetRefPoint1 */
SVTCA[0]\011/* SetFreedomAndProjectionVectorToAxis */
SHP[1]\011/* ShiftPointByLastPoint */
RTG[ ]\011/* RoundToGrid */
MDAP[1]\011/* MoveDirectAbsPt */
MIAP[1]\011/* MoveIndirectAbsPt */
CALL[ ]\011/* CallFunction */
SRP1[ ]\011/* SetRefPoint1 */
SRP2[ ]\011/* SetRefPoint2 */
SVTCA[0]\011/* SetFreedomAndProjectionVectorToAxis */
IP[ ]\011/* InterpolatePts */
RTG[ ]\011/* RoundToGrid */
MDAP[1]\011/* MoveDirectAbsPt */
IUP[1]\011/* InterpolateUntPts */
IUP[0]\011/* InterpolateUntPts */";
};
width = 1229;
}
);
note = question;
unicode = 003F;
},
{
glyphname = at;
lastChange = "2019-12-17 15:39:55 +0000";
layers = (
{
layerId = "90A2DC70-B0EC-4941-B875-3E2B1B2F3578";
paths = (
{
closed = 1;
nodes = (
"914 104 OFFCURVE",
"1121 355 OFFCURVE",
"1255 802 OFFCURVE",
"1255 987 QCURVE SMOOTH",
"1255 1221 OFFCURVE",
"1047 1484 OFFCURVE",
"855 1484 QCURVE SMOOTH",
"685 1484 OFFCURVE",
"382 1289 OFFCURVE",
"150 930 OFFCURVE",
"11 444 OFFCURVE",
"11 249 QCURVE SMOOTH",
"11 1 OFFCURVE",
"231 -283 OFFCURVE",
"434 -283 QCURVE SMOOTH",
"550 -283 OFFCURVE",
"781 -196 OFFCURVE",
"921 -94 QCURVE",
"867 -7 LINE",
"742 -98 OFFCURVE",
"558 -165 OFFCURVE",
"467 -165 QCURVE SMOOTH",
"310 -165 OFFCURVE",
"140 66 OFFCURVE",
"140 273 QCURVE SMOOTH",
"140 449 OFFCURVE",
"261 882 OFFCURVE",
"457 1200 OFFCURVE",
"699 1368 OFFCURVE",
"831 1368 QCURVE SMOOTH",
"973 1368 OFFCURVE",
"1130 1152 OFFCURVE",
"1130 960 QCURVE SMOOTH",
"1130 818 OFFCURVE",
"1032 436 OFFCURVE",
"895 206 OFFCURVE",
"826 206 QCURVE SMOOTH",
"790 206 OFFCURVE",
"790 254 QCURVE SMOOTH",
"790 289 OFFCURVE",
"827 411 OFFCURVE",
"888 572 QCURVE SMOOTH",
"1086 1079 LINE",
"970 1079 LINE",
"908 928 LINE",
"903 928 LINE",
"898 1101 OFFCURVE",
"753 1101 QCURVE SMOOTH",
"634 1101 OFFCURVE",
"404 880 OFFCURVE",
"251 503 OFFCURVE",
"251 336 QCURVE SMOOTH",
"251 223 OFFCURVE",
"336 104 OFFCURVE",
"417 104 QCURVE SMOOTH",
"494 104 OFFCURVE",
"641 212 OFFCURVE",
"690 299 QCURVE",
"696 299 LINE",
"687 261 LINE SMOOTH",
"682 238 OFFCURVE",
"682 212 QCURVE SMOOTH",
"682 104 OFFCURVE",
"799 104 QCURVE SMOOTH"
);
},
{
closed = 1;
nodes = (
"831 789 OFFCURVE",
"729 492 OFFCURVE",
"626 309 OFFCURVE",
"514 210 OFFCURVE",
"462 210 QCURVE SMOOTH",
"385 210 OFFCURVE",
"385 339 QCURVE SMOOTH",
"385 473 OFFCURVE",
"502 808 OFFCURVE",
"659 999 OFFCURVE",
"735 999 QCURVE SMOOTH",
"780 999 OFFCURVE",
"831 934 OFFCURVE",
"831 869 QCURVE SMOOTH"
);
}
);
userData = {
assembly = "NPUSHB[ ]\011/* 53 values pushed */
27 5 73 9 73 214 89 0 9 18 67 16 67 214 89 20 20 16 45 15 9 31 9 95 9 111 9 127 9 5 11 0 16 1 12 3 9 16 9 16 49 57 57 34 213 89 57 0 49 42 213 89 49 
SVTCA[0]\011/* SetFreedomAndProjectionVectorToAxis */
MDAP[1]\011/* MoveDirectAbsPt */
CALL[ ]\011/* CallFunction */
SVTCA[0]\011/* SetFreedomAndProjectionVectorToAxis */
RTG[ ]\011/* RoundToGrid */
MIAP[1]\011/* MoveIndirectAbsPt */
CALL[ ]\011/* CallFunction */
SRP1[ ]\011/* SetRefPoint1 */
SRP2[ ]\011/* SetRefPoint2 */
SVTCA[0]\011/* SetFreedomAndProjectionVectorToAxis */
IP[ ]\011/* InterpolatePts */
IP[ ]\011/* InterpolatePts */
RTG[ ]\011/* RoundToGrid */
MDAP[1]\011/* MoveDirectAbsPt */
MDAP[1]\011/* MoveDirectAbsPt */
SDS[ ]\011/* SetDeltaShiftInGState */
SDB[ ]\011/* SetDeltaBaseInGState */
DELTAP1[ ]\011/* DeltaExceptionP1 */
SDB[ ]\011/* SetDeltaBaseInGState */
DELTAP1[ ]\011/* DeltaExceptionP1 */
IP[ ]\011/* InterpolatePts */
SRP1[ ]\011/* SetRefPoint1 */
SHP[1]\011/* ShiftPointByLastPoint */
MDAP[1]\011/* MoveDirectAbsPt */
CALL[ ]\011/* CallFunction */
SRP1[ ]\011/* SetRefPoint1 */
SVTCA[0]\011/* SetFreedomAndProjectionVectorToAxis */
SHP[1]\011/* ShiftPointByLastPoint */
SRP1[ ]\011/* SetRefPoint1 */
SHP[1]\011/* ShiftPointByLastPoint */
CALL[ ]\011/* CallFunction */
SRP1[ ]\011/* SetRefPoint1 */
SVTCA[0]\011/* SetFreedomAndProjectionVectorToAxis */
SHP[1]\011/* ShiftPointByLastPoint */
SHP[1]\011/* ShiftPointByLastPoint */
IUP[1]\011/* InterpolateUntPts */
IUP[0]\011/* InterpolateUntPts */";
};
width = 1229;
}
);
note = at;
unicode = 0040;
},
{
glyphname = A;
lastChange = "2019-12-17 15:39:55 +0000";
layers = (
{
layerId = "90A2DC70-B0EC-4941-B875-3E2B1B2F3578";
paths = (
{
closed = 1;
nodes = (
"1123 0 LINE",
"884 1349 LINE",
"667 1349 LINE",
"-105 0 LINE",
"91 0 LINE",
"302 382 LINE",
"865 382 LINE",
"929 0 LINE"
);
},
{
closed = 1;
nodes = (
"769 1031 LINE",
"845 531 LINE",
"382 531 LINE",
"626 974 OFFCURVE",
"699 1114 OFFCURVE",
"745 1205 QCURVE"
);
}
);
userData = {
assembly = "NPUSHB[ ]\011/* 12 values pushed */
11 2 95 89 11 11 8 5 3 4 0 18 
SVTCA[0]\011/* SetFreedomAndProjectionVectorToAxis */
MIAP[1]\011/* MoveIndirectAbsPt */
SHP[0]\011/* ShiftPointByLastPoint */
MIAP[1]\011/* MoveIndirectAbsPt */
SHP[1]\011/* ShiftPointByLastPoint */
IP[ ]\011/* InterpolatePts */
MDAP[1]\011/* MoveDirectAbsPt */
CALL[ ]\011/* CallFunction */
IUP[1]\011/* InterpolateUntPts */
IUP[0]\011/* InterpolateUntPts */";
};
width = 1229;
}
);
note = A;
unicode = 0041;
},
{
glyphname = B;
lastChange = "2019-12-17 15:39:55 +0000";
layers = (
{
layerId = "90A2DC70-B0EC-4941-B875-3E2B1B2F3578";
paths = (
{
closed = 1;
nodes = (
"663 0 OFFCURVE",
"891 65 OFFCURVE",
"1051 194 OFFCURVE",
"1128 364 OFFCURVE",
"1128 446 QCURVE SMOOTH",
"1128 553 OFFCURVE",
"981 694 OFFCURVE",
"835 711 QCURVE",
"936 731 OFFCURVE",
"1089 840 OFFCURVE",
"1171 1004 OFFCURVE",
"1171 1091 QCURVE SMOOTH",
"1171 1349 OFFCURVE",
"731 1349 QCURVE SMOOTH",
"319 1349 LINE",
"57 0 LINE",
"529 0 LINE SMOOTH"
);
},
{
closed = 1;
nodes = (
"967 998 LINE",
"923 780 OFFCURVE",
"625 780 QCURVE SMOOTH",
"400 780 LINE",
"480 1196 LINE",
"703 1196 LINE SMOOTH",
"837 1196 OFFCURVE",
"972 1125 OFFCURVE",
"972 1044 QCURVE"
);
},
{
closed = 1;
nodes = (
"931 397 LINE",
"907 274 OFFCURVE",
"719 153 OFFCURVE",
"544 153 QCURVE SMOOTH",
"278 153 LINE",
"371 631 LINE",
"623 631 LINE SMOOTH",
"936 631 OFFCURVE",
"936 446 QCURVE"
);
}
);
userData = {
assembly = "NPUSHB[ ]\011/* 23 values pushed */
9 22 29 22 29 95 89 22 22 1 2 2 21 95 89 2 3 1 30 95 89 1 18 
SVTCA[0]\011/* SetFreedomAndProjectionVectorToAxis */
MIAP[1]\011/* MoveIndirectAbsPt */
CALL[ ]\011/* CallFunction */
SVTCA[0]\011/* SetFreedomAndProjectionVectorToAxis */
RTG[ ]\011/* RoundToGrid */
MIAP[1]\011/* MoveIndirectAbsPt */
CALL[ ]\011/* CallFunction */
SRP1[ ]\011/* SetRefPoint1 */
SRP2[ ]\011/* SetRefPoint2 */
SVTCA[0]\011/* SetFreedomAndProjectionVectorToAxis */
IP[ ]\011/* InterpolatePts */
RTG[ ]\011/* RoundToGrid */
MDAP[1]\011/* MoveDirectAbsPt */
CALL[ ]\011/* CallFunction */
SRP1[ ]\011/* SetRefPoint1 */
SRP2[ ]\011/* SetRefPoint2 */
SVTCA[0]\011/* SetFreedomAndProjectionVectorToAxis */
IP[ ]\011/* InterpolatePts */
IUP[1]\011/* InterpolateUntPts */
IUP[0]\011/* InterpolateUntPts */";
};
width = 1229;
}
);
note = B;
unicode = 0042;
},
{
glyphname = C;
lastChange = "2019-12-17 15:39:55 +0000";
layers = (
{
layerId = "90A2DC70-B0EC-4941-B875-3E2B1B2F3578";
paths = (
{
closed = 1;
nodes = (
"316 579 OFFCURVE",
"393 906 OFFCURVE",
"510 1112 OFFCURVE",
"673 1214 OFFCURVE",
"781 1214 QCURVE SMOOTH",
"881 1214 OFFCURVE",
"1013 1089 OFFCURVE",
"1031 970 QCURVE",
"1211 1035 LINE",
"1145 1370 OFFCURVE",
"810 1370 QCURVE SMOOTH",
"649 1370 OFFCURVE",
"397 1242 OFFCURVE",
"220 992 OFFCURVE",
"116 612 OFFCURVE",
"116 447 QCURVE SMOOTH",
"116 217 OFFCURVE",
"338 -20 OFFCURVE",
"550 -20 QCURVE SMOOTH",
"882 -20 OFFCURVE",
"1105 352 QCURVE",
"959 417 LINE",
"879 278 OFFCURVE",
"685 135 OFFCURVE",
"582 135 QCURVE SMOOTH",
"316 135 OFFCURVE",
"316 452 QCURVE SMOOTH"
);
}
);
userData = {
assembly = "NPUSHB[ ]\011/* 35 values pushed */
16 22 95 89 31 19 47 19 111 19 3 19 19 16 4 0 5 16 5 32 5 80 5 4 12 3 5 5 8 8 2 95 89 8 19 
SVTCA[0]\011/* SetFreedomAndProjectionVectorToAxis */
MIAP[1]\011/* MoveIndirectAbsPt */
CALL[ ]\011/* CallFunction */
SRP1[ ]\011/* SetRefPoint1 */
SVTCA[0]\011/* SetFreedomAndProjectionVectorToAxis */
SHP[1]\011/* ShiftPointByLastPoint */
RTG[ ]\011/* RoundToGrid */
MDAP[1]\011/* MoveDirectAbsPt */
SDS[ ]\011/* SetDeltaShiftInGState */
SDB[ ]\011/* SetDeltaBaseInGState */
DELTAP1[ ]\011/* DeltaExceptionP1 */
MIAP[1]\011/* MoveIndirectAbsPt */
SHP[1]\011/* ShiftPointByLastPoint */
MDAP[1]\011/* MoveDirectAbsPt */
DELTAP1[ ]\011/* DeltaExceptionP1 */
CALL[ ]\011/* CallFunction */
IUP[1]\011/* InterpolateUntPts */
IUP[0]\011/* InterpolateUntPts */";
};
width = 1229;
}
);
note = C;
unicode = 0043;
},
{
glyphname = D;
lastChange = "2019-12-17 15:39:55 +0000";
layers = (
{
layerId = "90A2DC70-B0EC-4941-B875-3E2B1B2F3578";
paths = (
{
closed = 1;
nodes = (
"597 0 OFFCURVE",
"871 129 OFFCURVE",
"1067 378 OFFCURVE",
"1175 732 OFFCURVE",
"1175 890 QCURVE SMOOTH",
"1175 1349 OFFCURVE",
"630 1349 QCURVE SMOOTH",
"319 1349 LINE",
"57 0 LINE",
"427 0 LINE SMOOTH"
);
},
{
closed = 1;
nodes = (
"981 745 OFFCURVE",
"901 449 OFFCURVE",
"763 253 OFFCURVE",
"568 156 OFFCURVE",
"440 156 QCURVE SMOOTH",
"278 156 LINE",
"480 1193 LINE",
"601 1193 LINE SMOOTH",
"792 1193 OFFCURVE",
"981 1038 OFFCURVE",
"981 865 QCURVE SMOOTH"
);
}
);
userData = {
assembly = "NPUSHB[ ]\011/* 12 values pushed */
2 14 95 89 2 3 1 15 95 89 1 18 
SVTCA[0]\011/* SetFreedomAndProjectionVectorToAxis */
MIAP[1]\011/* MoveIndirectAbsPt */
CALL[ ]\011/* CallFunction */
SVTCA[0]\011/* SetFreedomAndProjectionVectorToAxis */
RTG[ ]\011/* RoundToGrid */
MIAP[1]\011/* MoveIndirectAbsPt */
CALL[ ]\011/* CallFunction */
IUP[1]\011/* InterpolateUntPts */
IUP[0]\011/* InterpolateUntPts */";
};
width = 1229;
}
);
note = D;
unicode = 0044;
},
{
glyphname = E;
lastChange = "2019-12-17 15:39:55 +0000";
layers = (
{
layerId = "90A2DC70-B0EC-4941-B875-3E2B1B2F3578";
paths = (
{
closed = 1;
nodes = (
"1017 0 LINE",
"1047 156 LINE",
"278 156 LINE",
"368 617 LINE",
"1036 617 LINE",
"1066 771 LINE",
"398 771 LINE",
"480 1193 LINE",
"1208 1193 LINE",
"1238 1349 LINE",
"319 1349 LINE",
"57 0 LINE"
);
}
);
userData = {
assembly = "NPUSHB[ ]\011/* 29 values pushed */
5 8 95 89 28 5 1 3 13 5 1 19 4 5 5 0 1 1 4 95 89 1 3 0 9 95 89 0 18 
SVTCA[0]\011/* SetFreedomAndProjectionVectorToAxis */
MIAP[1]\011/* MoveIndirectAbsPt */
CALL[ ]\011/* CallFunction */
SVTCA[0]\011/* SetFreedomAndProjectionVectorToAxis */
RTG[ ]\011/* RoundToGrid */
MIAP[1]\011/* MoveIndirectAbsPt */
CALL[ ]\011/* CallFunction */
SRP1[ ]\011/* SetRefPoint1 */
SRP2[ ]\011/* SetRefPoint2 */
SVTCA[0]\011/* SetFreedomAndProjectionVectorToAxis */
IP[ ]\011/* InterpolatePts */
RTG[ ]\011/* RoundToGrid */
MDAP[1]\011/* MoveDirectAbsPt */
SDS[ ]\011/* SetDeltaShiftInGState */
SDB[ ]\011/* SetDeltaBaseInGState */
DELTAP1[ ]\011/* DeltaExceptionP1 */
SDS[ ]\011/* SetDeltaShiftInGState */
DELTAP1[ ]\011/* DeltaExceptionP1 */
CALL[ ]\011/* CallFunction */
IUP[1]\011/* InterpolateUntPts */
IUP[0]\011/* InterpolateUntPts */";
};
width = 1229;
}
);
note = E;
unicode = 0045;
},
{
glyphname = F;
lastChange = "2019-12-17 15:39:55 +0000";
layers = (
{
layerId = "90A2DC70-B0EC-4941-B875-3E2B1B2F3578";
paths = (
{
closed = 1;
nodes = (
"1212 1193 LINE",
"1242 1349 LINE",
"351 1349 LINE",
"89 0 LINE",
"280 0 LINE",
"385 541 LINE",
"1061 541 LINE",
"1092 699 LINE",
"416 699 LINE",
"512 1193 LINE"
);
}
);
userData = {
assembly = "NPUSHB[ ]\011/* 16 values pushed */
1 4 95 89 1 1 5 7 7 0 95 89 7 3 5 18 
SVTCA[0]\011/* SetFreedomAndProjectionVectorToAxis */
MIAP[1]\011/* MoveIndirectAbsPt */
MIAP[1]\011/* MoveIndirectAbsPt */
CALL[ ]\011/* CallFunction */
SRP1[ ]\011/* SetRefPoint1 */
SRP2[ ]\011/* SetRefPoint2 */
SVTCA[0]\011/* SetFreedomAndProjectionVectorToAxis */
IP[ ]\011/* InterpolatePts */
RTG[ ]\011/* RoundToGrid */
MDAP[1]\011/* MoveDirectAbsPt */
CALL[ ]\011/* CallFunction */
IUP[1]\011/* InterpolateUntPts */
IUP[0]\011/* InterpolateUntPts */";
};
width = 1229;
}
);
note = F;
unicode = 0046;
},
{
glyphname = G;
lastChange = "2019-12-17 15:39:55 +0000";
layers = (
{
layerId = "90A2DC70-B0EC-4941-B875-3E2B1B2F3578";
paths = (
{
closed = 1;
nodes = (
"767 -20 OFFCURVE",
"1022 133 QCURVE",
"1133 705 LINE",
"654 705 LINE",
"623 545 LINE",
"916 545 LINE",
"851 209 LINE",
"797 177 OFFCURVE",
"644 135 OFFCURVE",
"576 135 QCURVE SMOOTH",
"316 135 OFFCURVE",
"316 455 QCURVE SMOOTH",
"316 582 OFFCURVE",
"395 915 OFFCURVE",
"509 1115 OFFCURVE",
"668 1214 OFFCURVE",
"775 1214 QCURVE SMOOTH",
"982 1214 OFFCURVE",
"1018 983 QCURVE",
"1200 1039 LINE",
"1147 1370 OFFCURVE",
"803 1370 QCURVE SMOOTH",
"642 1370 OFFCURVE",
"396 1245 OFFCURVE",
"222 997 OFFCURVE",
"116 612 OFFCURVE",
"116 451 QCURVE SMOOTH",
"116 221 OFFCURVE",
"331 -20 OFFCURVE",
"530 -20 QCURVE SMOOTH"
);
}
);
userData = {
assembly = "NPUSHB[ ]\011/* 27 values pushed */
27 24 95 89 27 27 0 8 8 13 95 89 15 11 1 14 3 11 11 8 4 0 20 95 89 0 19 
SVTCA[0]\011/* SetFreedomAndProjectionVectorToAxis */
MIAP[1]\011/* MoveIndirectAbsPt */
CALL[ ]\011/* CallFunction */
SVTCA[0]\011/* SetFreedomAndProjectionVectorToAxis */
RTG[ ]\011/* RoundToGrid */
MIAP[1]\011/* MoveIndirectAbsPt */
SHP[1]\011/* ShiftPointByLastPoint */
MDAP[1]\011/* MoveDirectAbsPt */
SDS[ ]\011/* SetDeltaShiftInGState */
SDB[ ]\011/* SetDeltaBaseInGState */
DELTAP1[ ]\011/* DeltaExceptionP1 */
CALL[ ]\011/* CallFunction */
SRP1[ ]\011/* SetRefPoint1 */
SRP2[ ]\011/* SetRefPoint2 */
SVTCA[0]\011/* SetFreedomAndProjectionVectorToAxis */
IP[ ]\011/* InterpolatePts */
RTG[ ]\011/* RoundToGrid */
MDAP[1]\011/* MoveDirectAbsPt */
CALL[ ]\011/* CallFunction */
IUP[1]\011/* InterpolateUntPts */
IUP[0]\011/* InterpolateUntPts */";
};
width = 1229;
}
);
note = G;
unicode = 0047;
},
{
glyphname = H;
lastChange = "2019-12-17 15:39:55 +0000";
layers = (
{
layerId = "90A2DC70-B0EC-4941-B875-3E2B1B2F3578";
paths = (
{
closed = 1;
nodes = (
"961 0 LINE",
"1223 1349 LINE",
"1032 1349 LINE",
"922 783 LINE",
"400 783 LINE",
"510 1349 LINE",
"319 1349 LINE",
"57 0 LINE",
"248 0 LINE",
"369 623 LINE",
"891 623 LINE",
"770 0 LINE"
);
}
);
userData = {
assembly = "NPUSHB[ ]\011/* 12 values pushed */
7 2 95 89 7 7 9 5 3 3 0 18 
SVTCA[0]\011/* SetFreedomAndProjectionVectorToAxis */
MIAP[1]\011/* MoveIndirectAbsPt */
SHP[0]\011/* ShiftPointByLastPoint */
MIAP[1]\011/* MoveIndirectAbsPt */
SHP[1]\011/* ShiftPointByLastPoint */
IP[ ]\011/* InterpolatePts */
MDAP[1]\011/* MoveDirectAbsPt */
CALL[ ]\011/* CallFunction */
IUP[1]\011/* InterpolateUntPts */
IUP[0]\011/* InterpolateUntPts */";
};
width = 1229;
}
);
note = H;
unicode = 0048;
},
{
glyphname = I;
lastChange = "2019-12-17 15:39:55 +0000";
layers = (
{
layerId = "90A2DC70-B0EC-4941-B875-3E2B1B2F3578";
paths = (
{
closed = 1;
nodes = (
"329 1193 LINE",
"645 1193 LINE",
"443 156 LINE",
"127 156 LINE",
"97 0 LINE",
"920 0 LINE",
"950 156 LINE",
"634 156 LINE",
"836 1193 LINE",
"1152 1193 LINE",
"1182 1349 LINE",
"359 1349 LINE"
);
}
);
userData = {
assembly = "NPUSHB[ ]\011/* 16 values pushed */
4 9 7 9 95 89 7 18 3 10 0 10 95 89 0 3 
SVTCA[0]\011/* SetFreedomAndProjectionVectorToAxis */
MIAP[1]\011/* MoveIndirectAbsPt */
CALL[ ]\011/* CallFunction */
SRP1[ ]\011/* SetRefPoint1 */
SVTCA[0]\011/* SetFreedomAndProjectionVectorToAxis */
SHP[1]\011/* ShiftPointByLastPoint */
RTG[ ]\011/* RoundToGrid */
MIAP[1]\011/* MoveIndirectAbsPt */
CALL[ ]\011/* CallFunction */
SRP1[ ]\011/* SetRefPoint1 */
SVTCA[0]\011/* SetFreedomAndProjectionVectorToAxis */
SHP[1]\011/* ShiftPointByLastPoint */
IUP[1]\011/* InterpolateUntPts */
IUP[0]\011/* InterpolateUntPts */";
};
width = 1229;
}
);
note = I;
unicode = 0049;
},
{
glyphname = J;
lastChange = "2019-12-17 15:39:55 +0000";
layers = (
{
layerId = "90A2DC70-B0EC-4941-B875-3E2B1B2F3578";
paths = (
{
closed = 1;
nodes = (
"669 -20 OFFCURVE",
"924 215 OFFCURVE",
"963 420 QCURVE SMOOTH",
"1143 1349 LINE",
"642 1349 LINE",
"612 1193 LINE",
"923 1193 LINE",
"772 416 LINE SMOOTH",
"717 135 OFFCURVE",
"508 135 QCURVE SMOOTH",
"424 135 OFFCURVE",
"332 250 OFFCURVE",
"332 362 QCURVE SMOOTH",
"332 381 LINE",
"139 350 LINE",
"139 341 LINE SMOOTH",
"139 154 OFFCURVE",
"308 -20 OFFCURVE",
"477 -20 QCURVE SMOOTH"
);
}
);
userData = {
assembly = "NPUSHB[ ]\011/* 19 values pushed */
15 12 95 89 15 3 0 9 95 89 64 5 80 5 2 5 5 0 19 
SVTCA[0]\011/* SetFreedomAndProjectionVectorToAxis */
MIAP[1]\011/* MoveIndirectAbsPt */
SHP[0]\011/* ShiftPointByLastPoint */
MDAP[1]\011/* MoveDirectAbsPt */
DELTAP1[ ]\011/* DeltaExceptionP1 */
CALL[ ]\011/* CallFunction */
SVTCA[0]\011/* SetFreedomAndProjectionVectorToAxis */
RTG[ ]\011/* RoundToGrid */
MIAP[1]\011/* MoveIndirectAbsPt */
CALL[ ]\011/* CallFunction */
IUP[1]\011/* InterpolateUntPts */
IUP[0]\011/* InterpolateUntPts */";
};
width = 1229;
}
);
note = J;
unicode = 004A;
},
{
glyphname = K;
lastChange = "2019-12-17 15:39:55 +0000";
layers = (
{
layerId = "90A2DC70-B0EC-4941-B875-3E2B1B2F3578";
paths = (
{
closed = 1;
nodes = (
"1122 0 LINE",
"692 777 LINE",
"1307 1349 LINE",
"1082 1349 LINE",
"379 676 LINE",
"510 1349 LINE",
"319 1349 LINE",
"57 0 LINE",
"248 0 LINE",
"339 469 LINE",
"539 641 LINE",
"898 0 LINE"
);
}
);
userData = {
assembly = "NPUSHB[ ]\011/* 23 values pushed */
55 7 71 7 2 56 1 72 1 104 1 3 2 1 7 10 4 9 5 3 3 0 18 
SVTCA[0]\011/* SetFreedomAndProjectionVectorToAxis */
MIAP[1]\011/* MoveIndirectAbsPt */
SHP[0]\011/* ShiftPointByLastPoint */
MIAP[1]\011/* MoveIndirectAbsPt */
SHP[1]\011/* ShiftPointByLastPoint */
SLOOP[ ]\011/* SetLoopVariable */
IP[ ]\011/* InterpolatePts */
DELTAP1[ ]\011/* DeltaExceptionP1 */
DELTAP1[ ]\011/* DeltaExceptionP1 */
IUP[1]\011/* InterpolateUntPts */
IUP[0]\011/* InterpolateUntPts */";
};
width = 1229;
}
);
note = K;
unicode = 004B;
},
{
glyphname = L;
lastChange = "2019-12-17 15:39:55 +0000";
layers = (
{
layerId = "90A2DC70-B0EC-4941-B875-3E2B1B2F3578";
paths = (
{
closed = 1;
nodes = (
"995 0 LINE",
"1025 156 LINE",
"353 156 LINE",
"585 1349 LINE",
"394 1349 LINE",
"132 0 LINE"
);
}
);
userData = {
assembly = "PUSHB[ ]\011/* 8 values pushed */
1 3 0 3 95 89 0 18 
SVTCA[0]\011/* SetFreedomAndProjectionVectorToAxis */
MIAP[1]\011/* MoveIndirectAbsPt */
CALL[ ]\011/* CallFunction */
SVTCA[0]\011/* SetFreedomAndProjectionVectorToAxis */
RTG[ ]\011/* RoundToGrid */
MIAP[1]\011/* MoveIndirectAbsPt */
IUP[1]\011/* InterpolateUntPts */
IUP[0]\011/* InterpolateUntPts */";
};
width = 1229;
}
);
note = L;
unicode = 004C;
},
{
glyphname = M;
lastChange = "2019-12-17 15:39:55 +0000";
layers = (
{
layerId = "90A2DC70-B0EC-4941-B875-3E2B1B2F3578";
paths = (
{
closed = 1;
nodes = (
"994 0 LINE",
"1256 1349 LINE",
"1031 1349 LINE",
"751 859 LINE",
"679 719 LINE",
"636 629 LINE",
"625 803 OFFCURVE",
"613 860 QCURVE SMOOTH",
"523 1349 LINE",
"286 1349 LINE",
"24 0 LINE",
"184 0 LINE",
"353 868 LINE",
"407 1169 LINE",
"432 951 OFFCURVE",
"447 878 QCURVE SMOOTH",
"528 440 LINE",
"665 440 LINE",
"914 878 LINE",
"1010 1061 LINE",
"1065 1169 LINE",
"1026 994 OFFCURVE",
"1001 868 QCURVE SMOOTH",
"832 0 LINE"
);
}
);
userData = {
assembly = "NPUSHB[ ]\011/* 13 values pushed */
3 10 10 14 18 7 7 21 14 3 12 0 18 
SVTCA[0]\011/* SetFreedomAndProjectionVectorToAxis */
MIAP[1]\011/* MoveIndirectAbsPt */
SHP[0]\011/* ShiftPointByLastPoint */
MIAP[1]\011/* MoveIndirectAbsPt */
SHP[1]\011/* ShiftPointByLastPoint */
IP[ ]\011/* InterpolatePts */
MDAP[1]\011/* MoveDirectAbsPt */
SHP[1]\011/* ShiftPointByLastPoint */
SRP1[ ]\011/* SetRefPoint1 */
SHP[1]\011/* ShiftPointByLastPoint */
SRP1[ ]\011/* SetRefPoint1 */
SHP[1]\011/* ShiftPointByLastPoint */
IUP[1]\011/* InterpolateUntPts */
IUP[0]\011/* InterpolateUntPts */";
};
width = 1229;
}
);
note = M;
unicode = 004D;
},
{
glyphname = N;
lastChange = "2019-12-17 15:39:55 +0000";
layers = (
{
layerId = "90A2DC70-B0EC-4941-B875-3E2B1B2F3578";
paths = (
{
closed = 1;
nodes = (
"961 0 LINE",
"1223 1349 LINE",
"1051 1349 LINE",
"883 485 LINE SMOOTH",
"860 366 OFFCURVE",
"848 211 QCURVE",
"541 1349 LINE",
"319 1349 LINE",
"57 0 LINE",
"227 0 LINE",
"397 876 LINE SMOOTH",
"416 969 OFFCURVE",
"431 1130 QCURVE",
"731 0 LINE"
);
}
);
userData = {
assembly = "NPUSHB[ ]\011/* 18 values pushed */
11 123 1 139 1 2 1 6 3 116 8 132 8 2 8 0 5 18 
SVTCA[0]\011/* SetFreedomAndProjectionVectorToAxis */
MIAP[1]\011/* MoveIndirectAbsPt */
SHP[1]\011/* ShiftPointByLastPoint */
SHP[1]\011/* ShiftPointByLastPoint */
DELTAP1[ ]\011/* DeltaExceptionP1 */
MIAP[1]\011/* MoveIndirectAbsPt */
SHP[1]\011/* ShiftPointByLastPoint */
DELTAP1[ ]\011/* DeltaExceptionP1 */
SHP[1]\011/* ShiftPointByLastPoint */
IUP[1]\011/* InterpolateUntPts */
IUP[0]\011/* InterpolateUntPts */";
};
width = 1229;
}
);
note = N;
unicode = 004E;
},
{
glyphname = O;
lastChange = "2019-12-17 15:39:55 +0000";
layers = (
{
layerId = "90A2DC70-B0EC-4941-B875-3E2B1B2F3578";
paths = (
{
closed = 1;
nodes = (
"654 -20 OFFCURVE",
"902 118 OFFCURVE",
"1082 391 OFFCURVE",
"1180 773 OFFCURVE",
"1180 928 QCURVE SMOOTH",
"1180 1149 OFFCURVE",
"974 1370 OFFCURVE",
"776 1370 QCURVE SMOOTH",
"620 1370 OFFCURVE",
"376 1237 OFFCURVE",
"201 972 OFFCURVE",
"102 590 OFFCURVE",
"102 430 QCURVE SMOOTH",
"102 213 OFFCURVE",
"302 -20 OFFCURVE",
"504 -20 QCURVE SMOOTH"
);
},
{
closed = 1;
nodes = (
"978 794 OFFCURVE",
"904 463 OFFCURVE",
"787 239 OFFCURVE",
"635 135 OFFCURVE",
"535 135 QCURVE SMOOTH",
"304 135 OFFCURVE",
"304 446 QCURVE SMOOTH",
"304 611 OFFCURVE",
"419 1015 OFFCURVE",
"610 1214 OFFCURVE",
"746 1214 QCURVE SMOOTH",
"978 1214 OFFCURVE",
"978 913 QCURVE SMOOTH"
);
}
);
userData = {
assembly = "NPUSHB[ ]\011/* 12 values pushed */
8 18 95 89 8 4 0 24 95 89 0 19 
SVTCA[0]\011/* SetFreedomAndProjectionVectorToAxis */
MIAP[1]\011/* MoveIndirectAbsPt */
CALL[ ]\011/* CallFunction */
SVTCA[0]\011/* SetFreedomAndProjectionVectorToAxis */
RTG[ ]\011/* RoundToGrid */
MIAP[1]\011/* MoveIndirectAbsPt */
CALL[ ]\011/* CallFunction */
IUP[1]\011/* InterpolateUntPts */
IUP[0]\011/* InterpolateUntPts */";
};
width = 1229;
}
);
note = O;
unicode = 004F;
},
{
glyphname = P;
lastChange = "2019-12-17 15:39:55 +0000";
layers = (
{
layerId = "90A2DC70-B0EC-4941-B875-3E2B1B2F3578";
paths = (
{
closed = 1;
nodes = (
"793 514 OFFCURVE",
"1058 653 OFFCURVE",
"1207 899 OFFCURVE",
"1207 1035 QCURVE SMOOTH",
"1207 1186 OFFCURVE",
"987 1349 OFFCURVE",
"779 1349 QCURVE SMOOTH",
"319 1349 LINE",
"57 0 LINE",
"248 0 LINE",
"348 514 LINE",
"629 514 LINE SMOOTH"
);
},
{
closed = 1;
nodes = (
"1011 913 OFFCURVE",
"920 753 OFFCURVE",
"745 665 OFFCURVE",
"631 665 QCURVE SMOOTH",
"377 665 LINE",
"480 1196 LINE",
"726 1196 LINE SMOOTH",
"1011 1196 OFFCURVE",
"1011 1002 QCURVE SMOOTH"
);
}
);
userData = {
assembly = "NPUSHB[ ]\011/* 16 values pushed */
1 16 95 89 1 1 2 4 4 15 95 89 4 3 2 18 
SVTCA[0]\011/* SetFreedomAndProjectionVectorToAxis */
MIAP[1]\011/* MoveIndirectAbsPt */
MIAP[1]\011/* MoveIndirectAbsPt */
CALL[ ]\011/* CallFunction */
SRP1[ ]\011/* SetRefPoint1 */
SRP2[ ]\011/* SetRefPoint2 */
SVTCA[0]\011/* SetFreedomAndProjectionVectorToAxis */
IP[ ]\011/* InterpolatePts */
RTG[ ]\011/* RoundToGrid */
MDAP[1]\011/* MoveDirectAbsPt */
CALL[ ]\011/* CallFunction */
IUP[1]\011/* InterpolateUntPts */
IUP[0]\011/* InterpolateUntPts */";
};
width = 1229;
}
);
note = P;
unicode = 0050;
},
{
glyphname = Q;
lastChange = "2019-12-17 15:39:55 +0000";
layers = (
{
layerId = "90A2DC70-B0EC-4941-B875-3E2B1B2F3578";
paths = (
{
closed = 1;
nodes = (
"762 24 OFFCURVE",
"960 188 OFFCURVE",
"1102 452 OFFCURVE",
"1180 795 OFFCURVE",
"1180 928 QCURVE SMOOTH",
"1180 1149 OFFCURVE",
"974 1370 OFFCURVE",
"776 1370 QCURVE SMOOTH",
"620 1370 OFFCURVE",
"376 1237 OFFCURVE",
"201 972 OFFCURVE",
"102 590 OFFCURVE",
"102 430 QCURVE SMOOTH",
"102 231 OFFCURVE",
"272 1 OFFCURVE",
"443 -16 QCURVE",
"466 -215 OFFCURVE",
"628 -387 OFFCURVE",
"779 -387 QCURVE SMOOTH",
"863 -387 OFFCURVE",
"961 -365 QCURVE",
"987 -231 LINE",
"925 -244 OFFCURVE",
"870 -244 QCURVE SMOOTH",
"769 -244 OFFCURVE",
"657 -130 OFFCURVE",
"640 -4 QCURVE"
);
},
{
closed = 1;
nodes = (
"978 794 OFFCURVE",
"904 463 OFFCURVE",
"787 239 OFFCURVE",
"635 135 OFFCURVE",
"535 135 QCURVE SMOOTH",
"304 135 OFFCURVE",
"304 446 QCURVE SMOOTH",
"304 611 OFFCURVE",
"419 1015 OFFCURVE",
"610 1214 OFFCURVE",
"746 1214 QCURVE SMOOTH",
"978 1214 OFFCURVE",
"978 913 QCURVE SMOOTH"
);
}
);
userData = {
assembly = "NPUSHB[ ]\011/* 21 values pushed */
19 29 95 89 19 4 11 35 95 89 0 11 19 8 3 96 89 95 8 1 8 
SVTCA[0]\011/* SetFreedomAndProjectionVectorToAxis */
MDAP[1]\011/* MoveDirectAbsPt */
DELTAP1[ ]\011/* DeltaExceptionP1 */
CALL[ ]\011/* CallFunction */
SVTCA[0]\011/* SetFreedomAndProjectionVectorToAxis */
RTG[ ]\011/* RoundToGrid */
MIAP[1]\011/* MoveIndirectAbsPt */
SHP[1]\011/* ShiftPointByLastPoint */
CALL[ ]\011/* CallFunction */
SVTCA[0]\011/* SetFreedomAndProjectionVectorToAxis */
RTG[ ]\011/* RoundToGrid */
MIAP[1]\011/* MoveIndirectAbsPt */
CALL[ ]\011/* CallFunction */
IUP[1]\011/* InterpolateUntPts */
IUP[0]\011/* InterpolateUntPts */";
};
width = 1229;
}
);
note = Q;
unicode = 0051;
},
{
glyphname = R;
lastChange = "2019-12-17 15:39:55 +0000";
layers = (
{
layerId = "90A2DC70-B0EC-4941-B875-3E2B1B2F3578";
paths = (
{
closed = 1;
nodes = (
"1072 0 LINE",
"788 597 LINE",
"914 617 OFFCURVE",
"1112 754 OFFCURVE",
"1215 956 OFFCURVE",
"1215 1060 QCURVE SMOOTH",
"1215 1197 OFFCURVE",
"1010 1349 OFFCURVE",
"801 1349 QCURVE SMOOTH",
"319 1349 LINE",
"57 0 LINE",
"248 0 LINE",
"360 575 LINE",
"598 575 LINE",
"852 0 LINE"
);
},
{
closed = 1;
nodes = (
"1018 950 OFFCURVE",
"940 805 OFFCURVE",
"780 726 OFFCURVE",
"669 726 QCURVE SMOOTH",
"389 726 LINE",
"480 1196 LINE",
"752 1196 LINE SMOOTH",
"1018 1196 OFFCURVE",
"1018 1026 QCURVE SMOOTH"
);
}
);
userData = {
assembly = "NPUSHB[ ]\011/* 19 values pushed */
13 2 19 2 95 89 19 19 0 5 5 18 95 89 5 3 3 0 18 
SVTCA[0]\011/* SetFreedomAndProjectionVectorToAxis */
MIAP[1]\011/* MoveIndirectAbsPt */
SHP[0]\011/* ShiftPointByLastPoint */
MIAP[1]\011/* MoveIndirectAbsPt */
CALL[ ]\011/* CallFunction */
SRP1[ ]\011/* SetRefPoint1 */
SRP2[ ]\011/* SetRefPoint2 */
SVTCA[0]\011/* SetFreedomAndProjectionVectorToAxis */
IP[ ]\011/* InterpolatePts */
RTG[ ]\011/* RoundToGrid */
MDAP[1]\011/* MoveDirectAbsPt */
CALL[ ]\011/* CallFunction */
SRP1[ ]\011/* SetRefPoint1 */
SVTCA[0]\011/* SetFreedomAndProjectionVectorToAxis */
SHP[1]\011/* ShiftPointByLastPoint */
IUP[1]\011/* InterpolateUntPts */
IUP[0]\011/* InterpolateUntPts */";
};
width = 1229;
}
);
note = R;
unicode = 0052;
},
{
glyphname = S;
lastChange = "2019-12-17 15:39:55 +0000";
layers = (
{
layerId = "90A2DC70-B0EC-4941-B875-3E2B1B2F3578";
paths = (
{
closed = 1;
nodes = (
"645 -20 OFFCURVE",
"867 49 OFFCURVE",
"1022 176 OFFCURVE",
"1104 359 OFFCURVE",
"1104 455 QCURVE SMOOTH",
"1104 542 OFFCURVE",
"1026 655 OFFCURVE",
"889 731 OFFCURVE",
"711 779 QCURVE SMOOTH",
"652 795 OFFCURVE",
"546 824 OFFCURVE",
"466 865 OFFCURVE",
"419 925 OFFCURVE",
"419 972 QCURVE",
"423 1013 LINE",
"466 1226 OFFCURVE",
"747 1226 QCURVE SMOOTH",
"875 1226 OFFCURVE",
"997 1124 OFFCURVE",
"999 1013 QCURVE",
"1193 1046 LINE",
"1184 1220 OFFCURVE",
"990 1370 OFFCURVE",
"776 1370 QCURVE SMOOTH",
"649 1370 OFFCURVE",
"443 1309 OFFCURVE",
"300 1187 OFFCURVE",
"228 1018 OFFCURVE",
"228 932 QCURVE SMOOTH",
"228 877 OFFCURVE",
"263 793 OFFCURVE",
"330 727 OFFCURVE",
"440 673 OFFCURVE",
"585 633 QCURVE SMOOTH",
"741 593 OFFCURVE",
"849 542 OFFCURVE",
"910 468 OFFCURVE",
"910 412 QCURVE",
"905 367 LINE",
"883 252 OFFCURVE",
"694 129 OFFCURVE",
"535 129 QCURVE SMOOTH",
"386 129 OFFCURVE",
"234 248 OFFCURVE",
"232 375 QCURVE",
"40 338 LINE",
"44 -20 OFFCURVE",
"501 -20 QCURVE SMOOTH"
);
}
);
userData = {
assembly = "NPUSHB[ ]\011/* 18 values pushed */
10 34 0 24 24 31 96 89 28 24 4 0 6 95 89 3 0 19 
SVTCA[0]\011/* SetFreedomAndProjectionVectorToAxis */
MIAP[1]\011/* MoveIndirectAbsPt */
MDRP[00100]\011/* MoveDirectRelPt */
CALL[ ]\011/* CallFunction */
SVTCA[0]\011/* SetFreedomAndProjectionVectorToAxis */
RTG[ ]\011/* RoundToGrid */
MIAP[1]\011/* MoveIndirectAbsPt */
MDRP[00100]\011/* MoveDirectRelPt */
CALL[ ]\011/* CallFunction */
SRP1[ ]\011/* SetRefPoint1 */
SRP2[ ]\011/* SetRefPoint2 */
SVTCA[0]\011/* SetFreedomAndProjectionVectorToAxis */
IP[ ]\011/* InterpolatePts */
IP[ ]\011/* InterpolatePts */
IUP[1]\011/* InterpolateUntPts */
IUP[0]\011/* InterpolateUntPts */";
};
width = 1229;
}
);
note = S;
unicode = 0053;
},
{
glyphname = T;
lastChange = "2019-12-17 15:39:55 +0000";
layers = (
{
layerId = "90A2DC70-B0EC-4941-B875-3E2B1B2F3578";
paths = (
{
closed = 1;
nodes = (
"1279 1193 LINE",
"1309 1349 LINE",
"233 1349 LINE",
"203 1193 LINE",
"646 1193 LINE",
"414 0 LINE",
"604 0 LINE",
"836 1193 LINE"
);
}
);
userData = {
assembly = "NPUSHB[ ]\011/* 10 values pushed */
0 3 5 3 95 89 5 3 2 18 
SVTCA[0]\011/* SetFreedomAndProjectionVectorToAxis */
MIAP[1]\011/* MoveIndirectAbsPt */
MIAP[1]\011/* MoveIndirectAbsPt */
CALL[ ]\011/* CallFunction */
SRP1[ ]\011/* SetRefPoint1 */
SVTCA[0]\011/* SetFreedomAndProjectionVectorToAxis */
SHP[1]\011/* ShiftPointByLastPoint */
IUP[1]\011/* InterpolateUntPts */
IUP[0]\011/* InterpolateUntPts */";
};
width = 1229;
}
);
note = T;
unicode = 0054;
},
{
glyphname = U;
lastChange = "2019-12-17 15:39:55 +0000";
layers = (
{
layerId = "90A2DC70-B0EC-4941-B875-3E2B1B2F3578";
paths = (
{
closed = 1;
nodes = (
"749 -20 OFFCURVE",
"1023 224 OFFCURVE",
"1075 490 QCURVE SMOOTH",
"1242 1349 LINE",
"1052 1349 LINE",
"889 511 LINE SMOOTH",
"847 299 OFFCURVE",
"686 135 OFFCURVE",
"525 135 QCURVE SMOOTH",
"406 135 OFFCURVE",
"305 226 OFFCURVE",
"305 328 QCURVE SMOOTH",
"305 396 OFFCURVE",
"325 498 QCURVE SMOOTH",
"490 1349 LINE",
"299 1349 LINE",
"129 472 LINE SMOOTH",
"110 378 OFFCURVE",
"110 301 QCURVE SMOOTH",
"110 135 OFFCURVE",
"295 -20 OFFCURVE",
"496 -20 QCURVE SMOOTH"
);
}
);
userData = {
assembly = "NPUSHB[ ]\011/* 9 values pushed */
17 6 3 0 13 95 89 0 19 
SVTCA[0]\011/* SetFreedomAndProjectionVectorToAxis */
MIAP[1]\011/* MoveIndirectAbsPt */
CALL[ ]\011/* CallFunction */
SVTCA[0]\011/* SetFreedomAndProjectionVectorToAxis */
RTG[ ]\011/* RoundToGrid */
MIAP[1]\011/* MoveIndirectAbsPt */
SHP[1]\011/* ShiftPointByLastPoint */
IUP[1]\011/* InterpolateUntPts */
IUP[0]\011/* InterpolateUntPts */";
};
width = 1229;
}
);
note = U;
unicode = 0055;
},
{
glyphname = V;
lastChange = "2019-12-17 15:39:55 +0000";
layers = (
{
layerId = "90A2DC70-B0EC-4941-B875-3E2B1B2F3578";
paths = (
{
closed = 1;
nodes = (
"1375 1349 LINE",
"1174 1349 LINE",
"681 447 LINE",
"587 261 LINE",
"543 168 LINE",
"527 358 OFFCURVE",
"513 447 QCURVE SMOOTH",
"368 1349 LINE",
"167 1349 LINE",
"410 0 LINE",
"608 0 LINE"
);
}
);
userData = {
assembly = "PUSHB[ ]\011/* 6 values pushed */
9 2 3 6 1 18 
SVTCA[0]\011/* SetFreedomAndProjectionVectorToAxis */
MIAP[1]\011/* MoveIndirectAbsPt */
SHP[1]\011/* ShiftPointByLastPoint */
MIAP[1]\011/* MoveIndirectAbsPt */
SHP[1]\011/* ShiftPointByLastPoint */
IUP[1]\011/* InterpolateUntPts */
IUP[0]\011/* InterpolateUntPts */";
};
width = 1229;
}
);
note = V;
unicode = 0056;
},
{
glyphname = W;
lastChange = "2019-12-17 15:39:55 +0000";
layers = (
{
layerId = "90A2DC70-B0EC-4941-B875-3E2B1B2F3578";
paths = (
{
closed = 1;
nodes = (
"1385 1349 LINE",
"1196 1349 LINE",
"930 514 LINE",
"828 168 LINE",
"824 357 OFFCURVE",
"801 654 OFFCURVE",
"779 931 QCURVE",
"604 931 LINE",
"442 587 OFFCURVE",
"341 363 OFFCURVE",
"259 168 QCURVE",
"280 349 OFFCURVE",
"293 514 QCURVE SMOOTH",
"346 1349 LINE",
"157 1349 LINE",
"106 0 LINE",
"314 0 LINE",
"526 453 OFFCURVE",
"625 676 OFFCURVE",
"658 756 QCURVE",
"668 491 OFFCURVE",
"673 432 QCURVE SMOOTH",
"705 0 LINE",
"913 0 LINE"
);
}
);
userData = {
assembly = "NPUSHB[ ]\011/* 13 values pushed */
4 16 16 13 22 9 3 20 13 13 1 8 18 
SVTCA[0]\011/* SetFreedomAndProjectionVectorToAxis */
MIAP[1]\011/* MoveIndirectAbsPt */
SHP[1]\011/* ShiftPointByLastPoint */
SHP[1]\011/* ShiftPointByLastPoint */
SRP1[ ]\011/* SetRefPoint1 */
SHP[1]\011/* ShiftPointByLastPoint */
MIAP[1]\011/* MoveIndirectAbsPt */
SHP[1]\011/* ShiftPointByLastPoint */
SRP2[ ]\011/* SetRefPoint2 */
IP[ ]\011/* InterpolatePts */
MDAP[1]\011/* MoveDirectAbsPt */
SHP[1]\011/* ShiftPointByLastPoint */
IUP[1]\011/* InterpolateUntPts */
IUP[0]\011/* InterpolateUntPts */";
};
width = 1229;
}
);
note = W;
unicode = 0057;
},
{
glyphname = X;
lastChange = "2019-12-17 15:39:55 +0000";
layers = (
{
layerId = "90A2DC70-B0EC-4941-B875-3E2B1B2F3578";
paths = (
{
closed = 1;
nodes = (
"439 1349 LINE",
"234 1349 LINE",
"544 705 LINE",
"-69 0 LINE",
"136 0 LINE",
"620 573 LINE",
"883 0 LINE",
"1088 0 LINE",
"749 705 LINE",
"1309 1349 LINE",
"1104 1349 LINE",
"672 836 LINE"
);
}
);
userData = {
assembly = "PUSHB[ ]\011/* 4 values pushed */
4 18 1 3 
SVTCA[0]\011/* SetFreedomAndProjectionVectorToAxis */
MIAP[1]\011/* MoveIndirectAbsPt */
MIAP[1]\011/* MoveIndirectAbsPt */
IUP[1]\011/* InterpolateUntPts */
IUP[0]\011/* InterpolateUntPts */";
};
width = 1229;
}
);
note = X;
unicode = 0058;
},
{
glyphname = Y;
lastChange = "2019-12-17 15:39:55 +0000";
layers = (
{
layerId = "90A2DC70-B0EC-4941-B875-3E2B1B2F3578";
paths = (
{
closed = 1;
nodes = (
"717 584 LINE",
"1349 1349 LINE",
"1144 1349 LINE",
"653 738 LINE",
"398 1349 LINE",
"193 1349 LINE",
"529 584 LINE",
"415 0 LINE",
"603 0 LINE"
);
}
);
userData = {
assembly = "PUSHB[ ]\011/* 4 values pushed */
3 3 0 18 
SVTCA[0]\011/* SetFreedomAndProjectionVectorToAxis */
MIAP[1]\011/* MoveIndirectAbsPt */
MIAP[1]\011/* MoveIndirectAbsPt */
IUP[1]\011/* InterpolateUntPts */
IUP[0]\011/* InterpolateUntPts */";
};
width = 1229;
}
);
note = Y;
unicode = 0059;
},
{
glyphname = Z;
lastChange = "2019-12-17 15:39:55 +0000";
layers = (
{
layerId = "90A2DC70-B0EC-4941-B875-3E2B1B2F3578";
paths = (
{
closed = 1;
nodes = (
"1080 156 LINE",
"215 156 LINE",
"1238 1210 LINE",
"1265 1349 LINE",
"303 1349 LINE",
"273 1193 LINE",
"1018 1193 LINE",
"-4 143 LINE",
"-32 0 LINE",
"1050 0 LINE"
);
}
);
userData = {
assembly = "NPUSHB[ ]\011/* 16 values pushed */
7 3 6 3 95 89 6 3 2 8 1 8 95 89 1 18 
SVTCA[0]\011/* SetFreedomAndProjectionVectorToAxis */
MIAP[1]\011/* MoveIndirectAbsPt */
CALL[ ]\011/* CallFunction */
SRP1[ ]\011/* SetRefPoint1 */
SVTCA[0]\011/* SetFreedomAndProjectionVectorToAxis */
SHP[1]\011/* ShiftPointByLastPoint */
RTG[ ]\011/* RoundToGrid */
MIAP[1]\011/* MoveIndirectAbsPt */
CALL[ ]\011/* CallFunction */
SRP1[ ]\011/* SetRefPoint1 */
SVTCA[0]\011/* SetFreedomAndProjectionVectorToAxis */
SHP[1]\011/* ShiftPointByLastPoint */
IUP[1]\011/* InterpolateUntPts */
IUP[0]\011/* InterpolateUntPts */";
};
width = 1229;
}
);
note = Z;
unicode = 005A;
},
{
glyphname = bracketleft;
lastChange = "2019-12-17 15:39:55 +0000";
layers = (
{
layerId = "90A2DC70-B0EC-4941-B875-3E2B1B2F3578";
paths = (
{
closed = 1;
nodes = (
"769 -425 LINE",
"796 -286 LINE",
"429 -286 LINE",
"746 1345 LINE",
"1113 1345 LINE",
"1140 1484 LINE",
"593 1484 LINE",
"222 -425 LINE"
);
}
);
userData = {
assembly = "NPUSHB[ ]\011/* 12 values pushed */
1 4 245 89 1 0 0 5 245 89 0 27 
SVTCA[0]\011/* SetFreedomAndProjectionVectorToAxis */
MIAP[1]\011/* MoveIndirectAbsPt */
CALL[ ]\011/* CallFunction */
SVTCA[0]\011/* SetFreedomAndProjectionVectorToAxis */
RTG[ ]\011/* RoundToGrid */
MIAP[1]\011/* MoveIndirectAbsPt */
CALL[ ]\011/* CallFunction */
IUP[1]\011/* InterpolateUntPts */
IUP[0]\011/* InterpolateUntPts */";
};
width = 1229;
}
);
note = bracketleft;
unicode = 005B;
},
{
glyphname = backslash;
lastChange = "2019-12-17 15:39:55 +0000";
layers = (
{
layerId = "90A2DC70-B0EC-4941-B875-3E2B1B2F3578";
paths = (
{
closed = 1;
nodes = (
"1005 -20 LINE",
"476 1484 LINE",
"298 1484 LINE",
"823 -20 LINE"
);
}
);
userData = {
assembly = "PUSHB[ ]\011/* 4 values pushed */
2 0 0 22 
SVTCA[0]\011/* SetFreedomAndProjectionVectorToAxis */
MIAP[1]\011/* MoveIndirectAbsPt */
MIAP[1]\011/* MoveIndirectAbsPt */
IUP[1]\011/* InterpolateUntPts */
IUP[0]\011/* InterpolateUntPts */";
};
width = 1229;
}
);
note = backslash;
unicode = 005C;
},
{
glyphname = bracketright;
lastChange = "2019-12-17 15:39:55 +0000";
layers = (
{
layerId = "90A2DC70-B0EC-4941-B875-3E2B1B2F3578";
paths = (
{
closed = 1;
nodes = (
"629 -425 LINE",
"1000 1484 LINE",
"453 1484 LINE",
"426 1345 LINE",
"793 1345 LINE",
"476 -286 LINE",
"109 -286 LINE",
"82 -425 LINE"
);
}
);
userData = {
assembly = "NPUSHB[ ]\011/* 12 values pushed */
7 2 245 89 7 27 6 3 245 89 6 0 
SVTCA[0]\011/* SetFreedomAndProjectionVectorToAxis */
MIAP[1]\011/* MoveIndirectAbsPt */
CALL[ ]\011/* CallFunction */
SVTCA[0]\011/* SetFreedomAndProjectionVectorToAxis */
RTG[ ]\011/* RoundToGrid */
MIAP[1]\011/* MoveIndirectAbsPt */
CALL[ ]\011/* CallFunction */
IUP[1]\011/* InterpolateUntPts */
IUP[0]\011/* InterpolateUntPts */";
};
width = 1229;
}
);
note = bracketright;
unicode = 005D;
},
{
glyphname = asciicircum;
lastChange = "2019-12-17 15:39:55 +0000";
layers = (
{
layerId = "90A2DC70-B0EC-4941-B875-3E2B1B2F3578";
paths = (
{
closed = 1;
nodes = (
"1075 442 LINE",
"871 1349 LINE",
"668 1349 LINE",
"114 442 LINE",
"266 442 LINE",
"748 1245 LINE",
"921 442 LINE"
);
}
);
userData = {
assembly = "PUSHB[ ]\011/* 6 values pushed */
3 0 0 1 4 6 
SVTCA[0]\011/* SetFreedomAndProjectionVectorToAxis */
MIAP[1]\011/* MoveIndirectAbsPt */
SHP[1]\011/* ShiftPointByLastPoint */
SHP[1]\011/* ShiftPointByLastPoint */
MDAP[1]\011/* MoveDirectAbsPt */
SHP[0]\011/* ShiftPointByLastPoint */
IUP[1]\011/* InterpolateUntPts */
IUP[0]\011/* InterpolateUntPts */";
};
width = 1229;
}
);
note = asciicircum;
unicode = 005E;
},
{
glyphname = underscore;
lastChange = "2019-12-17 15:39:55 +0000";
layers = (
{
layerId = "90A2DC70-B0EC-4941-B875-3E2B1B2F3578";
paths = (
{
closed = 1;
nodes = (
"1085 -220 LINE",
"1104 -124 LINE",
"-134 -124 LINE",
"-153 -220 LINE"
);
}
);
userData = {
assembly = "PUSHB[ ]\011/* 5 values pushed */
1 0 187 89 1 
SVTCA[0]\011/* SetFreedomAndProjectionVectorToAxis */
MDAP[1]\011/* MoveDirectAbsPt */
CALL[ ]\011/* CallFunction */
IUP[1]\011/* InterpolateUntPts */
IUP[0]\011/* InterpolateUntPts */";
};
width = 1229;
}
);
note = underscore;
unicode = 005F;
},
{
glyphname = grave;
lastChange = "2019-12-17 15:39:55 +0000";
layers = (
{
layerId = "90A2DC70-B0EC-4941-B875-3E2B1B2F3578";
paths = (
{
closed = 1;
nodes = (
"954 1201 LINE",
"958 1221 LINE",
"778 1460 LINE",
"581 1460 LINE",
"575 1431 LINE",
"830 1201 LINE"
);
}
);
userData = {
assembly = "PUSHB[ ]\011/* 6 values pushed */
0 3 140 91 0 147 
SVTCA[0]\011/* SetFreedomAndProjectionVectorToAxis */
MIAP[1]\011/* MoveIndirectAbsPt */
CALL[ ]\011/* CallFunction */
IUP[1]\011/* InterpolateUntPts */
IUP[0]\011/* InterpolateUntPts */";
};
width = 1229;
}
);
note = grave;
unicode = 0060;
},
{
glyphname = a;
lastChange = "2019-12-17 15:39:55 +0000";
layers = (
{
layerId = "90A2DC70-B0EC-4941-B875-3E2B1B2F3578";
paths = (
{
closed = 1;
nodes = (
"975 111 OFFCURVE",
"939 154 OFFCURVE",
"939 196 QCURVE SMOOTH",
"939 229 OFFCURVE",
"948 272 QCURVE SMOOTH",
"1038 738 LINE SMOOTH",
"1048 790 OFFCURVE",
"1048 835 QCURVE SMOOTH",
"1048 1102 OFFCURVE",
"708 1102 QCURVE SMOOTH",
"519 1102 OFFCURVE",
"282 959 OFFCURVE",
"228 810 QCURVE",
"413 793 LINE",
"444 886 OFFCURVE",
"563 965 OFFCURVE",
"679 965 QCURVE SMOOTH",
"771 965 OFFCURVE",
"863 893 OFFCURVE",
"863 808 QCURVE SMOOTH",
"863 784 OFFCURVE",
"858 741 OFFCURVE",
"841 660 QCURVE",
"605 656 LINE SMOOTH",
"150 651 OFFCURVE",
"82 302 QCURVE SMOOTH",
"73 254 OFFCURVE",
"73 213 QCURVE SMOOTH",
"73 104 OFFCURVE",
"204 -20 OFFCURVE",
"337 -20 QCURVE SMOOTH",
"465 -20 OFFCURVE",
"664 85 OFFCURVE",
"753 207 QCURVE",
"759 207 LINE",
"754 142 LINE",
"754 66 OFFCURVE",
"827 -10 OFFCURVE",
"914 -10 QCURVE SMOOTH",
"986 -10 OFFCURVE",
"1056 6 QCURVE",
"1078 118 LINE",
"1045 111 OFFCURVE",
"1018 111 QCURVE SMOOTH"
);
},
{
closed = 1;
nodes = (
"338 117 OFFCURVE",
"265 189 OFFCURVE",
"265 251 QCURVE SMOOTH",
"265 328 OFFCURVE",
"342 461 OFFCURVE",
"491 528 OFFCURVE",
"626 530 QCURVE SMOOTH",
"817 534 LINE",
"799 445 LINE SMOOTH",
"783 362 OFFCURVE",
"671 208 OFFCURVE",
"505 117 OFFCURVE",
"410 117 QCURVE SMOOTH"
);
}
);
userData = {
assembly = "NPUSHB[ ]\011/* 31 values pushed */
30 30 34 21 34 27 80 89 21 49 81 89 21 21 5 34 16 9 44 13 44 80 89 13 22 5 0 81 89 5 22 
SVTCA[0]\011/* SetFreedomAndProjectionVectorToAxis */
MIAP[1]\011/* MoveIndirectAbsPt */
CALL[ ]\011/* CallFunction */
SVTCA[0]\011/* SetFreedomAndProjectionVectorToAxis */
RTG[ ]\011/* RoundToGrid */
MIAP[1]\011/* MoveIndirectAbsPt */
CALL[ ]\011/* CallFunction */
SRP1[ ]\011/* SetRefPoint1 */
SVTCA[0]\011/* SetFreedomAndProjectionVectorToAxis */
SHP[1]\011/* ShiftPointByLastPoint */
RTG[ ]\011/* RoundToGrid */
MIAP[1]\011/* MoveIndirectAbsPt */
SRP2[ ]\011/* SetRefPoint2 */
IP[ ]\011/* InterpolatePts */
MDAP[1]\011/* MoveDirectAbsPt */
CALL[ ]\011/* CallFunction */
CALL[ ]\011/* CallFunction */
SRP1[ ]\011/* SetRefPoint1 */
SRP2[ ]\011/* SetRefPoint2 */
SVTCA[0]\011/* SetFreedomAndProjectionVectorToAxis */
IP[ ]\011/* InterpolatePts */
RTG[ ]\011/* RoundToGrid */
MDAP[1]\011/* MoveDirectAbsPt */
IUP[1]\011/* InterpolateUntPts */
IUP[0]\011/* InterpolateUntPts */";
};
width = 1229;
}
);
note = a;
unicode = 0061;
},
{
glyphname = b;
lastChange = "2019-12-17 15:39:55 +0000";
layers = (
{
layerId = "90A2DC70-B0EC-4941-B875-3E2B1B2F3578";
paths = (
{
closed = 1;
nodes = (
"778 -20 OFFCURVE",
"1036 262 OFFCURVE",
"1091 546 QCURVE SMOOTH",
"1115 668 OFFCURVE",
"1115 761 QCURVE SMOOTH",
"1115 1104 OFFCURVE",
"809 1104 QCURVE SMOOTH",
"566 1104 OFFCURVE",
"436 904 QCURVE",
"432 904 LINE",
"466 1061 LINE",
"548 1484 LINE",
"368 1484 LINE",
"123 223 LINE SMOOTH",
"108 149 OFFCURVE",
"79 15 OFFCURVE",
"74 0 QCURVE",
"248 0 LINE",
"251 7 OFFCURVE",
"281 120 OFFCURVE",
"289 164 QCURVE",
"291 164 LINE",
"345 -20 OFFCURVE",
"589 -20 QCURVE SMOOTH"
);
},
{
closed = 1;
nodes = (
"926 609 OFFCURVE",
"838 276 OFFCURVE",
"685 113 OFFCURVE",
"565 113 QCURVE SMOOTH",
"451 113 OFFCURVE",
"343 228 OFFCURVE",
"343 351 QCURVE SMOOTH",
"343 482 OFFCURVE",
"439 807 OFFCURVE",
"607 965 OFFCURVE",
"733 965 QCURVE SMOOTH",
"831 965 OFFCURVE",
"926 856 OFFCURVE",
"926 736 QCURVE SMOOTH"
);
}
);
userData = {
assembly = "NPUSHB[ ]\011/* 20 values pushed */
17 27 80 89 2 14 0 17 16 11 0 10 7 21 0 34 80 89 0 22 
SVTCA[0]\011/* SetFreedomAndProjectionVectorToAxis */
MIAP[1]\011/* MoveIndirectAbsPt */
CALL[ ]\011/* CallFunction */
SVTCA[0]\011/* SetFreedomAndProjectionVectorToAxis */
RTG[ ]\011/* RoundToGrid */
MIAP[1]\011/* MoveIndirectAbsPt */
MDAP[1]\011/* MoveDirectAbsPt */
MIAP[1]\011/* MoveIndirectAbsPt */
MIAP[1]\011/* MoveIndirectAbsPt */
SRP2[ ]\011/* SetRefPoint2 */
IP[ ]\011/* InterpolatePts */
IP[ ]\011/* InterpolatePts */
CALL[ ]\011/* CallFunction */
IUP[1]\011/* InterpolateUntPts */
IUP[0]\011/* InterpolateUntPts */";
};
width = 1229;
}
);
note = b;
unicode = 0062;
},
{
glyphname = c;
lastChange = "2019-12-17 15:39:55 +0000";
layers = (
{
layerId = "90A2DC70-B0EC-4941-B875-3E2B1B2F3578";
paths = (
{
closed = 1;
nodes = (
"593 1102 OFFCURVE",
"360 995 OFFCURVE",
"195 783 OFFCURVE",
"112 496 OFFCURVE",
"112 369 QCURVE SMOOTH",
"112 178 OFFCURVE",
"319 -20 OFFCURVE",
"522 -20 QCURVE SMOOTH",
"644 -20 OFFCURVE",
"857 69 OFFCURVE",
"1006 226 OFFCURVE",
"1038 322 QCURVE",
"850 334 LINE",
"812 225 OFFCURVE",
"649 119 OFFCURVE",
"541 119 QCURVE SMOOTH",
"421 119 OFFCURVE",
"301 241 OFFCURVE",
"301 372 QCURVE SMOOTH",
"301 510 OFFCURVE",
"398 820 OFFCURVE",
"572 961 OFFCURVE",
"706 961 QCURVE SMOOTH",
"824 961 OFFCURVE",
"930 857 OFFCURVE",
"930 771 QCURVE SMOOTH",
"930 765 LINE",
"1124 779 LINE",
"1124 929 OFFCURVE",
"922 1102 OFFCURVE",
"741 1102 QCURVE SMOOTH"
);
}
);
userData = {
assembly = "NPUSHB[ ]\011/* 18 values pushed */
0 18 16 18 96 18 112 18 128 18 192 18 208 18 7 9 3 18 
PUSHW[ ]\011/* 1 value pushed */
-64 
NPUSHB[ ]\011/* 23 values pushed */
27 30 72 18 18 23 23 15 80 89 23 22 0 8 80 89 223 4 1 4 4 0 16 
SVTCA[0]\011/* SetFreedomAndProjectionVectorToAxis */
MIAP[1]\011/* MoveIndirectAbsPt */
SHP[0]\011/* ShiftPointByLastPoint */
MDAP[1]\011/* MoveDirectAbsPt */
DELTAP1[ ]\011/* DeltaExceptionP1 */
CALL[ ]\011/* CallFunction */
SVTCA[0]\011/* SetFreedomAndProjectionVectorToAxis */
RTG[ ]\011/* RoundToGrid */
MIAP[1]\011/* MoveIndirectAbsPt */
CALL[ ]\011/* CallFunction */
SRP1[ ]\011/* SetRefPoint1 */
SVTCA[0]\011/* SetFreedomAndProjectionVectorToAxis */
SHP[1]\011/* ShiftPointByLastPoint */
RTG[ ]\011/* RoundToGrid */
MDAP[1]\011/* MoveDirectAbsPt */
CALL[ ]\011/* CallFunction */
SDS[ ]\011/* SetDeltaShiftInGState */
SDB[ ]\011/* SetDeltaBaseInGState */
DELTAP1[ ]\011/* DeltaExceptionP1 */
IUP[1]\011/* InterpolateUntPts */
IUP[0]\011/* InterpolateUntPts */";
};
width = 1229;
}
);
note = c;
unicode = 0063;
},
{
glyphname = d;
lastChange = "2019-12-17 15:39:55 +0000";
layers = (
{
layerId = "90A2DC70-B0EC-4941-B875-3E2B1B2F3578";
paths = (
{
closed = 1;
nodes = (
"796 174 LINE",
"772 47 OFFCURVE",
"772 4 QCURVE SMOOTH",
"772 0 LINE",
"944 0 LINE",
"949 44 OFFCURVE",
"981 223 QCURVE SMOOTH",
"1226 1484 LINE",
"1046 1484 LINE",
"959 1034 LINE",
"938 914 LINE",
"936 914 LINE",
"906 1012 OFFCURVE",
"759 1098 OFFCURVE",
"638 1098 QCURVE SMOOTH",
"247 1098 OFFCURVE",
"136 532 QCURVE SMOOTH",
"112 408 OFFCURVE",
"112 311 QCURVE SMOOTH",
"112 141 OFFCURVE",
"262 -26 OFFCURVE",
"420 -26 QCURVE SMOOTH",
"541 -26 OFFCURVE",
"722 69 OFFCURVE",
"791 174 QCURVE"
);
},
{
closed = 1;
nodes = (
"301 434 OFFCURVE",
"362 712 OFFCURVE",
"451 884 OFFCURVE",
"575 965 OFFCURVE",
"662 965 QCURVE SMOOTH",
"778 965 OFFCURVE",
"886 849 OFFCURVE",
"886 728 QCURVE SMOOTH",
"886 602 OFFCURVE",
"788 271 OFFCURVE",
"621 113 OFFCURVE",
"494 113 QCURVE SMOOTH",
"394 113 OFFCURVE",
"301 220 OFFCURVE",
"301 337 QCURVE SMOOTH"
);
}
);
userData = {
assembly = "NPUSHB[ ]\011/* 20 values pushed */
20 21 16 0 13 0 10 3 10 35 80 89 10 16 3 28 80 89 3 22 
SVTCA[0]\011/* SetFreedomAndProjectionVectorToAxis */
MIAP[1]\011/* MoveIndirectAbsPt */
CALL[ ]\011/* CallFunction */
SVTCA[0]\011/* SetFreedomAndProjectionVectorToAxis */
RTG[ ]\011/* RoundToGrid */
MIAP[1]\011/* MoveIndirectAbsPt */
CALL[ ]\011/* CallFunction */
SRP1[ ]\011/* SetRefPoint1 */
SRP2[ ]\011/* SetRefPoint2 */
SVTCA[0]\011/* SetFreedomAndProjectionVectorToAxis */
IP[ ]\011/* InterpolatePts */
IP[ ]\011/* InterpolatePts */
RTG[ ]\011/* RoundToGrid */
MIAP[1]\011/* MoveIndirectAbsPt */
MIAP[1]\011/* MoveIndirectAbsPt */
IUP[1]\011/* InterpolateUntPts */
IUP[0]\011/* InterpolateUntPts */";
};
width = 1229;
}
);
note = d;
unicode = 0064;
},
{
glyphname = e;
lastChange = "2019-12-17 15:39:55 +0000";
layers = (
{
layerId = "90A2DC70-B0EC-4941-B875-3E2B1B2F3578";
paths = (
{
closed = 1;
nodes = (
"1087 503 LINE",
"1091 527 LINE SMOOTH",
"1112 632 OFFCURVE",
"1112 723 QCURVE SMOOTH",
"1112 1102 OFFCURVE",
"726 1102 QCURVE SMOOTH",
"582 1102 OFFCURVE",
"356 994 OFFCURVE",
"196 783 OFFCURVE",
"116 494 OFFCURVE",
"116 370 QCURVE SMOOTH",
"116 181 OFFCURVE",
"320 -20 OFFCURVE",
"514 -20 QCURVE SMOOTH",
"678 -20 OFFCURVE",
"937 112 OFFCURVE",
"1006 236 QCURVE",
"857 281 LINE",
"815 203 OFFCURVE",
"642 115 OFFCURVE",
"540 115 QCURVE SMOOTH",
"427 115 OFFCURVE",
"302 253 OFFCURVE",
"302 382 QCURVE SMOOTH",
"302 434 OFFCURVE",
"315 503 QCURVE"
);
},
{
closed = 1;
nodes = (
"932 969 OFFCURVE",
"932 713 QCURVE",
"928 641 LINE",
"344 641 LINE",
"380 795 OFFCURVE",
"569 969 OFFCURVE",
"702 969 QCURVE SMOOTH"
);
}
);
userData = {
assembly = "NPUSHB[ ]\011/* 31 values pushed */
8 8 0 5 29 0 80 89 13 29 29 29 2 20 4 29 29 12 20 20 26 80 89 20 16 12 5 80 89 12 22 
SVTCA[0]\011/* SetFreedomAndProjectionVectorToAxis */
MIAP[1]\011/* MoveIndirectAbsPt */
CALL[ ]\011/* CallFunction */
SVTCA[0]\011/* SetFreedomAndProjectionVectorToAxis */
RTG[ ]\011/* RoundToGrid */
MIAP[1]\011/* MoveIndirectAbsPt */
CALL[ ]\011/* CallFunction */
SRP1[ ]\011/* SetRefPoint1 */
SRP2[ ]\011/* SetRefPoint2 */
SVTCA[0]\011/* SetFreedomAndProjectionVectorToAxis */
IP[ ]\011/* InterpolatePts */
RTG[ ]\011/* RoundToGrid */
MDAP[1]\011/* MoveDirectAbsPt */
SDS[ ]\011/* SetDeltaShiftInGState */
SDB[ ]\011/* SetDeltaBaseInGState */
DELTAP1[ ]\011/* DeltaExceptionP1 */
CALL[ ]\011/* CallFunction */
SRP1[ ]\011/* SetRefPoint1 */
SRP2[ ]\011/* SetRefPoint2 */
SVTCA[0]\011/* SetFreedomAndProjectionVectorToAxis */
IP[ ]\011/* InterpolatePts */
RTG[ ]\011/* RoundToGrid */
MDAP[1]\011/* MoveDirectAbsPt */
IUP[1]\011/* InterpolateUntPts */
IUP[0]\011/* InterpolateUntPts */";
};
width = 1229;
}
);
note = e;
unicode = 0065;
},
{
glyphname = f;
lastChange = "2019-12-17 15:39:55 +0000";
layers = (
{
layerId = "90A2DC70-B0EC-4941-B875-3E2B1B2F3578";
paths = (
{
closed = 1;
nodes = (
"1149 940 LINE",
"1176 1082 LINE",
"685 1082 LINE",
"705 1184 OFFCURVE",
"774 1289 OFFCURVE",
"888 1335 OFFCURVE",
"993 1335 QCURVE SMOOTH",
"1037 1335 OFFCURVE",
"1221 1323 OFFCURVE",
"1250 1318 QCURVE",
"1278 1463 LINE",
"1235 1471 OFFCURVE",
"1071 1484 OFFCURVE",
"1001 1484 QCURVE SMOOTH",
"775 1484 OFFCURVE",
"550 1311 OFFCURVE",
"510 1107 QCURVE SMOOTH",
"505 1082 LINE",
"243 1082 LINE",
"216 940 LINE",
"478 940 LINE",
"295 0 LINE",
"475 0 LINE",
"658 940 LINE"
);
}
);
userData = {
assembly = "NPUSHB[ ]\011/* 17 values pushed */
10 17 80 89 10 0 0 3 6 3 80 89 21 6 15 1 21 
SVTCA[0]\011/* SetFreedomAndProjectionVectorToAxis */
MIAP[1]\011/* MoveIndirectAbsPt */
MIAP[1]\011/* MoveIndirectAbsPt */
SHP[1]\011/* ShiftPointByLastPoint */
CALL[ ]\011/* CallFunction */
SRP1[ ]\011/* SetRefPoint1 */
SVTCA[0]\011/* SetFreedomAndProjectionVectorToAxis */
SHP[1]\011/* ShiftPointByLastPoint */
RTG[ ]\011/* RoundToGrid */
MIAP[1]\011/* MoveIndirectAbsPt */
CALL[ ]\011/* CallFunction */
IUP[1]\011/* InterpolateUntPts */
IUP[0]\011/* InterpolateUntPts */";
};
width = 1229;
}
);
note = f;
unicode = 0066;
},
{
glyphname = g;
lastChange = "2019-12-17 15:39:55 +0000";
layers = (
{
layerId = "90A2DC70-B0EC-4941-B875-3E2B1B2F3578";
paths = (
{
closed = 1;
nodes = (
"649 -424 OFFCURVE",
"905 -195 OFFCURVE",
"949 32 QCURVE SMOOTH",
"1110 858 LINE",
"1140 1000 LINE",
"1159 1082 LINE",
"988 1082 LINE",
"983 1073 OFFCURVE",
"947 934 OFFCURVE",
"940 897 QCURVE",
"937 897 LINE",
"911 994 OFFCURVE",
"765 1099 OFFCURVE",
"652 1099 QCURVE SMOOTH",
"523 1099 OFFCURVE",
"332 994 OFFCURVE",
"200 787 OFFCURVE",
"120 452 OFFCURVE",
"120 328 QCURVE SMOOTH",
"120 169 OFFCURVE",
"265 12 OFFCURVE",
"421 12 QCURVE SMOOTH",
"664 12 OFFCURVE",
"805 221 QCURVE",
"807 221 LINE",
"769 27 LINE SMOOTH",
"710 -288 OFFCURVE",
"460 -288 QCURVE SMOOTH",
"368 -288 OFFCURVE",
"270 -207 OFFCURVE",
"268 -132 QCURVE",
"79 -157 LINE",
"83 -286 OFFCURVE",
"259 -424 OFFCURVE",
"428 -424 QCURVE SMOOTH"
);
},
{
closed = 1;
nodes = (
"887 609 OFFCURVE",
"833 392 OFFCURVE",
"729 231 OFFCURVE",
"588 145 OFFCURVE",
"508 145 QCURVE SMOOTH",
"401 145 OFFCURVE",
"308 245 OFFCURVE",
"308 355 QCURVE SMOOTH",
"308 446 OFFCURVE",
"367 721 OFFCURVE",
"455 887 OFFCURVE",
"581 965 OFFCURVE",
"671 965 QCURVE SMOOTH",
"774 965 OFFCURVE",
"887 823 OFFCURVE",
"887 697 QCURVE SMOOTH"
);
}
);
userData = {
assembly = "NPUSHB[ ]\011/* 25 values pushed */
28 15 21 38 80 89 24 10 13 21 16 13 46 80 89 4 4 0 13 21 0 7 80 89 0 
SVTCA[0]\011/* SetFreedomAndProjectionVectorToAxis */
MDAP[1]\011/* MoveDirectAbsPt */
CALL[ ]\011/* CallFunction */
SVTCA[0]\011/* SetFreedomAndProjectionVectorToAxis */
RTG[ ]\011/* RoundToGrid */
MIAP[1]\011/* MoveIndirectAbsPt */
SRP2[ ]\011/* SetRefPoint2 */
IP[ ]\011/* InterpolatePts */
MDAP[1]\011/* MoveDirectAbsPt */
CALL[ ]\011/* CallFunction */
SVTCA[0]\011/* SetFreedomAndProjectionVectorToAxis */
RTG[ ]\011/* RoundToGrid */
MIAP[1]\011/* MoveIndirectAbsPt */
SRP2[ ]\011/* SetRefPoint2 */
IP[ ]\011/* InterpolatePts */
IP[ ]\011/* InterpolatePts */
CALL[ ]\011/* CallFunction */
SVTCA[0]\011/* SetFreedomAndProjectionVectorToAxis */
RTG[ ]\011/* RoundToGrid */
MIAP[1]\011/* MoveIndirectAbsPt */
IUP[1]\011/* InterpolateUntPts */
IUP[0]\011/* InterpolateUntPts */";
};
width = 1229;
}
);
note = g;
unicode = 0067;
},
{
glyphname = h;
lastChange = "2019-12-17 15:39:55 +0000";
layers = (
{
layerId = "90A2DC70-B0EC-4941-B875-3E2B1B2F3578";
paths = (
{
closed = 1;
nodes = (
"80 0 LINE",
"260 0 LINE",
"382 627 LINE SMOOTH",
"413 782 OFFCURVE",
"606 963 OFFCURVE",
"730 963 QCURVE SMOOTH",
"822 963 OFFCURVE",
"909 881 OFFCURVE",
"909 793 QCURVE SMOOTH",
"909 753 OFFCURVE",
"898 695 QCURVE SMOOTH",
"763 0 LINE",
"944 0 LINE",
"1084 721 LINE SMOOTH",
"1097 786 OFFCURVE",
"1097 843 QCURVE SMOOTH",
"1097 1102 OFFCURVE",
"808 1102 QCURVE SMOOTH",
"679 1102 OFFCURVE",
"496 992 OFFCURVE",
"429 897 QCURVE",
"426 897 LINE",
"463 1038 OFFCURVE",
"474 1094 QCURVE SMOOTH",
"549 1484 LINE",
"368 1484 LINE"
);
}
);
userData = {
assembly = "NPUSHB[ ]\011/* 13 values pushed */
4 8 24 13 21 8 20 80 89 8 16 0 0 
SVTCA[0]\011/* SetFreedomAndProjectionVectorToAxis */
MIAP[1]\011/* MoveIndirectAbsPt */
MIAP[1]\011/* MoveIndirectAbsPt */
CALL[ ]\011/* CallFunction */
SVTCA[0]\011/* SetFreedomAndProjectionVectorToAxis */
RTG[ ]\011/* RoundToGrid */
MIAP[1]\011/* MoveIndirectAbsPt */
SHP[1]\011/* ShiftPointByLastPoint */
SRP2[ ]\011/* SetRefPoint2 */
IP[ ]\011/* InterpolatePts */
IUP[1]\011/* InterpolateUntPts */
IUP[0]\011/* InterpolateUntPts */";
};
width = 1229;
}
);
note = h;
unicode = 0068;
},
{
glyphname = i;
lastChange = "2019-12-17 15:39:55 +0000";
layers = (
{
layerId = "90A2DC70-B0EC-4941-B875-3E2B1B2F3578";
paths = (
{
closed = 1;
nodes = (
"850 1082 LINE",
"351 1082 LINE",
"324 940 LINE",
"643 940 LINE",
"488 142 LINE",
"66 142 LINE",
"38 0 LINE",
"1020 0 LINE",
"1048 142 LINE",
"668 142 LINE"
);
},
{
closed = 1;
nodes = (
"891 1292 LINE",
"928 1484 LINE",
"728 1484 LINE",
"691 1292 LINE"
);
}
);
userData = {
assembly = "NPUSHB[ ]\011/* 20 values pushed */
11 10 83 89 11 0 9 6 80 89 9 15 0 5 3 5 80 89 3 21 
SVTCA[0]\011/* SetFreedomAndProjectionVectorToAxis */
MIAP[1]\011/* MoveIndirectAbsPt */
CALL[ ]\011/* CallFunction */
SRP1[ ]\011/* SetRefPoint1 */
SVTCA[0]\011/* SetFreedomAndProjectionVectorToAxis */
SHP[1]\011/* ShiftPointByLastPoint */
RTG[ ]\011/* RoundToGrid */
MIAP[1]\011/* MoveIndirectAbsPt */
CALL[ ]\011/* CallFunction */
SVTCA[0]\011/* SetFreedomAndProjectionVectorToAxis */
RTG[ ]\011/* RoundToGrid */
MIAP[1]\011/* MoveIndirectAbsPt */
CALL[ ]\011/* CallFunction */
IUP[1]\011/* InterpolateUntPts */
IUP[0]\011/* InterpolateUntPts */";
};
width = 1229;
}
);
note = i;
unicode = 0069;
},
{
glyphname = j;
lastChange = "2019-12-17 15:39:55 +0000";
layers = (
{
layerId = "90A2DC70-B0EC-4941-B875-3E2B1B2F3578";
paths = (
{
closed = 1;
nodes = (
"424 -425 OFFCURVE",
"690 -214 OFFCURVE",
"726 -28 QCURVE SMOOTH",
"941 1082 LINE",
"354 1082 LINE",
"327 940 LINE",
"734 940 LINE",
"546 -25 LINE SMOOTH",
"522 -145 OFFCURVE",
"358 -276 OFFCURVE",
"231 -276 QCURVE SMOOTH",
"108 -276 OFFCURVE",
"-35 -242 QCURVE",
"-62 -382 LINE",
"-19 -399 OFFCURVE",
"138 -425 OFFCURVE",
"217 -425 QCURVE SMOOTH"
);
},
{
closed = 1;
nodes = (
"982 1292 LINE",
"1019 1484 LINE",
"819 1484 LINE",
"782 1292 LINE"
);
}
);
userData = {
assembly = "NPUSHB[ ]\011/* 21 values pushed */
18 17 83 89 18 0 13 10 80 89 13 15 14 9 22 0 6 80 89 0 27 
SVTCA[0]\011/* SetFreedomAndProjectionVectorToAxis */
MIAP[1]\011/* MoveIndirectAbsPt */
CALL[ ]\011/* CallFunction */
SVTCA[0]\011/* SetFreedomAndProjectionVectorToAxis */
RTG[ ]\011/* RoundToGrid */
MIAP[1]\011/* MoveIndirectAbsPt */
SHP[1]\011/* ShiftPointByLastPoint */
MIAP[1]\011/* MoveIndirectAbsPt */
CALL[ ]\011/* CallFunction */
SVTCA[0]\011/* SetFreedomAndProjectionVectorToAxis */
RTG[ ]\011/* RoundToGrid */
MIAP[1]\011/* MoveIndirectAbsPt */
CALL[ ]\011/* CallFunction */
IUP[1]\011/* InterpolateUntPts */
IUP[0]\011/* InterpolateUntPts */";
};
width = 1229;
}
);
note = j;
unicode = 006A;
},
{
glyphname = k;
lastChange = "2019-12-17 15:39:55 +0000";
layers = (
{
layerId = "90A2DC70-B0EC-4941-B875-3E2B1B2F3578";
paths = (
{
closed = 1;
nodes = (
"1020 0 LINE",
"678 617 LINE",
"1207 1082 LINE",
"996 1082 LINE",
"419 557 LINE",
"599 1484 LINE",
"419 1484 LINE",
"131 0 LINE",
"311 0 LINE",
"389 401 LINE",
"540 499 LINE",
"809 0 LINE"
);
}
);
userData = {
assembly = "NPUSHB[ ]\011/* 19 values pushed */
10 1 1 2 2 7 64 18 25 72 7 7 8 15 5 0 3 0 21 
SVTCA[0]\011/* SetFreedomAndProjectionVectorToAxis */
MIAP[1]\011/* MoveIndirectAbsPt */
SHP[0]\011/* ShiftPointByLastPoint */
MIAP[1]\011/* MoveIndirectAbsPt */
MIAP[1]\011/* MoveIndirectAbsPt */
IP[ ]\011/* InterpolatePts */
MDAP[1]\011/* MoveDirectAbsPt */
CALL[ ]\011/* CallFunction */
SHP[1]\011/* ShiftPointByLastPoint */
SRP2[ ]\011/* SetRefPoint2 */
IP[ ]\011/* InterpolatePts */
SRP1[ ]\011/* SetRefPoint1 */
SHP[1]\011/* ShiftPointByLastPoint */
IUP[1]\011/* InterpolateUntPts */
IUP[0]\011/* InterpolateUntPts */";
};
width = 1229;
}
);
note = k;
unicode = 006B;
},
{
glyphname = l;
lastChange = "2019-12-17 15:39:55 +0000";
layers = (
{
layerId = "90A2DC70-B0EC-4941-B875-3E2B1B2F3578";
paths = (
{
closed = 1;
nodes = (
"919 1484 LINE",
"450 1484 LINE",
"423 1342 LINE",
"712 1342 LINE",
"479 142 LINE",
"57 142 LINE",
"29 0 LINE",
"1011 0 LINE",
"1039 142 LINE",
"659 142 LINE"
);
}
);
userData = {
assembly = "NPUSHB[ ]\011/* 14 values pushed */
9 6 80 89 9 0 0 5 3 5 80 89 3 21 
SVTCA[0]\011/* SetFreedomAndProjectionVectorToAxis */
MIAP[1]\011/* MoveIndirectAbsPt */
CALL[ ]\011/* CallFunction */
SRP1[ ]\011/* SetRefPoint1 */
SVTCA[0]\011/* SetFreedomAndProjectionVectorToAxis */
SHP[1]\011/* ShiftPointByLastPoint */
RTG[ ]\011/* RoundToGrid */
MIAP[1]\011/* MoveIndirectAbsPt */
CALL[ ]\011/* CallFunction */
IUP[1]\011/* InterpolateUntPts */
IUP[0]\011/* InterpolateUntPts */";
};
width = 1229;
}
);
note = l;
unicode = 006C;
},
{
glyphname = m;
lastChange = "2019-12-17 15:39:55 +0000";
layers = (
{
layerId = "90A2DC70-B0EC-4941-B875-3E2B1B2F3578";
paths = (
{
closed = 1;
nodes = (
"594 0 LINE",
"716 627 LINE SMOOTH",
"748 794 OFFCURVE",
"859 963 OFFCURVE",
"924 963 QCURVE SMOOTH",
"966 963 OFFCURVE",
"1006 916 OFFCURVE",
"1006 857 QCURVE SMOOTH",
"1006 796 OFFCURVE",
"984 686 QCURVE SMOOTH",
"851 0 LINE",
"1019 0 LINE",
"1159 721 LINE SMOOTH",
"1181 835 OFFCURVE",
"1181 910 QCURVE SMOOTH",
"1181 1010 OFFCURVE",
"1101 1102 OFFCURVE",
"1013 1102 QCURVE SMOOTH",
"929 1102 OFFCURVE",
"800 1012 OFFCURVE",
"739 906 QCURVE",
"737 906 LINE",
"737 912 LINE SMOOTH",
"737 1007 OFFCURVE",
"669 1102 OFFCURVE",
"581 1102 QCURVE SMOOTH",
"506 1102 OFFCURVE",
"384 1014 OFFCURVE",
"327 907 QCURVE",
"325 907 LINE",
"334 955 LINE",
"353 1082 LINE",
"204 1082 LINE",
"204 1075 OFFCURVE",
"196 1027 OFFCURVE",
"185 960 OFFCURVE",
"172 885 OFFCURVE",
"165 851 QCURVE SMOOTH",
"0 0 LINE",
"169 0 LINE",
"287 607 LINE SMOOTH",
"320 775 OFFCURVE",
"436 963 OFFCURVE",
"499 963 QCURVE SMOOTH",
"541 963 OFFCURVE",
"581 916 OFFCURVE",
"581 857 QCURVE SMOOTH",
"581 796 OFFCURVE",
"559 686 QCURVE SMOOTH",
"426 0 LINE"
);
}
);
userData = {
assembly = "NPUSHB[ ]\011/* 20 values pushed */
28 20 20 24 0 45 6 24 6 80 89 32 24 16 17 15 39 10 0 21 
SVTCA[0]\011/* SetFreedomAndProjectionVectorToAxis */
MIAP[1]\011/* MoveIndirectAbsPt */
SHP[0]\011/* ShiftPointByLastPoint */
SHP[0]\011/* ShiftPointByLastPoint */
MIAP[1]\011/* MoveIndirectAbsPt */
MIAP[1]\011/* MoveIndirectAbsPt */
SHP[1]\011/* ShiftPointByLastPoint */
CALL[ ]\011/* CallFunction */
SRP1[ ]\011/* SetRefPoint1 */
SVTCA[0]\011/* SetFreedomAndProjectionVectorToAxis */
SHP[1]\011/* ShiftPointByLastPoint */
SRP1[ ]\011/* SetRefPoint1 */
SRP2[ ]\011/* SetRefPoint2 */
IP[ ]\011/* InterpolatePts */
SRP1[ ]\011/* SetRefPoint1 */
SHP[1]\011/* ShiftPointByLastPoint */
IUP[1]\011/* InterpolateUntPts */
IUP[0]\011/* InterpolateUntPts */";
};
width = 1229;
}
);
note = m;
unicode = 006D;
},
{
glyphname = n;
lastChange = "2019-12-17 15:39:55 +0000";
layers = (
{
layerId = "90A2DC70-B0EC-4941-B875-3E2B1B2F3578";
paths = (
{
closed = 1;
nodes = (
"944 0 LINE",
"1084 721 LINE SMOOTH",
"1098 791 OFFCURVE",
"1098 848 QCURVE SMOOTH",
"1098 1102 OFFCURVE",
"815 1102 QCURVE SMOOTH",
"683 1102 OFFCURVE",
"497 992 OFFCURVE",
"429 897 QCURVE",
"426 897 LINE",
"437 953 OFFCURVE",
"454 1076 OFFCURVE",
"454 1082 QCURVE",
"284 1082 LINE",
"284 1075 OFFCURVE",
"276 1027 OFFCURVE",
"265 960 OFFCURVE",
"252 885 OFFCURVE",
"245 851 QCURVE SMOOTH",
"80 0 LINE",
"260 0 LINE",
"382 627 LINE SMOOTH",
"413 782 OFFCURVE",
"606 963 OFFCURVE",
"730 963 QCURVE SMOOTH",
"822 963 OFFCURVE",
"909 881 OFFCURVE",
"909 793 QCURVE SMOOTH",
"909 753 OFFCURVE",
"898 695 QCURVE SMOOTH",
"763 0 LINE"
);
}
);
userData = {
assembly = "NPUSHB[ ]\011/* 14 values pushed */
21 0 25 25 6 80 89 25 16 17 15 10 0 21 
SVTCA[0]\011/* SetFreedomAndProjectionVectorToAxis */
MIAP[1]\011/* MoveIndirectAbsPt */
SHP[0]\011/* ShiftPointByLastPoint */
MIAP[1]\011/* MoveIndirectAbsPt */
MIAP[1]\011/* MoveIndirectAbsPt */
CALL[ ]\011/* CallFunction */
SRP1[ ]\011/* SetRefPoint1 */
SRP2[ ]\011/* SetRefPoint2 */
SVTCA[0]\011/* SetFreedomAndProjectionVectorToAxis */
IP[ ]\011/* InterpolatePts */
IUP[1]\011/* InterpolateUntPts */
IUP[0]\011/* InterpolateUntPts */";
};
width = 1229;
}
);
note = n;
unicode = 006E;
},
{
glyphname = o;
lastChange = "2019-12-17 15:39:55 +0000";
layers = (
{
layerId = "90A2DC70-B0EC-4941-B875-3E2B1B2F3578";
paths = (
{
closed = 1;
nodes = (
"641 -20 OFFCURVE",
"871 86 OFFCURVE",
"1033 298 OFFCURVE",
"1117 597 OFFCURVE",
"1117 732 QCURVE SMOOTH",
"1117 918 OFFCURVE",
"923 1102 OFFCURVE",
"724 1102 QCURVE SMOOTH",
"492 1102 OFFCURVE",
"185 821 OFFCURVE",
"130 542 QCURVE SMOOTH",
"112 446 OFFCURVE",
"112 367 QCURVE SMOOTH",
"112 177 OFFCURVE",
"312 -20 OFFCURVE",
"500 -20 QCURVE SMOOTH"
);
},
{
closed = 1;
nodes = (
"928 627 OFFCURVE",
"870 370 OFFCURVE",
"767 196 OFFCURVE",
"625 113 OFFCURVE",
"524 113 QCURVE SMOOTH",
"301 113 OFFCURVE",
"301 373 QCURVE SMOOTH",
"301 509 OFFCURVE",
"396 815 OFFCURVE",
"569 969 OFFCURVE",
"701 969 QCURVE SMOOTH",
"819 969 OFFCURVE",
"928 845 OFFCURVE",
"928 720 QCURVE SMOOTH"
);
}
);
userData = {
assembly = "NPUSHB[ ]\011/* 12 values pushed */
8 19 80 89 8 16 0 25 80 89 0 22 
SVTCA[0]\011/* SetFreedomAndProjectionVectorToAxis */
MIAP[1]\011/* MoveIndirectAbsPt */
CALL[ ]\011/* CallFunction */
SVTCA[0]\011/* SetFreedomAndProjectionVectorToAxis */
RTG[ ]\011/* RoundToGrid */
MIAP[1]\011/* MoveIndirectAbsPt */
CALL[ ]\011/* CallFunction */
IUP[1]\011/* InterpolateUntPts */
IUP[0]\011/* InterpolateUntPts */";
};
width = 1229;
}
);
note = o;
unicode = 006F;
},
{
glyphname = p;
lastChange = "2019-12-17 15:39:55 +0000";
layers = (
{
layerId = "90A2DC70-B0EC-4941-B875-3E2B1B2F3578";
paths = (
{
closed = 1;
nodes = (
"981 -20 OFFCURVE",
"1091 546 QCURVE SMOOTH",
"1116 673 OFFCURVE",
"1116 768 QCURVE SMOOTH",
"1116 1104 OFFCURVE",
"808 1104 QCURVE SMOOTH",
"684 1104 OFFCURVE",
"509 1009 OFFCURVE",
"439 904 QCURVE",
"435 904 LINE",
"441 935 OFFCURVE",
"459 1062 OFFCURVE",
"459 1082 QCURVE",
"284 1082 LINE",
"274 994 OFFCURVE",
"247 858 QCURVE SMOOTH",
"-3 -425 LINE",
"178 -425 LINE",
"273 62 OFFCURVE",
"289 154 OFFCURVE",
"289 164 QCURVE",
"294 164 LINE",
"342 -20 OFFCURVE",
"589 -20 QCURVE SMOOTH"
);
},
{
closed = 1;
nodes = (
"928 619 OFFCURVE",
"836 269 OFFCURVE",
"683 113 OFFCURVE",
"566 113 QCURVE SMOOTH",
"451 113 OFFCURVE",
"343 229 OFFCURVE",
"343 350 QCURVE SMOOTH",
"343 440 OFFCURVE",
"403 703 OFFCURVE",
"502 880 OFFCURVE",
"637 965 OFFCURVE",
"734 965 QCURVE SMOOTH",
"839 965 OFFCURVE",
"928 851 OFFCURVE",
"928 743 QCURVE SMOOTH"
);
}
);
userData = {
assembly = "NPUSHB[ ]\011/* 20 values pushed */
3 14 0 18 18 27 80 89 18 16 10 15 6 27 0 35 80 89 0 22 
SVTCA[0]\011/* SetFreedomAndProjectionVectorToAxis */
MIAP[1]\011/* MoveIndirectAbsPt */
CALL[ ]\011/* CallFunction */
SVTCA[0]\011/* SetFreedomAndProjectionVectorToAxis */
RTG[ ]\011/* RoundToGrid */
MIAP[1]\011/* MoveIndirectAbsPt */
MIAP[1]\011/* MoveIndirectAbsPt */
MIAP[1]\011/* MoveIndirectAbsPt */
CALL[ ]\011/* CallFunction */
SRP1[ ]\011/* SetRefPoint1 */
SRP2[ ]\011/* SetRefPoint2 */
SVTCA[0]\011/* SetFreedomAndProjectionVectorToAxis */
IP[ ]\011/* InterpolatePts */
IP[ ]\011/* InterpolatePts */
IUP[1]\011/* InterpolateUntPts */
IUP[0]\011/* InterpolateUntPts */";
};
width = 1229;
}
);
note = p;
unicode = 0070;
},
{
glyphname = q;
lastChange = "2019-12-17 15:39:55 +0000";
layers = (
{
layerId = "90A2DC70-B0EC-4941-B875-3E2B1B2F3578";
paths = (
{
closed = 1;
nodes = (
"246 1098 OFFCURVE",
"136 532 QCURVE SMOOTH",
"112 408 OFFCURVE",
"112 311 QCURVE SMOOTH",
"112 142 OFFCURVE",
"262 -26 OFFCURVE",
"420 -26 QCURVE SMOOTH",
"542 -26 OFFCURVE",
"719 72 OFFCURVE",
"795 182 QCURVE",
"797 182 LINE",
"783 125 OFFCURVE",
"675 -425 QCURVE",
"856 -425 LINE",
"1117 914 OFFCURVE",
"1149 1061 OFFCURVE",
"1156 1083 QCURVE",
"981 1083 LINE",
"977 1077 OFFCURVE",
"949 979 OFFCURVE",
"936 914 QCURVE",
"934 914 LINE",
"904 1008 OFFCURVE",
"767 1098 OFFCURVE",
"637 1098 QCURVE SMOOTH"
);
},
{
closed = 1;
nodes = (
"885 593 OFFCURVE",
"788 273 OFFCURVE",
"621 113 OFFCURVE",
"494 113 QCURVE SMOOTH",
"393 113 OFFCURVE",
"302 227 OFFCURVE",
"302 342 QCURVE SMOOTH",
"302 469 OFFCURVE",
"391 807 OFFCURVE",
"545 965 OFFCURVE",
"662 965 QCURVE SMOOTH",
"778 965 OFFCURVE",
"885 848 OFFCURVE",
"885 725 QCURVE SMOOTH"
);
}
);
userData = {
assembly = "NPUSHB[ ]\011/* 19 values pushed */
18 35 80 89 15 3 0 18 22 12 27 7 15 0 28 80 89 0 16 
SVTCA[0]\011/* SetFreedomAndProjectionVectorToAxis */
MIAP[1]\011/* MoveIndirectAbsPt */
CALL[ ]\011/* CallFunction */
SVTCA[0]\011/* SetFreedomAndProjectionVectorToAxis */
RTG[ ]\011/* RoundToGrid */
MIAP[1]\011/* MoveIndirectAbsPt */
MIAP[1]\011/* MoveIndirectAbsPt */
MIAP[1]\011/* MoveIndirectAbsPt */
SRP2[ ]\011/* SetRefPoint2 */
IP[ ]\011/* InterpolatePts */
IP[ ]\011/* InterpolatePts */
CALL[ ]\011/* CallFunction */
IUP[1]\011/* InterpolateUntPts */
IUP[0]\011/* InterpolateUntPts */";
};
width = 1229;
}
);
note = q;
unicode = 0071;
},
{
glyphname = r;
lastChange = "2019-12-17 15:39:55 +0000";
layers = (
{
layerId = "90A2DC70-B0EC-4941-B875-3E2B1B2F3578";
paths = (
{
closed = 1;
nodes = (
"1151 1085 LINE",
"1054 1102 OFFCURVE",
"948 1102 QCURVE SMOOTH",
"853 1102 OFFCURVE",
"711 1049 OFFCURVE",
"596 945 OFFCURVE",
"523 832 QCURVE",
"518 832 LINE",
"524 888 OFFCURVE",
"524 954 QCURVE SMOOTH",
"524 1032 OFFCURVE",
"518 1082 QCURVE",
"347 1082 LINE",
"350 990 LINE SMOOTH",
"350 837 OFFCURVE",
"325 701 QCURVE SMOOTH",
"189 0 LINE",
"369 0 LINE",
"468 508 LINE SMOOTH",
"504 695 OFFCURVE",
"750 937 OFFCURVE",
"910 937 QCURVE SMOOTH",
"1011 937 OFFCURVE",
"1118 918 QCURVE"
);
}
);
userData = {
assembly = "NPUSHB[ ]\011/* 12 values pushed */
21 2 82 89 21 16 16 6 11 15 6 21 
SVTCA[0]\011/* SetFreedomAndProjectionVectorToAxis */
MIAP[1]\011/* MoveIndirectAbsPt */
MIAP[1]\011/* MoveIndirectAbsPt */
SRP2[ ]\011/* SetRefPoint2 */
IP[ ]\011/* InterpolatePts */
MIAP[1]\011/* MoveIndirectAbsPt */
CALL[ ]\011/* CallFunction */
IUP[1]\011/* InterpolateUntPts */
IUP[0]\011/* InterpolateUntPts */";
};
width = 1229;
}
);
note = r;
unicode = 0072;
},
{
glyphname = s;
lastChange = "2019-12-17 15:39:55 +0000";
layers = (
{
layerId = "90A2DC70-B0EC-4941-B875-3E2B1B2F3578";
paths = (
{
closed = 1;
nodes = (
"663 -20 OFFCURVE",
"895 78 OFFCURVE",
"1021 263 OFFCURVE",
"1021 366 QCURVE SMOOTH",
"1021 410 OFFCURVE",
"992 480 OFFCURVE",
"922 547 OFFCURVE",
"806 599 OFFCURVE",
"585 657 QCURVE SMOOTH",
"499 679 OFFCURVE",
"428 738 OFFCURVE",
"428 784 QCURVE SMOOTH",
"428 869 OFFCURVE",
"568 965 OFFCURVE",
"706 965 QCURVE SMOOTH",
"823 965 OFFCURVE",
"927 894 OFFCURVE",
"927 824 QCURVE SMOOTH",
"927 819 LINE",
"1093 839 LINE",
"1093 965 OFFCURVE",
"908 1099 OFFCURVE",
"732 1099 QCURVE SMOOTH",
"623 1099 OFFCURVE",
"443 1046 OFFCURVE",
"318 944 OFFCURVE",
"252 800 OFFCURVE",
"252 728 QCURVE SMOOTH",
"252 667 OFFCURVE",
"311 582 OFFCURVE",
"418 523 OFFCURVE",
"550 487 QCURVE SMOOTH",
"666 456 LINE SMOOTH",
"761 430 OFFCURVE",
"844 364 OFFCURVE",
"844 315 QCURVE SMOOTH",
"844 224 OFFCURVE",
"690 114 OFFCURVE",
"538 114 QCURVE SMOOTH",
"389 114 OFFCURVE",
"278 191 OFFCURVE",
"275 279 QCURVE",
"110 248 LINE",
"117 107 OFFCURVE",
"307 -20 OFFCURVE",
"512 -20 QCURVE SMOOTH"
);
}
);
userData = {
assembly = "NPUSHB[ ]\011/* 23 values pushed */
10 34 0 23 23 31 80 89 0 27 1 18 3 27 23 16 0 7 80 89 4 0 22 
SVTCA[0]\011/* SetFreedomAndProjectionVectorToAxis */
MIAP[1]\011/* MoveIndirectAbsPt */
MDRP[00100]\011/* MoveDirectRelPt */
CALL[ ]\011/* CallFunction */
SVTCA[0]\011/* SetFreedomAndProjectionVectorToAxis */
RTG[ ]\011/* RoundToGrid */
MIAP[1]\011/* MoveIndirectAbsPt */
MDRP[00100]\011/* MoveDirectRelPt */
SDS[ ]\011/* SetDeltaShiftInGState */
SDB[ ]\011/* SetDeltaBaseInGState */
DELTAP1[ ]\011/* DeltaExceptionP1 */
CALL[ ]\011/* CallFunction */
SRP1[ ]\011/* SetRefPoint1 */
SRP2[ ]\011/* SetRefPoint2 */
SVTCA[0]\011/* SetFreedomAndProjectionVectorToAxis */
IP[ ]\011/* InterpolatePts */
IP[ ]\011/* InterpolatePts */
IUP[1]\011/* InterpolateUntPts */
IUP[0]\011/* InterpolateUntPts */";
};
width = 1229;
}
);
note = s;
unicode = 0073;
},
{
glyphname = t;
lastChange = "2019-12-17 15:39:55 +0000";
layers = (
{
layerId = "90A2DC70-B0EC-4941-B875-3E2B1B2F3578";
paths = (
{
closed = 1;
nodes = (
"436 940 LINE",
"305 269 LINE SMOOTH",
"297 234 OFFCURVE",
"297 189 QCURVE SMOOTH",
"297 83 OFFCURVE",
"435 -16 OFFCURVE",
"574 -16 QCURVE SMOOTH",
"742 -16 OFFCURVE",
"918 30 QCURVE",
"944 167 LINE",
"774 133 OFFCURVE",
"641 133 QCURVE SMOOTH",
"560 133 OFFCURVE",
"484 187 OFFCURVE",
"484 244 QCURVE",
"489 288 LINE",
"616 940 LINE",
"1048 940 LINE",
"1075 1082 LINE",
"643 1082 LINE",
"698 1364 LINE",
"578 1364 LINE",
"465 1082 LINE",
"295 1082 LINE",
"268 940 LINE"
);
}
);
userData = {
assembly = "NPUSHB[ ]\011/* 18 values pushed */
18 13 80 89 18 22 8 24 2 24 80 89 5 2 4 4 2 15 
SVTCA[0]\011/* SetFreedomAndProjectionVectorToAxis */
MIAP[1]\011/* MoveIndirectAbsPt */
SHP[1]\011/* ShiftPointByLastPoint */
MDAP[1]\011/* MoveDirectAbsPt */
SRP1[ ]\011/* SetRefPoint1 */
SHP[1]\011/* ShiftPointByLastPoint */
CALL[ ]\011/* CallFunction */
SRP1[ ]\011/* SetRefPoint1 */
SVTCA[0]\011/* SetFreedomAndProjectionVectorToAxis */
SHP[1]\011/* ShiftPointByLastPoint */
RTG[ ]\011/* RoundToGrid */
MIAP[1]\011/* MoveIndirectAbsPt */
CALL[ ]\011/* CallFunction */
IUP[1]\011/* InterpolateUntPts */
IUP[0]\011/* InterpolateUntPts */";
};
width = 1229;
}
);
note = t;
unicode = 0074;
},
{
glyphname = u;
lastChange = "2019-12-17 15:39:55 +0000";
layers = (
{
layerId = "90A2DC70-B0EC-4941-B875-3E2B1B2F3578";
paths = (
{
closed = 1;
nodes = (
"290 1082 LINE",
"150 361 LINE SMOOTH",
"135 283 OFFCURVE",
"135 223 QCURVE SMOOTH",
"135 96 OFFCURVE",
"273 -20 OFFCURVE",
"419 -20 QCURVE SMOOTH",
"537 -20 OFFCURVE",
"722 73 OFFCURVE",
"805 185 QCURVE",
"808 185 LINE",
"801 144 OFFCURVE",
"780 11 OFFCURVE",
"780 0 QCURVE",
"950 0 LINE",
"950 7 OFFCURVE",
"958 55 OFFCURVE",
"969 122 OFFCURVE",
"982 197 OFFCURVE",
"989 231 QCURVE SMOOTH",
"1154 1082 LINE",
"973 1082 LINE",
"851 455 LINE SMOOTH",
"822 299 OFFCURVE",
"638 119 OFFCURVE",
"507 119 QCURVE SMOOTH",
"408 119 OFFCURVE",
"323 189 OFFCURVE",
"323 273 QCURVE SMOOTH",
"323 324 OFFCURVE",
"337 396 QCURVE SMOOTH",
"470 1082 LINE"
);
}
);
userData = {
assembly = "NPUSHB[ ]\011/* 14 values pushed */
22 25 0 25 6 80 89 25 22 17 21 10 0 15 
SVTCA[0]\011/* SetFreedomAndProjectionVectorToAxis */
MIAP[1]\011/* MoveIndirectAbsPt */
SHP[0]\011/* ShiftPointByLastPoint */
MIAP[1]\011/* MoveIndirectAbsPt */
MIAP[1]\011/* MoveIndirectAbsPt */
CALL[ ]\011/* CallFunction */
SRP1[ ]\011/* SetRefPoint1 */
SRP2[ ]\011/* SetRefPoint2 */
SVTCA[0]\011/* SetFreedomAndProjectionVectorToAxis */
IP[ ]\011/* InterpolatePts */
IUP[1]\011/* InterpolateUntPts */
IUP[0]\011/* InterpolateUntPts */";
};
width = 1229;
}
);
note = u;
unicode = 0075;
},
{
glyphname = v;
lastChange = "2019-12-17 15:39:55 +0000";
layers = (
{
layerId = "90A2DC70-B0EC-4941-B875-3E2B1B2F3578";
paths = (
{
closed = 1;
nodes = (
"1264 1082 LINE",
"1063 1082 LINE",
"650 376 LINE",
"594 274 OFFCURVE",
"556 194 QCURVE SMOOTH",
"530 141 LINE",
"526 194 LINE SMOOTH",
"516 310 OFFCURVE",
"507 378 QCURVE",
"376 1082 LINE",
"174 1082 LINE",
"397 0 LINE",
"610 0 LINE"
);
}
);
userData = {
assembly = "PUSHB[ ]\011/* 6 values pushed */
11 2 15 7 1 21 
SVTCA[0]\011/* SetFreedomAndProjectionVectorToAxis */
MIAP[1]\011/* MoveIndirectAbsPt */
SHP[1]\011/* ShiftPointByLastPoint */
MIAP[1]\011/* MoveIndirectAbsPt */
SHP[1]\011/* ShiftPointByLastPoint */
IUP[1]\011/* InterpolateUntPts */
IUP[0]\011/* InterpolateUntPts */";
};
width = 1229;
}
);
note = v;
unicode = 0076;
},
{
glyphname = w;
lastChange = "2019-12-17 15:39:55 +0000";
layers = (
{
layerId = "90A2DC70-B0EC-4941-B875-3E2B1B2F3578";
paths = (
{
closed = 1;
nodes = (
"1313 1082 LINE",
"1137 1082 LINE",
"918 475 LINE",
"847 251 OFFCURVE",
"825 175 OFFCURVE",
"820 149 QCURVE",
"806 362 LINE",
"759 787 LINE",
"566 787 LINE",
"349 363 LINE",
"288 235 LINE",
"249 149 LINE",
"256 183 OFFCURVE",
"277 418 OFFCURVE",
"279 475 QCURVE SMOOTH",
"304 1082 LINE",
"126 1082 LINE",
"99 0 LINE",
"302 0 LINE",
"574 534 LINE",
"640 673 LINE",
"658 471 LINE",
"709 0 LINE",
"913 0 LINE"
);
}
);
userData = {
assembly = "NPUSHB[ ]\011/* 13 values pushed */
3 15 15 12 22 7 15 18 12 12 1 6 21 
SVTCA[0]\011/* SetFreedomAndProjectionVectorToAxis */
MIAP[1]\011/* MoveIndirectAbsPt */
SHP[1]\011/* ShiftPointByLastPoint */
SHP[1]\011/* ShiftPointByLastPoint */
SRP1[ ]\011/* SetRefPoint1 */
SHP[1]\011/* ShiftPointByLastPoint */
MIAP[1]\011/* MoveIndirectAbsPt */
SHP[1]\011/* ShiftPointByLastPoint */
SRP2[ ]\011/* SetRefPoint2 */
IP[ ]\011/* InterpolatePts */
MDAP[1]\011/* MoveDirectAbsPt */
SHP[1]\011/* ShiftPointByLastPoint */
IUP[1]\011/* InterpolateUntPts */
IUP[0]\011/* InterpolateUntPts */";
};
width = 1229;
}
);
note = w;
unicode = 0077;
},
{
glyphname = x;
lastChange = "2019-12-17 15:39:55 +0000";
layers = (
{
layerId = "90A2DC70-B0EC-4941-B875-3E2B1B2F3578";
paths = (
{
closed = 1;
nodes = (
"1028 0 LINE",
"716 558 LINE",
"1215 1082 LINE",
"1014 1082 LINE",
"634 661 LINE",
"416 1082 LINE",
"217 1082 LINE",
"512 556 LINE",
"-11 0 LINE",
"183 0 LINE",
"592 444 LINE",
"827 0 LINE"
);
}
);
userData = {
assembly = "NPUSHB[ ]\011/* 11 values pushed */
7 10 4 1 4 8 5 15 2 0 21 
SVTCA[0]\011/* SetFreedomAndProjectionVectorToAxis */
MIAP[1]\011/* MoveIndirectAbsPt */
SHP[0]\011/* ShiftPointByLastPoint */
MIAP[1]\011/* MoveIndirectAbsPt */
SHP[1]\011/* ShiftPointByLastPoint */
SLOOP[ ]\011/* SetLoopVariable */
IP[ ]\011/* InterpolatePts */
IUP[1]\011/* InterpolateUntPts */
IUP[0]\011/* InterpolateUntPts */";
};
width = 1229;
}
);
note = x;
unicode = 0078;
},
{
glyphname = y;
lastChange = "2019-12-17 15:39:55 +0000";
layers = (
{
layerId = "90A2DC70-B0EC-4941-B875-3E2B1B2F3578";
paths = (
{
closed = 1;
nodes = (
"235 -425 OFFCURVE",
"460 -242 OFFCURVE",
"600 0 QCURVE",
"1266 1082 LINE",
"1076 1082 LINE",
"614 296 LINE SMOOTH",
"561 208 OFFCURVE",
"551 186 QCURVE",
"551 202 OFFCURVE",
"514 391 OFFCURVE",
"503 440 QCURVE SMOOTH",
"363 1082 LINE",
"171 1082 LINE",
"433 11 LINE",
"406 -38 LINE SMOOTH",
"333 -167 OFFCURVE",
"171 -285 OFFCURVE",
"92 -285 QCURVE SMOOTH",
"45 -285 OFFCURVE",
"9 -279 QCURVE",
"-17 -414 LINE",
"32 -425 OFFCURVE",
"104 -425 QCURVE SMOOTH"
);
}
);
userData = {
assembly = "NPUSHB[ ]\011/* 13 values pushed */
18 10 15 0 15 16 15 32 15 3 26 4 15 
PUSHW[ ]\011/* 1 value pushed */
-32 
NPUSHB[ ]\011/* 18 values pushed */
13 17 72 15 32 9 12 72 15 20 9 21 0 5 80 89 0 27 
SVTCA[0]\011/* SetFreedomAndProjectionVectorToAxis */
MIAP[1]\011/* MoveIndirectAbsPt */
CALL[ ]\011/* CallFunction */
SVTCA[0]\011/* SetFreedomAndProjectionVectorToAxis */
RTG[ ]\011/* RoundToGrid */
MIAP[1]\011/* MoveIndirectAbsPt */
SHP[1]\011/* ShiftPointByLastPoint */
SHP[1]\011/* ShiftPointByLastPoint */
CALL[ ]\011/* CallFunction */
CALL[ ]\011/* CallFunction */
SDS[ ]\011/* SetDeltaShiftInGState */
SDB[ ]\011/* SetDeltaBaseInGState */
DELTAP1[ ]\011/* DeltaExceptionP1 */
MIAP[1]\011/* MoveIndirectAbsPt */
SHP[1]\011/* ShiftPointByLastPoint */
IUP[1]\011/* InterpolateUntPts */
IUP[0]\011/* InterpolateUntPts */";
};
width = 1229;
}
);
note = y;
unicode = 0079;
},
{
glyphname = z;
lastChange = "2019-12-17 15:39:55 +0000";
layers = (
{
layerId = "90A2DC70-B0EC-4941-B875-3E2B1B2F3578";
paths = (
{
closed = 1;
nodes = (
"963 0 LINE",
"990 139 LINE",
"271 139 LINE",
"1110 945 LINE",
"1136 1082 LINE",
"292 1082 LINE",
"265 943 LINE",
"906 943 LINE",
"69 137 LINE",
"42 0 LINE"
);
}
);
userData = {
assembly = "NPUSHB[ ]\011/* 16 values pushed */
6 2 5 2 80 89 5 15 1 7 9 7 80 89 9 21 
SVTCA[0]\011/* SetFreedomAndProjectionVectorToAxis */
MIAP[1]\011/* MoveIndirectAbsPt */
CALL[ ]\011/* CallFunction */
SRP1[ ]\011/* SetRefPoint1 */
SVTCA[0]\011/* SetFreedomAndProjectionVectorToAxis */
SHP[1]\011/* ShiftPointByLastPoint */
RTG[ ]\011/* RoundToGrid */
MIAP[1]\011/* MoveIndirectAbsPt */
CALL[ ]\011/* CallFunction */
SRP1[ ]\011/* SetRefPoint1 */
SVTCA[0]\011/* SetFreedomAndProjectionVectorToAxis */
SHP[1]\011/* ShiftPointByLastPoint */
IUP[1]\011/* InterpolateUntPts */
IUP[0]\011/* InterpolateUntPts */";
};
width = 1229;
}
);
note = z;
unicode = 007A;
},
{
glyphname = braceleft;
lastChange = "2019-12-17 15:39:55 +0000";
layers = (
{
layerId = "90A2DC70-B0EC-4941-B875-3E2B1B2F3578";
paths = (
{
closed = 1;
nodes = (
"873 -425 LINE",
"900 -286 LINE",
"687 -286 LINE SMOOTH",
"614 -286 OFFCURVE",
"546 -230 OFFCURVE",
"546 -165 QCURVE SMOOTH",
"546 -133 OFFCURVE",
"554 -91 QCURVE SMOOTH",
"622 256 LINE SMOOTH",
"627 279 OFFCURVE",
"627 310 QCURVE SMOOTH",
"627 392 OFFCURVE",
"526 509 OFFCURVE",
"444 530 QCURVE",
"444 532 LINE",
"553 557 OFFCURVE",
"709 707 OFFCURVE",
"728 804 QCURVE SMOOTH",
"796 1150 LINE SMOOTH",
"815 1254 OFFCURVE",
"911 1345 OFFCURVE",
"1004 1345 QCURVE SMOOTH",
"1217 1345 LINE",
"1244 1484 LINE",
"979 1484 LINE SMOOTH",
"847 1484 OFFCURVE",
"655 1320 OFFCURVE",
"627 1181 QCURVE SMOOTH",
"558 829 LINE SMOOTH",
"539 726 OFFCURVE",
"370 603 OFFCURVE",
"238 598 QCURVE",
"212 461 LINE",
"324 456 OFFCURVE",
"447 362 OFFCURVE",
"447 279 QCURVE",
"442 229 LINE",
"373 -122 LINE SMOOTH",
"366 -155 OFFCURVE",
"366 -193 QCURVE SMOOTH",
"366 -302 OFFCURVE",
"498 -425 OFFCURVE",
"608 -425 QCURVE SMOOTH"
);
}
);
userData = {
assembly = "NPUSHB[ ]\011/* 35 values pushed */
32 35 40 24 25 21 28 28 11 7 3 10 0 11 10 245 89 15 14 11 11 18 0 18 21 245 89 18 0 0 40 245 89 0 27 
SVTCA[0]\011/* SetFreedomAndProjectionVectorToAxis */
MIAP[1]\011/* MoveIndirectAbsPt */
CALL[ ]\011/* CallFunction */
SVTCA[0]\011/* SetFreedomAndProjectionVectorToAxis */
RTG[ ]\011/* RoundToGrid */
MIAP[1]\011/* MoveIndirectAbsPt */
CALL[ ]\011/* CallFunction */
SRP1[ ]\011/* SetRefPoint1 */
SRP2[ ]\011/* SetRefPoint2 */
SVTCA[0]\011/* SetFreedomAndProjectionVectorToAxis */
IP[ ]\011/* InterpolatePts */
RTG[ ]\011/* RoundToGrid */
MDAP[1]\011/* MoveDirectAbsPt */
IP[ ]\011/* InterpolatePts */
IP[ ]\011/* InterpolatePts */
CALL[ ]\011/* CallFunction */
SRP1[ ]\011/* SetRefPoint1 */
SRP2[ ]\011/* SetRefPoint2 */
SVTCA[0]\011/* SetFreedomAndProjectionVectorToAxis */
IP[ ]\011/* InterpolatePts */
IP[ ]\011/* InterpolatePts */
SRP1[ ]\011/* SetRefPoint1 */
IP[ ]\011/* InterpolatePts */
SRP1[ ]\011/* SetRefPoint1 */
SRP2[ ]\011/* SetRefPoint2 */
IP[ ]\011/* InterpolatePts */
IP[ ]\011/* InterpolatePts */
SRP2[ ]\011/* SetRefPoint2 */
IP[ ]\011/* InterpolatePts */
IP[ ]\011/* InterpolatePts */
IUP[1]\011/* InterpolateUntPts */
IUP[0]\011/* InterpolateUntPts */";
};
width = 1229;
}
);
note = braceleft;
unicode = 007B;
},
{
glyphname = bar;
lastChange = "2019-12-17 15:39:55 +0000";
layers = (
{
layerId = "90A2DC70-B0EC-4941-B875-3E2B1B2F3578";
paths = (
{
closed = 1;
nodes = (
"697 -425 LINE",
"697 1484 LINE",
"531 1484 LINE",
"531 -425 LINE"
);
}
);
userData = {
assembly = "PUSHB[ ]\011/* 4 values pushed */
1 0 0 27 
SVTCA[0]\011/* SetFreedomAndProjectionVectorToAxis */
MIAP[1]\011/* MoveIndirectAbsPt */
MIAP[1]\011/* MoveIndirectAbsPt */
IUP[1]\011/* InterpolateUntPts */
IUP[0]\011/* InterpolateUntPts */";
};
width = 1229;
}
);
note = bar;
unicode = 007C;
},
{
glyphname = braceright;
lastChange = "2019-12-17 15:39:55 +0000";
layers = (
{
layerId = "90A2DC70-B0EC-4941-B875-3E2B1B2F3578";
paths = (
{
closed = 1;
nodes = (
"244 -425 LINE SMOOTH",
"376 -425 OFFCURVE",
"572 -255 OFFCURVE",
"597 -122 QCURVE SMOOTH",
"666 229 LINE SMOOTH",
"687 336 OFFCURVE",
"855 456 OFFCURVE",
"986 461 QCURVE",
"1012 598 LINE",
"897 603 OFFCURVE",
"777 699 OFFCURVE",
"777 780 QCURVE",
"782 829 LINE",
"851 1181 LINE SMOOTH",
"858 1216 OFFCURVE",
"858 1254 QCURVE SMOOTH",
"858 1362 OFFCURVE",
"728 1484 OFFCURVE",
"615 1484 QCURVE SMOOTH",
"350 1484 LINE",
"323 1345 LINE",
"536 1345 LINE SMOOTH",
"609 1345 OFFCURVE",
"679 1290 OFFCURVE",
"679 1224 QCURVE SMOOTH",
"679 1192 OFFCURVE",
"671 1150 QCURVE SMOOTH",
"603 804 LINE",
"598 752 LINE",
"598 674 OFFCURVE",
"696 554 OFFCURVE",
"780 532 QCURVE",
"780 530 LINE",
"674 507 OFFCURVE",
"516 358 OFFCURVE",
"497 256 QCURVE SMOOTH",
"429 -91 LINE SMOOTH",
"409 -197 OFFCURVE",
"310 -286 OFFCURVE",
"219 -286 QCURVE SMOOTH",
"6 -286 LINE",
"-21 -425 LINE"
);
}
);
userData = {
assembly = "NPUSHB[ ]\011/* 36 values pushed */
37 38 34 0 17 13 21 6 5 9 1 9 33 34 33 34 245 89 26 30 33 33 22 0 22 21 245 89 22 0 0 1 245 89 0 27 
SVTCA[0]\011/* SetFreedomAndProjectionVectorToAxis */
MIAP[1]\011/* MoveIndirectAbsPt */
CALL[ ]\011/* CallFunction */
SVTCA[0]\011/* SetFreedomAndProjectionVectorToAxis */
RTG[ ]\011/* RoundToGrid */
MIAP[1]\011/* MoveIndirectAbsPt */
CALL[ ]\011/* CallFunction */
SRP1[ ]\011/* SetRefPoint1 */
SRP2[ ]\011/* SetRefPoint2 */
SVTCA[0]\011/* SetFreedomAndProjectionVectorToAxis */
IP[ ]\011/* InterpolatePts */
RTG[ ]\011/* RoundToGrid */
MDAP[1]\011/* MoveDirectAbsPt */
IP[ ]\011/* InterpolatePts */
IP[ ]\011/* InterpolatePts */
CALL[ ]\011/* CallFunction */
SRP1[ ]\011/* SetRefPoint1 */
SRP2[ ]\011/* SetRefPoint2 */
SVTCA[0]\011/* SetFreedomAndProjectionVectorToAxis */
IP[ ]\011/* InterpolatePts */
SRP1[ ]\011/* SetRefPoint1 */
SRP2[ ]\011/* SetRefPoint2 */
IP[ ]\011/* InterpolatePts */
IP[ ]\011/* InterpolatePts */
SRP1[ ]\011/* SetRefPoint1 */
IP[ ]\011/* InterpolatePts */
IP[ ]\011/* InterpolatePts */
SRP1[ ]\011/* SetRefPoint1 */
SRP2[ ]\011/* SetRefPoint2 */
IP[ ]\011/* InterpolatePts */
IP[ ]\011/* InterpolatePts */
IUP[1]\011/* InterpolateUntPts */
IUP[0]\011/* InterpolateUntPts */";
};
width = 1229;
}
);
note = braceright;
unicode = 007D;
},
{
glyphname = asciitilde;
lastChange = "2019-12-17 15:39:55 +0000";
layers = (
{
layerId = "90A2DC70-B0EC-4941-B875-3E2B1B2F3578";
paths = (
{
closed = 1;
nodes = (
"270 807 OFFCURVE",
"144 723 QCURVE",
"116 580 LINE",
"192 628 OFFCURVE",
"314 668 OFFCURVE",
"381 668 QCURVE SMOOTH",
"469 668 OFFCURVE",
"589 623 QCURVE SMOOTH",
"657 597 OFFCURVE",
"793 553 OFFCURVE",
"862 553 QCURVE SMOOTH",
"945 553 OFFCURVE",
"1064 588 OFFCURVE",
"1138 633 QCURVE",
"1167 782 LINE",
"1036 690 OFFCURVE",
"905 690 QCURVE SMOOTH",
"838 690 OFFCURVE",
"718 735 QCURVE SMOOTH",
"650 761 OFFCURVE",
"504 807 OFFCURVE",
"423 807 QCURVE SMOOTH"
);
}
);
userData = {
assembly = "NPUSHB[ ]\011/* 37 values pushed */
0 16 173 89 7 15 0 31 0 47 0 3 18 3 0 64 23 28 72 0 64 9 12 72 0 11 64 19 11 11 5 173 89 63 11 1 11 
SVTCA[0]\011/* SetFreedomAndProjectionVectorToAxis */
MDAP[1]\011/* MoveDirectAbsPt */
DELTAP1[ ]\011/* DeltaExceptionP1 */
CALL[ ]\011/* CallFunction */
SRP1[ ]\011/* SetRefPoint1 */
SVTCA[0]\011/* SetFreedomAndProjectionVectorToAxis */
SHP[1]\011/* ShiftPointByLastPoint */
SMD[ ]\011/* SetMinimumDistance */
RTG[ ]\011/* RoundToGrid */
SRP0[ ]\011/* SetRefPoint0 */
MDRP[01101]\011/* MoveDirectRelPt */
CALL[ ]\011/* CallFunction */
CALL[ ]\011/* CallFunction */
SDS[ ]\011/* SetDeltaShiftInGState */
SDB[ ]\011/* SetDeltaBaseInGState */
DELTAP1[ ]\011/* DeltaExceptionP1 */
SHP[0]\011/* ShiftPointByLastPoint */
CALL[ ]\011/* CallFunction */
IUP[1]\011/* InterpolateUntPts */
IUP[0]\011/* InterpolateUntPts */";
};
width = 1229;
}
);
note = asciitilde;
unicode = 007E;
},
{
glyphname = dagger;
lastChange = "2019-12-17 15:39:55 +0000";
layers = (
{
layerId = "90A2DC70-B0EC-4941-B875-3E2B1B2F3578";
paths = (
{
closed = 1;
nodes = (
"1130 972 LINE",
"1162 1136 LINE",
"797 1117 LINE",
"894 1483 LINE",
"699 1483 LINE",
"654 1117 LINE",
"298 1136 LINE",
"266 972 LINE",
"629 989 LINE",
"410 -213 LINE",
"525 -213 LINE",
"772 989 LINE"
);
}
);
userData = {
assembly = "NPUSHB[ ]\011/* 23 values pushed */
0 3 11 3 4 5 4 193 89 6 9 10 3 5 7 5 194 91 8 7 0 1 2 
SVTCA[0]\011/* SetFreedomAndProjectionVectorToAxis */
MDAP[1]\011/* MoveDirectAbsPt */
SHP[1]\011/* ShiftPointByLastPoint */
MIAP[1]\011/* MoveIndirectAbsPt */
SHP[1]\011/* ShiftPointByLastPoint */
CALL[ ]\011/* CallFunction */
SRP1[ ]\011/* SetRefPoint1 */
SVTCA[0]\011/* SetFreedomAndProjectionVectorToAxis */
SLOOP[ ]\011/* SetLoopVariable */
SHP[1]\011/* ShiftPointByLastPoint */
CALL[ ]\011/* CallFunction */
SRP1[ ]\011/* SetRefPoint1 */
SVTCA[0]\011/* SetFreedomAndProjectionVectorToAxis */
SLOOP[ ]\011/* SetLoopVariable */
SHP[1]\011/* ShiftPointByLastPoint */
IUP[1]\011/* InterpolateUntPts */
IUP[0]\011/* InterpolateUntPts */";
};
width = 1229;
}
);
note = dagger;
unicode = 2020;
},
{
glyphname = degree;
lastChange = "2019-12-17 15:39:55 +0000";
layers = (
{
layerId = "90A2DC70-B0EC-4941-B875-3E2B1B2F3578";
paths = (
{
closed = 1;
nodes = (
"901 1204 OFFCURVE",
"734 1370 OFFCURVE",
"614 1370 QCURVE SMOOTH",
"494 1370 OFFCURVE",
"327 1202 OFFCURVE",
"327 1085 QCURVE SMOOTH",
"327 968 OFFCURVE",
"496 800 OFFCURVE",
"614 800 QCURVE SMOOTH",
"732 800 OFFCURVE",
"901 966 OFFCURVE",
"901 1085 QCURVE SMOOTH"
);
},
{
closed = 1;
nodes = (
"792 1010 OFFCURVE",
"688 905 OFFCURVE",
"614 905 QCURVE SMOOTH",
"541 905 OFFCURVE",
"436 1011 OFFCURVE",
"436 1085 QCURVE SMOOTH",
"436 1159 OFFCURVE",
"539 1265 OFFCURVE",
"614 1265 QCURVE SMOOTH",
"689 1265 OFFCURVE",
"792 1161 OFFCURVE",
"792 1085 QCURVE SMOOTH"
);
}
);
userData = {
assembly = "NPUSHB[ ]\011/* 18 values pushed */
3 21 175 89 0 3 1 9 3 3 3 9 9 15 175 89 9 4 
SVTCA[0]\011/* SetFreedomAndProjectionVectorToAxis */
MIAP[1]\011/* MoveIndirectAbsPt */
CALL[ ]\011/* CallFunction */
SRP1[ ]\011/* SetRefPoint1 */
SVTCA[0]\011/* SetFreedomAndProjectionVectorToAxis */
SHP[1]\011/* ShiftPointByLastPoint */
RTG[ ]\011/* RoundToGrid */
MDAP[1]\011/* MoveDirectAbsPt */
SDS[ ]\011/* SetDeltaShiftInGState */
SDB[ ]\011/* SetDeltaBaseInGState */
DELTAP1[ ]\011/* DeltaExceptionP1 */
CALL[ ]\011/* CallFunction */
IUP[1]\011/* InterpolateUntPts */
IUP[0]\011/* InterpolateUntPts */";
};
width = 1229;
}
);
note = degree;
unicode = 00B0;
},
{
glyphname = cent;
lastChange = "2019-12-17 15:39:55 +0000";
layers = (
{
layerId = "90A2DC70-B0EC-4941-B875-3E2B1B2F3578";
paths = (
{
closed = 1;
nodes = (
"458 269 OFFCURVE",
"327 402 OFFCURVE",
"327 536 QCURVE SMOOTH",
"327 628 OFFCURVE",
"385 839 OFFCURVE",
"492 985 OFFCURVE",
"640 1058 OFFCURVE",
"734 1058 QCURVE SMOOTH",
"846 1058 OFFCURVE",
"965 959 OFFCURVE",
"965 859 QCURVE",
"1153 873 LINE",
"1151 1014 OFFCURVE",
"978 1182 OFFCURVE",
"825 1195 QCURVE",
"861 1379 LINE",
"733 1379 LINE",
"697 1195 LINE",
"574 1185 OFFCURVE",
"368 1074 OFFCURVE",
"221 884 OFFCURVE",
"141 628 OFFCURVE",
"141 510 QCURVE SMOOTH",
"141 339 OFFCURVE",
"322 147 OFFCURVE",
"491 134 QCURVE",
"453 -61 LINE",
"581 -61 LINE",
"619 134 LINE",
"783 148 OFFCURVE",
"1033 333 OFFCURVE",
"1081 474 QCURVE",
"901 486 LINE",
"863 378 OFFCURVE",
"694 269 OFFCURVE",
"582 269 QCURVE SMOOTH"
);
}
);
userData = {
assembly = "NPUSHB[ ]\011/* 55 values pushed */
20 95 19 111 19 2 15 19 191 19 2 16 3 19 18 28 80 89 0 25 1 25 19 21 25 3 15 18 127 18 175 18 207 18 4 9 18 8 9 0 3 1 15 3 3 3 9 7 3 10 10 0 80 89 10 
SVTCA[0]\011/* SetFreedomAndProjectionVectorToAxis */
MDAP[1]\011/* MoveDirectAbsPt */
CALL[ ]\011/* CallFunction */
SRP1[ ]\011/* SetRefPoint1 */
SVTCA[0]\011/* SetFreedomAndProjectionVectorToAxis */
SLOOP[ ]\011/* SetLoopVariable */
SHP[1]\011/* ShiftPointByLastPoint */
RTG[ ]\011/* RoundToGrid */
MDAP[1]\011/* MoveDirectAbsPt */
SDS[ ]\011/* SetDeltaShiftInGState */
SDB[ ]\011/* SetDeltaBaseInGState */
DELTAP1[ ]\011/* DeltaExceptionP1 */
MDAP[1]\011/* MoveDirectAbsPt */
SHP[1]\011/* ShiftPointByLastPoint */
MDAP[1]\011/* MoveDirectAbsPt */
SDB[ ]\011/* SetDeltaBaseInGState */
DELTAP1[ ]\011/* DeltaExceptionP1 */
SLOOP[ ]\011/* SetLoopVariable */
SHP[1]\011/* ShiftPointByLastPoint */
MDAP[1]\011/* MoveDirectAbsPt */
DELTAP1[ ]\011/* DeltaExceptionP1 */
CALL[ ]\011/* CallFunction */
SVTCA[0]\011/* SetFreedomAndProjectionVectorToAxis */
RTG[ ]\011/* RoundToGrid */
MDAP[1]\011/* MoveDirectAbsPt */
SDS[ ]\011/* SetDeltaShiftInGState */
SDB[ ]\011/* SetDeltaBaseInGState */
DELTAP1[ ]\011/* DeltaExceptionP1 */
DELTAP2[ ]\011/* DeltaExceptionP2 */
SHP[1]\011/* ShiftPointByLastPoint */
IUP[1]\011/* InterpolateUntPts */
IUP[0]\011/* InterpolateUntPts */";
};
width = 1229;
}
);
note = cent;
unicode = 00A2;
},
{
glyphname = sterling;
lastChange = "2019-12-17 15:39:55 +0000";
layers = (
{
layerId = "90A2DC70-B0EC-4941-B875-3E2B1B2F3578";
paths = (
{
closed = 1;
nodes = (
"949 264 LINE",
"928 211 OFFCURVE",
"861 158 OFFCURVE",
"802 158 QCURVE SMOOTH",
"202 158 LINE",
"291 200 OFFCURVE",
"391 340 OFFCURVE",
"418 473 QCURVE SMOOTH",
"445 612 LINE",
"853 612 LINE",
"881 754 LINE",
"473 754 LINE",
"515 970 LINE SMOOTH",
"539 1095 OFFCURVE",
"681 1210 OFFCURVE",
"803 1210 QCURVE SMOOTH",
"881 1210 OFFCURVE",
"986 1146 OFFCURVE",
"996 1083 QCURVE",
"1181 1140 LINE",
"1168 1248 OFFCURVE",
"988 1370 OFFCURVE",
"834 1370 QCURVE SMOOTH",
"628 1370 OFFCURVE",
"373 1169 OFFCURVE",
"335 974 QCURVE SMOOTH",
"293 754 LINE",
"107 754 LINE",
"79 612 LINE",
"265 612 LINE",
"238 471 LINE SMOOTH",
"221 389 OFFCURVE",
"163 276 OFFCURVE",
"76 199 OFFCURVE",
"-19 154 QCURVE",
"-49 0 LINE",
"832 0 LINE SMOOTH",
"1018 0 OFFCURVE",
"1113 240 QCURVE"
);
}
);
userData = {
assembly = "NPUSHB[ ]\011/* 35 values pushed */
31 26 23 8 13 34 16 30 9 12 9 115 89 27 12 12 3 16 16 23 115 89 20 20 16 7 4 34 3 34 115 89 38 3 24 
SVTCA[0]\011/* SetFreedomAndProjectionVectorToAxis */
MIAP[1]\011/* MoveIndirectAbsPt */
SHP[1]\011/* ShiftPointByLastPoint */
CALL[ ]\011/* CallFunction */
SRP1[ ]\011/* SetRefPoint1 */
SVTCA[0]\011/* SetFreedomAndProjectionVectorToAxis */
SHP[1]\011/* ShiftPointByLastPoint */
RTG[ ]\011/* RoundToGrid */
MIAP[1]\011/* MoveIndirectAbsPt */
SHP[1]\011/* ShiftPointByLastPoint */
MDAP[1]\011/* MoveDirectAbsPt */
CALL[ ]\011/* CallFunction */
SRP1[ ]\011/* SetRefPoint1 */
SRP2[ ]\011/* SetRefPoint2 */
SVTCA[0]\011/* SetFreedomAndProjectionVectorToAxis */
IP[ ]\011/* InterpolatePts */
RTG[ ]\011/* RoundToGrid */
MDAP[1]\011/* MoveDirectAbsPt */
SHP[1]\011/* ShiftPointByLastPoint */
CALL[ ]\011/* CallFunction */
SRP1[ ]\011/* SetRefPoint1 */
SVTCA[0]\011/* SetFreedomAndProjectionVectorToAxis */
SHP[1]\011/* ShiftPointByLastPoint */
SRP1[ ]\011/* SetRefPoint1 */
SRP2[ ]\011/* SetRefPoint2 */
IP[ ]\011/* InterpolatePts */
IP[ ]\011/* InterpolatePts */
SRP1[ ]\011/* SetRefPoint1 */
IP[ ]\011/* InterpolatePts */
IP[ ]\011/* InterpolatePts */
IUP[1]\011/* InterpolateUntPts */
IUP[0]\011/* InterpolateUntPts */";
};
width = 1229;
}
);
note = sterling;
unicode = 00A3;
},
{
glyphname = section;
lastChange = "2019-12-17 15:39:55 +0000";
layers = (
{
layerId = "90A2DC70-B0EC-4941-B875-3E2B1B2F3578";
paths = (
{
closed = 1;
nodes = (
"663 1484 OFFCURVE",
"454 1398 OFFCURVE",
"340 1236 OFFCURVE",
"340 1145 QCURVE SMOOTH",
"340 1073 OFFCURVE",
"428 964 OFFCURVE",
"502 938 QCURVE",
"376 904 OFFCURVE",
"217 725 OFFCURVE",
"217 619 QCURVE SMOOTH",
"217 429 OFFCURVE",
"527 358 QCURVE",
"663 322 OFFCURVE",
"769 273 OFFCURVE",
"825 207 OFFCURVE",
"825 161 QCURVE SMOOTH",
"825 67 OFFCURVE",
"652 -52 OFFCURVE",
"506 -52 QCURVE SMOOTH",
"369 -52 OFFCURVE",
"243 35 OFFCURVE",
"240 131 QCURVE",
"73 100 LINE",
"82 -41 OFFCURVE",
"276 -172 OFFCURVE",
"483 -172 QCURVE SMOOTH",
"600 -172 OFFCURVE",
"788 -118 OFFCURVE",
"921 -15 OFFCURVE",
"991 129 OFFCURVE",
"991 201 QCURVE SMOOTH",
"991 272 OFFCURVE",
"908 373 OFFCURVE",
"824 413 QCURVE",
"902 430 OFFCURVE",
"1031 529 OFFCURVE",
"1101 669 OFFCURVE",
"1101 738 QCURVE SMOOTH",
"1101 804 OFFCURVE",
"1029 900 OFFCURVE",
"900 970 OFFCURVE",
"769 1003 QCURVE SMOOTH",
"614 1041 OFFCURVE",
"504 1122 OFFCURVE",
"504 1176 QCURVE SMOOTH",
"504 1257 OFFCURVE",
"656 1364 OFFCURVE",
"792 1364 QCURVE SMOOTH",
"899 1364 OFFCURVE",
"1013 1284 OFFCURVE",
"1013 1209 QCURVE SMOOTH",
"1013 1204 LINE",
"1178 1224 LINE",
"1176 1350 OFFCURVE",
"988 1484 OFFCURVE",
"815 1484 QCURVE SMOOTH"
);
},
{
closed = 1;
nodes = (
"936 632 OFFCURVE",
"861 531 OFFCURVE",
"729 477 OFFCURVE",
"643 475 QCURVE",
"530 505 OFFCURVE",
"431 554 OFFCURVE",
"382 617 OFFCURVE",
"382 655 QCURVE SMOOTH",
"382 708 OFFCURVE",
"452 814 OFFCURVE",
"581 876 OFFCURVE",
"661 880 QCURVE",
"815 843 OFFCURVE",
"937 753 OFFCURVE",
"937 692 QCURVE SMOOTH"
);
}
);
userData = {
assembly = "NPUSHB[ ]\011/* 37 values pushed */
44 22 67 49 14 59 67 59 67 59 30 0 30 37 81 89 0 34 16 34 2 17 3 34 34 30 0 8 81 89 32 4 1 4 4 0 0 
SVTCA[0]\011/* SetFreedomAndProjectionVectorToAxis */
MIAP[1]\011/* MoveIndirectAbsPt */
SHP[0]\011/* ShiftPointByLastPoint */
MDAP[1]\011/* MoveDirectAbsPt */
DELTAP1[ ]\011/* DeltaExceptionP1 */
CALL[ ]\011/* CallFunction */
SVTCA[0]\011/* SetFreedomAndProjectionVectorToAxis */
RTG[ ]\011/* RoundToGrid */
MDAP[1]\011/* MoveDirectAbsPt */
SHP[1]\011/* ShiftPointByLastPoint */
MDAP[1]\011/* MoveDirectAbsPt */
SDS[ ]\011/* SetDeltaShiftInGState */
SDB[ ]\011/* SetDeltaBaseInGState */
DELTAP1[ ]\011/* DeltaExceptionP1 */
CALL[ ]\011/* CallFunction */
SRP1[ ]\011/* SetRefPoint1 */
SRP2[ ]\011/* SetRefPoint2 */
SVTCA[0]\011/* SetFreedomAndProjectionVectorToAxis */
IP[ ]\011/* InterpolatePts */
IP[ ]\011/* InterpolatePts */
RTG[ ]\011/* RoundToGrid */
MDAP[1]\011/* MoveDirectAbsPt */
MDAP[1]\011/* MoveDirectAbsPt */
SRP1[ ]\011/* SetRefPoint1 */
SHP[1]\011/* ShiftPointByLastPoint */
SHP[1]\011/* ShiftPointByLastPoint */
SRP1[ ]\011/* SetRefPoint1 */
SHP[1]\011/* ShiftPointByLastPoint */
SHP[1]\011/* ShiftPointByLastPoint */
IUP[1]\011/* InterpolateUntPts */
IUP[0]\011/* InterpolateUntPts */";
};
width = 1229;
}
);
note = section;
unicode = 00A7;
},
{
glyphname = bullet;
lastChange = "2019-12-17 15:39:55 +0000";
layers = (
{
layerId = "90A2DC70-B0EC-4941-B875-3E2B1B2F3578";
paths = (
{
closed = 1;
nodes = (
"664 401 OFFCURVE",
"823 492 OFFCURVE",
"924 647 OFFCURVE",
"924 733 QCURVE SMOOTH",
"924 829 OFFCURVE",
"793 956 OFFCURVE",
"691 956 QCURVE SMOOTH",
"610 956 OFFCURVE",
"454 866 OFFCURVE",
"359 714 OFFCURVE",
"359 627 QCURVE SMOOTH",
"359 528 OFFCURVE",
"487 401 OFFCURVE",
"583 401 QCURVE SMOOTH"
);
}
);
userData = {
assembly = "PUSHB[ ]\011/* 2 values pushed */
0 7 
SVTCA[0]\011/* SetFreedomAndProjectionVectorToAxis */
MDAP[1]\011/* MoveDirectAbsPt */
MDRP[01101]\011/* MoveDirectRelPt */
IUP[1]\011/* InterpolateUntPts */
IUP[0]\011/* InterpolateUntPts */";
};
width = 1229;
}
);
note = bullet;
unicode = 2022;
},
{
glyphname = paragraph;
lastChange = "2019-12-17 15:39:55 +0000";
layers = (
{
layerId = "90A2DC70-B0EC-4941-B875-3E2B1B2F3578";
paths = (
{
closed = 1;
nodes = (
"1214 1227 LINE",
"1237 1349 LINE",
"654 1349 LINE SMOOTH",
"523 1349 OFFCURVE",
"319 1234 OFFCURVE",
"205 1019 OFFCURVE",
"205 898 QCURVE SMOOTH",
"205 773 OFFCURVE",
"361 634 OFFCURVE",
"507 634 QCURVE",
"321 -324 LINE",
"454 -324 LINE",
"756 1227 LINE",
"953 1227 LINE",
"651 -324 LINE",
"783 -324 LINE",
"1085 1227 LINE"
);
}
);
userData = {
assembly = "NPUSHB[ ]\011/* 18 values pushed */
7 7 15 1 4 3 0 15 0 81 89 15 3 2 5 6 3 1 
SVTCA[0]\011/* SetFreedomAndProjectionVectorToAxis */
MDAP[1]\011/* MoveDirectAbsPt */
SLOOP[ ]\011/* SetLoopVariable */
SHP[1]\011/* ShiftPointByLastPoint */
MIAP[1]\011/* MoveIndirectAbsPt */
CALL[ ]\011/* CallFunction */
SRP1[ ]\011/* SetRefPoint1 */
SVTCA[0]\011/* SetFreedomAndProjectionVectorToAxis */
SHP[1]\011/* ShiftPointByLastPoint */
SHP[1]\011/* ShiftPointByLastPoint */
SRP1[ ]\011/* SetRefPoint1 */
SRP2[ ]\011/* SetRefPoint2 */
IP[ ]\011/* InterpolatePts */
RTG[ ]\011/* RoundToGrid */
MDAP[1]\011/* MoveDirectAbsPt */
IUP[1]\011/* InterpolateUntPts */
IUP[0]\011/* InterpolateUntPts */";
};
width = 1229;
}
);
note = paragraph;
unicode = 00B6;
},
{
glyphname = germandbls;
lastChange = "2019-12-17 15:39:55 +0000";
layers = (
{
layerId = "90A2DC70-B0EC-4941-B875-3E2B1B2F3578";
paths = (
{
closed = 1;
nodes = (
"828 -29 OFFCURVE",
"1023 76 OFFCURVE",
"1126 267 OFFCURVE",
"1126 362 QCURVE SMOOTH",
"1126 506 OFFCURVE",
"976 615 QCURVE SMOOTH",
"900 670 OFFCURVE",
"845 738 OFFCURVE",
"845 771 QCURVE",
"847 791 LINE",
"854 826 OFFCURVE",
"912 889 OFFCURVE",
"991 948 QCURVE SMOOTH",
"1121 1047 OFFCURVE",
"1150 1187 QCURVE",
"1155 1239 LINE",
"1155 1354 OFFCURVE",
"961 1484 OFFCURVE",
"792 1484 QCURVE SMOOTH",
"561 1484 OFFCURVE",
"281 1255 OFFCURVE",
"237 1027 QCURVE SMOOTH",
"37 0 LINE",
"217 0 LINE",
"415 1021 LINE SMOOTH",
"447 1184 OFFCURVE",
"619 1343 OFFCURVE",
"765 1343 QCURVE SMOOTH",
"863 1343 OFFCURVE",
"978 1267 OFFCURVE",
"978 1202 QCURVE",
"975 1173 LINE",
"966 1124 OFFCURVE",
"899 1042 OFFCURVE",
"829 991 QCURVE SMOOTH",
"700 899 OFFCURVE",
"678 785 QCURVE SMOOTH",
"672 757 OFFCURVE",
"672 731 QCURVE SMOOTH",
"672 668 OFFCURVE",
"742 567 OFFCURVE",
"811 519 QCURVE SMOOTH",
"887 467 OFFCURVE",
"950 380 OFFCURVE",
"950 328 QCURVE SMOOTH",
"950 238 OFFCURVE",
"826 115 OFFCURVE",
"722 115 QCURVE SMOOTH",
"654 115 OFFCURVE",
"506 151 OFFCURVE",
"455 184 QCURVE",
"425 20 LINE",
"529 -29 OFFCURVE",
"698 -29 QCURVE SMOOTH"
);
}
);
userData = {
assembly = "NPUSHB[ ]\011/* 24 values pushed */
29 26 31 35 26 80 89 9 44 32 22 4 0 35 0 30 31 21 0 6 80 89 0 22 
SVTCA[0]\011/* SetFreedomAndProjectionVectorToAxis */
MIAP[1]\011/* MoveIndirectAbsPt */
CALL[ ]\011/* CallFunction */
SVTCA[0]\011/* SetFreedomAndProjectionVectorToAxis */
RTG[ ]\011/* RoundToGrid */
MIAP[1]\011/* MoveIndirectAbsPt */
SHP[1]\011/* ShiftPointByLastPoint */
MIAP[1]\011/* MoveIndirectAbsPt */
SRP2[ ]\011/* SetRefPoint2 */
SLOOP[ ]\011/* SetLoopVariable */
IP[ ]\011/* InterpolatePts */
CALL[ ]\011/* CallFunction */
SRP1[ ]\011/* SetRefPoint1 */
SRP2[ ]\011/* SetRefPoint2 */
SVTCA[0]\011/* SetFreedomAndProjectionVectorToAxis */
IP[ ]\011/* InterpolatePts */
IUP[1]\011/* InterpolateUntPts */
IUP[0]\011/* InterpolateUntPts */";
};
width = 1229;
}
);
note = germandbls;
unicode = 00DF;
},
{
glyphname = registered;
lastChange = "2019-12-17 15:39:55 +0000";
layers = (
{
layerId = "90A2DC70-B0EC-4941-B875-3E2B1B2F3578";
paths = (
{
closed = 1;
nodes = (
"1197 989 OFFCURVE",
"1055 1314 OFFCURVE",
"790 1484 OFFCURVE",
"614 1484 QCURVE SMOOTH",
"438 1484 OFFCURVE",
"173 1313 OFFCURVE",
"31 987 OFFCURVE",
"31 761 QCURVE SMOOTH",
"31 535 OFFCURVE",
"174 209 OFFCURVE",
"437 38 OFFCURVE",
"614 38 QCURVE SMOOTH",
"791 38 OFFCURVE",
"1055 207 OFFCURVE",
"1197 534 OFFCURVE",
"1197 761 QCURVE SMOOTH"
);
},
{
closed = 1;
nodes = (
"1105 460 OFFCURVE",
"847 132 OFFCURVE",
"614 132 QCURVE SMOOTH",
"381 132 OFFCURVE",
"126 462 OFFCURVE",
"126 761 QCURVE SMOOTH",
"126 961 OFFCURVE",
"244 1244 OFFCURVE",
"463 1389 OFFCURVE",
"614 1389 QCURVE SMOOTH",
"845 1389 OFFCURVE",
"1105 1062 OFFCURVE",
"1105 761 QCURVE SMOOTH"
);
},
{
closed = 1;
nodes = (
"960 343 LINE",
"739 693 LINE",
"824 712 OFFCURVE",
"928 835 OFFCURVE",
"928 937 QCURVE SMOOTH",
"928 1048 OFFCURVE",
"777 1174 OFFCURVE",
"635 1174 QCURVE SMOOTH",
"328 1174 LINE",
"328 343 LINE",
"455 343 LINE",
"455 679 LINE",
"616 679 LINE",
"815 343 LINE"
);
},
{
closed = 1;
nodes = (
"801 860 OFFCURVE",
"717 775 OFFCURVE",
"637 775 QCURVE SMOOTH",
"455 775 LINE",
"455 1076 LINE",
"625 1076 LINE SMOOTH",
"706 1076 OFFCURVE",
"801 1004 OFFCURVE",
"801 935 QCURVE SMOOTH"
);
}
);
userData = {
assembly = "NPUSHB[ ]\011/* 45 values pushed */
29 33 41 31 48 31 200 89 34 47 200 89 0 34 16 34 2 15 33 31 33 2 9 3 33 48 34 34 48 33 3 4 12 12 19 200 89 12 0 4 26 200 89 4 208 
SVTCA[0]\011/* SetFreedomAndProjectionVectorToAxis */
MIAP[1]\011/* MoveIndirectAbsPt */
CALL[ ]\011/* CallFunction */
SVTCA[0]\011/* SetFreedomAndProjectionVectorToAxis */
RTG[ ]\011/* RoundToGrid */
MIAP[1]\011/* MoveIndirectAbsPt */
CALL[ ]\011/* CallFunction */
SRP1[ ]\011/* SetRefPoint1 */
SRP2[ ]\011/* SetRefPoint2 */
SVTCA[0]\011/* SetFreedomAndProjectionVectorToAxis */
SLOOP[ ]\011/* SetLoopVariable */
IP[ ]\011/* InterpolatePts */
RTG[ ]\011/* RoundToGrid */
MDAP[1]\011/* MoveDirectAbsPt */
MDAP[1]\011/* MoveDirectAbsPt */
MDAP[1]\011/* MoveDirectAbsPt */
SDS[ ]\011/* SetDeltaShiftInGState */
SDB[ ]\011/* SetDeltaBaseInGState */
DELTAP1[ ]\011/* DeltaExceptionP1 */
DELTAP1[ ]\011/* DeltaExceptionP1 */
CALL[ ]\011/* CallFunction */
CALL[ ]\011/* CallFunction */
SRP1[ ]\011/* SetRefPoint1 */
SVTCA[0]\011/* SetFreedomAndProjectionVectorToAxis */
SHP[1]\011/* ShiftPointByLastPoint */
SRP1[ ]\011/* SetRefPoint1 */
SHP[1]\011/* ShiftPointByLastPoint */
IUP[1]\011/* InterpolateUntPts */
IUP[0]\011/* InterpolateUntPts */";
};
width = 1229;
}
);
note = registered;
unicode = 00AE;
},
{
glyphname = copyright;
lastChange = "2019-12-17 15:39:55 +0000";
layers = (
{
layerId = "90A2DC70-B0EC-4941-B875-3E2B1B2F3578";
paths = (
{
closed = 1;
nodes = (
"398 921 OFFCURVE",
"510 1082 OFFCURVE",
"617 1082 QCURVE SMOOTH",
"681 1082 OFFCURVE",
"778 1012 OFFCURVE",
"804 945 QCURVE",
"918 978 LINE",
"832 1187 OFFCURVE",
"615 1187 QCURVE SMOOTH",
"447 1187 OFFCURVE",
"269 965 OFFCURVE",
"269 763 QCURVE SMOOTH",
"269 560 OFFCURVE",
"454 333 OFFCURVE",
"622 333 QCURVE SMOOTH",
"728 333 OFFCURVE",
"881 440 OFFCURVE",
"933 558 QCURVE",
"818 593 LINE",
"783 511 OFFCURVE",
"687 437 OFFCURVE",
"622 437 QCURVE SMOOTH",
"516 437 OFFCURVE",
"398 610 OFFCURVE",
"398 763 QCURVE SMOOTH"
);
},
{
closed = 1;
nodes = (
"1197 989 OFFCURVE",
"1055 1314 OFFCURVE",
"790 1484 OFFCURVE",
"614 1484 QCURVE SMOOTH",
"438 1484 OFFCURVE",
"173 1313 OFFCURVE",
"31 987 OFFCURVE",
"31 761 QCURVE SMOOTH",
"31 535 OFFCURVE",
"174 209 OFFCURVE",
"437 38 OFFCURVE",
"614 38 QCURVE SMOOTH",
"791 38 OFFCURVE",
"1055 207 OFFCURVE",
"1197 534 OFFCURVE",
"1197 761 QCURVE SMOOTH"
);
},
{
closed = 1;
nodes = (
"1105 460 OFFCURVE",
"847 132 OFFCURVE",
"614 132 QCURVE SMOOTH",
"381 132 OFFCURVE",
"126 462 OFFCURVE",
"126 761 QCURVE SMOOTH",
"126 961 OFFCURVE",
"244 1244 OFFCURVE",
"463 1389 OFFCURVE",
"614 1389 QCURVE SMOOTH",
"845 1389 OFFCURVE",
"1105 1062 OFFCURVE",
"1105 761 QCURVE SMOOTH"
);
}
);
userData = {
assembly = "NPUSHB[ ]\011/* 90 values pushed */
0 6 16 6 128 6 144 6 160 6 5 0 6 128 6 144 6 3 12 3 6 6 10 10 3 201 89 16 22 201 89 19 19 16 95 10 111 10 127 10 3 15 10 31 10 127 10 143 10 239 10 255 10 6 176 16 192 16 2 0 16 16 16 112 16 128 16 224 16 5 9 3 10 16 10 16 29 37 37 44 200 89 37 0 29 51 200 89 29 208 
SVTCA[0]\011/* SetFreedomAndProjectionVectorToAxis */
MIAP[1]\011/* MoveIndirectAbsPt */
CALL[ ]\011/* CallFunction */
SVTCA[0]\011/* SetFreedomAndProjectionVectorToAxis */
RTG[ ]\011/* RoundToGrid */
MIAP[1]\011/* MoveIndirectAbsPt */
CALL[ ]\011/* CallFunction */
SRP1[ ]\011/* SetRefPoint1 */
SRP2[ ]\011/* SetRefPoint2 */
SVTCA[0]\011/* SetFreedomAndProjectionVectorToAxis */
IP[ ]\011/* InterpolatePts */
IP[ ]\011/* InterpolatePts */
RTG[ ]\011/* RoundToGrid */
MDAP[1]\011/* MoveDirectAbsPt */
MDAP[1]\011/* MoveDirectAbsPt */
SDS[ ]\011/* SetDeltaShiftInGState */
SDB[ ]\011/* SetDeltaBaseInGState */
DELTAP1[ ]\011/* DeltaExceptionP1 */
DELTAP2[ ]\011/* DeltaExceptionP2 */
DELTAP1[ ]\011/* DeltaExceptionP1 */
DELTAP2[ ]\011/* DeltaExceptionP2 */
SRP1[ ]\011/* SetRefPoint1 */
SHP[1]\011/* ShiftPointByLastPoint */
MDAP[1]\011/* MoveDirectAbsPt */
CALL[ ]\011/* CallFunction */
CALL[ ]\011/* CallFunction */
SRP1[ ]\011/* SetRefPoint1 */
SVTCA[0]\011/* SetFreedomAndProjectionVectorToAxis */
SHP[1]\011/* ShiftPointByLastPoint */
RTG[ ]\011/* RoundToGrid */
MDAP[1]\011/* MoveDirectAbsPt */
SDS[ ]\011/* SetDeltaShiftInGState */
SDB[ ]\011/* SetDeltaBaseInGState */
DELTAP1[ ]\011/* DeltaExceptionP1 */
DELTAP2[ ]\011/* DeltaExceptionP2 */
IUP[1]\011/* InterpolateUntPts */
IUP[0]\011/* InterpolateUntPts */";
};
width = 1229;
}
);
note = copyright;
unicode = 00A9;
},
{
glyphname = trademark;
lastChange = "2019-12-17 15:39:55 +0000";
layers = (
{
layerId = "90A2DC70-B0EC-4941-B875-3E2B1B2F3578";
paths = (
{
closed = 1;
nodes = (
"1224 842 LINE",
"1224 1483 LINE",
"1072 1483 LINE",
"933 1141 LINE",
"872 983 LINE",
"859 1018 LINE",
"675 1483 LINE",
"519 1483 LINE",
"519 842 LINE",
"624 842 LINE",
"624 1354 LINE",
"671 1230 OFFCURVE",
"824 842 QCURVE",
"913 842 LINE",
"1113 1336 LINE",
"1119 1354 LINE",
"1119 842 LINE"
);
},
{
closed = 1;
nodes = (
"461 1391 LINE",
"461 1483 LINE",
"4 1483 LINE",
"4 1391 LINE",
"175 1391 LINE",
"175 842 LINE",
"286 842 LINE",
"286 1391 LINE"
);
}
);
userData = {
assembly = "NPUSHB[ ]\011/* 34 values pushed */
21 19 14 17 21 22 21 200 89 1 6 9 14 6 3 22 0 15 12 31 12 2 15 4 31 4 2 0 4 8 12 4 19 209 
SVTCA[0]\011/* SetFreedomAndProjectionVectorToAxis */
MIAP[1]\011/* MoveIndirectAbsPt */
SLOOP[ ]\011/* SetLoopVariable */
SHP[1]\011/* ShiftPointByLastPoint */
DELTAP1[ ]\011/* DeltaExceptionP1 */
DELTAP1[ ]\011/* DeltaExceptionP1 */
MIAP[1]\011/* MoveIndirectAbsPt */
SLOOP[ ]\011/* SetLoopVariable */
SHP[1]\011/* ShiftPointByLastPoint */
SRP1[ ]\011/* SetRefPoint1 */
SHP[1]\011/* ShiftPointByLastPoint */
CALL[ ]\011/* CallFunction */
SRP1[ ]\011/* SetRefPoint1 */
SVTCA[0]\011/* SetFreedomAndProjectionVectorToAxis */
SHP[1]\011/* ShiftPointByLastPoint */
CALL[ ]\011/* CallFunction */
IUP[1]\011/* InterpolateUntPts */
IUP[0]\011/* InterpolateUntPts */";
};
width = 1229;
}
);
note = trademark;
unicode = 2122;
},
{
glyphname = acute;
lastChange = "2019-12-17 15:39:55 +0000";
layers = (
{
layerId = "90A2DC70-B0EC-4941-B875-3E2B1B2F3578";
paths = (
{
closed = 1;
nodes = (
"654 1201 LINE",
"999 1431 LINE",
"1005 1460 LINE",
"808 1460 LINE",
"534 1221 LINE",
"530 1201 LINE"
);
}
);
userData = {
assembly = "PUSHB[ ]\011/* 6 values pushed */
5 2 140 91 5 147 
SVTCA[0]\011/* SetFreedomAndProjectionVectorToAxis */
MIAP[1]\011/* MoveIndirectAbsPt */
CALL[ ]\011/* CallFunction */
IUP[1]\011/* InterpolateUntPts */
IUP[0]\011/* InterpolateUntPts */";
};
width = 1229;
}
);
note = acute;
unicode = 00B4;
},
{
glyphname = dieresis;
lastChange = "2019-12-17 15:39:55 +0000";
layers = (
{
layerId = "90A2DC70-B0EC-4941-B875-3E2B1B2F3578";
paths = (
{
closed = 1;
nodes = (
"1024 1219 LINE",
"1060 1403 LINE",
"897 1403 LINE",
"861 1219 LINE"
);
},
{
closed = 1;
nodes = (
"632 1219 LINE",
"668 1403 LINE",
"503 1403 LINE",
"467 1219 LINE"
);
}
);
userData = {
assembly = "NPUSHB[ ]\011/* 9 values pushed */
5 1 0 1 144 91 4 0 148 
SVTCA[0]\011/* SetFreedomAndProjectionVectorToAxis */
MIAP[1]\011/* MoveIndirectAbsPt */
SHP[0]\011/* ShiftPointByLastPoint */
CALL[ ]\011/* CallFunction */
SRP1[ ]\011/* SetRefPoint1 */
SVTCA[0]\011/* SetFreedomAndProjectionVectorToAxis */
SHP[1]\011/* ShiftPointByLastPoint */
IUP[1]\011/* InterpolateUntPts */
IUP[0]\011/* InterpolateUntPts */";
};
width = 1229;
}
);
note = dieresis;
unicode = 00A8;
},
{
glyphname = notequal;
lastChange = "2019-12-17 15:39:55 +0000";
layers = (
{
layerId = "90A2DC70-B0EC-4941-B875-3E2B1B2F3578";
paths = (
{
closed = 1;
nodes = (
"1111 344 LINE",
"1111 492 LINE",
"570 492 LINE",
"761 856 LINE",
"1111 856 LINE",
"1111 1004 LINE",
"834 1004 LINE",
"986 1296 LINE",
"843 1296 LINE",
"689 1004 LINE",
"116 1004 LINE",
"116 856 LINE",
"617 856 LINE",
"427 492 LINE",
"116 492 LINE",
"116 344 LINE",
"353 344 LINE",
"202 55 LINE",
"347 55 LINE",
"499 344 LINE"
);
}
);
userData = {
assembly = "NPUSHB[ ]\011/* 62 values pushed */
16 8 9 8 173 89 13 11 48 9 80 9 96 9 112 9 4 80 9 112 9 128 9 176 9 208 9 5 15 9 1 9 3 9 17 5 4 5 173 89 2 0 31 4 127 4 159 4 175 4 191 4 5 63 4 1 4 64 18 22 72 4 
SVTCA[0]\011/* SetFreedomAndProjectionVectorToAxis */
MDAP[1]\011/* MoveDirectAbsPt */
CALL[ ]\011/* CallFunction */
DELTAP1[ ]\011/* DeltaExceptionP1 */
DELTAP2[ ]\011/* DeltaExceptionP2 */
SHP[1]\011/* ShiftPointByLastPoint */
MDRP[00110]\011/* MoveDirectRelPt */
CALL[ ]\011/* CallFunction */
SRP1[ ]\011/* SetRefPoint1 */
SVTCA[0]\011/* SetFreedomAndProjectionVectorToAxis */
SHP[1]\011/* ShiftPointByLastPoint */
RTG[ ]\011/* RoundToGrid */
MDAP[1]\011/* MoveDirectAbsPt */
SDS[ ]\011/* SetDeltaShiftInGState */
SDB[ ]\011/* SetDeltaBaseInGState */
DELTAP1[ ]\011/* DeltaExceptionP1 */
DELTAP1[ ]\011/* DeltaExceptionP1 */
DELTAP2[ ]\011/* DeltaExceptionP2 */
MDRP[00110]\011/* MoveDirectRelPt */
SHP[1]\011/* ShiftPointByLastPoint */
CALL[ ]\011/* CallFunction */
SRP1[ ]\011/* SetRefPoint1 */
SVTCA[0]\011/* SetFreedomAndProjectionVectorToAxis */
SHP[1]\011/* ShiftPointByLastPoint */
IUP[1]\011/* InterpolateUntPts */
IUP[0]\011/* InterpolateUntPts */";
};
width = 1229;
}
);
note = notequal;
unicode = 2260;
},
{
glyphname = AE;
lastChange = "2019-12-17 15:39:55 +0000";
layers = (
{
layerId = "90A2DC70-B0EC-4941-B875-3E2B1B2F3578";
paths = (
{
closed = 1;
nodes = (
"541 0 LINE",
"1090 0 LINE",
"1120 152 LINE",
"742 152 LINE",
"832 617 LINE",
"1159 617 LINE",
"1188 767 LINE",
"861 767 LINE",
"945 1197 LINE",
"1282 1197 LINE",
"1311 1349 LINE",
"644 1349 LINE",
"-104 0 LINE",
"64 0 LINE",
"286 412 LINE",
"621 412 LINE"
);
},
{
closed = 1;
nodes = (
"650 561 LINE",
"366 561 LINE",
"583 962 LINE",
"702 1202 LINE",
"775 1202 LINE"
);
}
);
userData = {
assembly = "NPUSHB[ ]\011/* 44 values pushed */
0 1 19 1 95 89 20 19 8 11 95 89 28 8 1 3 13 8 1 19 4 19 8 19 8 15 4 7 17 4 17 96 89 4 3 2 3 15 15 12 95 89 15 18 
SVTCA[0]\011/* SetFreedomAndProjectionVectorToAxis */
MIAP[1]\011/* MoveIndirectAbsPt */
CALL[ ]\011/* CallFunction */
SRP1[ ]\011/* SetRefPoint1 */
SVTCA[0]\011/* SetFreedomAndProjectionVectorToAxis */
SHP[1]\011/* ShiftPointByLastPoint */
SHP[1]\011/* ShiftPointByLastPoint */
RTG[ ]\011/* RoundToGrid */
MIAP[1]\011/* MoveIndirectAbsPt */
CALL[ ]\011/* CallFunction */
SRP1[ ]\011/* SetRefPoint1 */
SVTCA[0]\011/* SetFreedomAndProjectionVectorToAxis */
SHP[1]\011/* ShiftPointByLastPoint */
SRP1[ ]\011/* SetRefPoint1 */
SRP2[ ]\011/* SetRefPoint2 */
IP[ ]\011/* InterpolatePts */
IP[ ]\011/* InterpolatePts */
RTG[ ]\011/* RoundToGrid */
MDAP[1]\011/* MoveDirectAbsPt */
MDAP[1]\011/* MoveDirectAbsPt */
SDS[ ]\011/* SetDeltaShiftInGState */
SDB[ ]\011/* SetDeltaBaseInGState */
DELTAP1[ ]\011/* DeltaExceptionP1 */
SDS[ ]\011/* SetDeltaShiftInGState */
DELTAP1[ ]\011/* DeltaExceptionP1 */
CALL[ ]\011/* CallFunction */
SRP1[ ]\011/* SetRefPoint1 */
SVTCA[0]\011/* SetFreedomAndProjectionVectorToAxis */
SHP[1]\011/* ShiftPointByLastPoint */
CALL[ ]\011/* CallFunction */
SRP1[ ]\011/* SetRefPoint1 */
SVTCA[0]\011/* SetFreedomAndProjectionVectorToAxis */
SHP[1]\011/* ShiftPointByLastPoint */
IUP[1]\011/* InterpolateUntPts */
IUP[0]\011/* InterpolateUntPts */";
};
width = 1229;
}
);
note = AE;
unicode = 00C6;
},
{
glyphname = Oslash;
lastChange = "2019-12-17 15:39:55 +0000";
layers = (
{
layerId = "90A2DC70-B0EC-4941-B875-3E2B1B2F3578";
paths = (
{
closed = 1;
nodes = (
"654 -20 OFFCURVE",
"902 119 OFFCURVE",
"1082 392 OFFCURVE",
"1180 773 OFFCURVE",
"1180 927 QCURVE SMOOTH",
"1180 1050 OFFCURVE",
"1147 1140 QCURVE",
"1323 1327 LINE",
"1242 1392 LINE",
"1095 1236 LINE",
"994 1370 OFFCURVE",
"776 1370 QCURVE SMOOTH",
"620 1370 OFFCURVE",
"376 1237 OFFCURVE",
"201 972 OFFCURVE",
"102 590 OFFCURVE",
"102 429 QCURVE SMOOTH",
"102 307 OFFCURVE",
"134 216 QCURVE",
"-44 27 LINE",
"38 -38 LINE",
"185 118 LINE",
"284 -20 OFFCURVE",
"504 -20 QCURVE SMOOTH"
);
},
{
closed = 1;
nodes = (
"978 794 OFFCURVE",
"904 463 OFFCURVE",
"787 239 OFFCURVE",
"635 135 OFFCURVE",
"535 135 QCURVE SMOOTH",
"383 135 OFFCURVE",
"331 273 QCURVE",
"976 959 LINE",
"978 908 LINE SMOOTH"
);
},
{
closed = 1;
nodes = (
"305 617 OFFCURVE",
"420 1018 OFFCURVE",
"611 1214 OFFCURVE",
"746 1214 QCURVE SMOOTH",
"899 1214 OFFCURVE",
"951 1083 QCURVE",
"306 399 LINE",
"305 410 OFFCURVE",
"305 445 QCURVE SMOOTH"
);
}
);
userData = {
assembly = "NPUSHB[ ]\011/* 27 values pushed */
26 35 25 36 4 38 28 12 38 95 89 14 17 5 2 4 0 15 12 4 0 28 95 89 3 0 19 
SVTCA[0]\011/* SetFreedomAndProjectionVectorToAxis */
MIAP[1]\011/* MoveIndirectAbsPt */
MDRP[00110]\011/* MoveDirectRelPt */
CALL[ ]\011/* CallFunction */
SVTCA[0]\011/* SetFreedomAndProjectionVectorToAxis */
RTG[ ]\011/* RoundToGrid */
MIAP[1]\011/* MoveIndirectAbsPt */
MDRP[00110]\011/* MoveDirectRelPt */
SRP2[ ]\011/* SetRefPoint2 */
SLOOP[ ]\011/* SetLoopVariable */
IP[ ]\011/* InterpolatePts */
CALL[ ]\011/* CallFunction */
SRP1[ ]\011/* SetRefPoint1 */
SRP2[ ]\011/* SetRefPoint2 */
SVTCA[0]\011/* SetFreedomAndProjectionVectorToAxis */
SLOOP[ ]\011/* SetLoopVariable */
IP[ ]\011/* InterpolatePts */
IUP[1]\011/* InterpolateUntPts */
IUP[0]\011/* InterpolateUntPts */";
};
width = 1229;
}
);
note = Oslash;
unicode = 00D8;
},
{
glyphname = infinity;
lastChange = "2019-12-17 15:39:55 +0000";
layers = (
{
layerId = "90A2DC70-B0EC-4941-B875-3E2B1B2F3578";
paths = (
{
closed = 1;
nodes = (
"1195 764 OFFCURVE",
"1042 977 OFFCURVE",
"915 977 QCURVE SMOOTH",
"741 977 OFFCURVE",
"611 700 QCURVE",
"496 983 OFFCURVE",
"313 983 QCURVE SMOOTH",
"190 983 OFFCURVE",
"29 767 OFFCURVE",
"29 596 QCURVE SMOOTH",
"29 421 OFFCURVE",
"187 209 OFFCURVE",
"313 209 QCURVE SMOOTH",
"395 209 OFFCURVE",
"553 359 OFFCURVE",
"609 485 QCURVE",
"728 203 OFFCURVE",
"913 203 QCURVE SMOOTH",
"1035 203 OFFCURVE",
"1195 424 OFFCURVE",
"1195 590 QCURVE SMOOTH"
);
},
{
closed = 1;
nodes = (
"962 846 OFFCURVE",
"1056 699 OFFCURVE",
"1056 592 QCURVE SMOOTH",
"1056 477 OFFCURVE",
"962 334 OFFCURVE",
"890 334 QCURVE SMOOTH",
"824 334 OFFCURVE",
"722 462 OFFCURVE",
"677 590 QCURVE",
"725 720 OFFCURVE",
"828 846 OFFCURVE",
"889 846 QCURVE SMOOTH"
);
},
{
closed = 1;
nodes = (
"451 340 OFFCURVE",
"334 340 QCURVE SMOOTH",
"261 340 OFFCURVE",
"169 479 OFFCURVE",
"169 594 QCURVE SMOOTH",
"169 706 OFFCURVE",
"261 852 OFFCURVE",
"332 852 QCURVE SMOOTH",
"399 852 OFFCURVE",
"502 724 OFFCURVE",
"546 596 QCURVE"
);
}
);
userData = {
assembly = "NPUSHB[ ]\011/* 40 values pushed */
21 36 14 36 173 89 24 33 5 33 16 3 8 18 14 27 42 8 42 173 89 3 63 8 95 8 255 8 3 8 64 27 44 72 8 64 18 22 72 8 
SVTCA[0]\011/* SetFreedomAndProjectionVectorToAxis */
MDAP[1]\011/* MoveDirectAbsPt */
CALL[ ]\011/* CallFunction */
CALL[ ]\011/* CallFunction */
DELTAP1[ ]\011/* DeltaExceptionP1 */
SHP[1]\011/* ShiftPointByLastPoint */
CALL[ ]\011/* CallFunction */
SRP1[ ]\011/* SetRefPoint1 */
SVTCA[0]\011/* SetFreedomAndProjectionVectorToAxis */
SHP[1]\011/* ShiftPointByLastPoint */
RTG[ ]\011/* RoundToGrid */
MDAP[1]\011/* MoveDirectAbsPt */
SHP[1]\011/* ShiftPointByLastPoint */
SRP2[ ]\011/* SetRefPoint2 */
SLOOP[ ]\011/* SetLoopVariable */
IP[ ]\011/* InterpolatePts */
SRP1[ ]\011/* SetRefPoint1 */
SHP[1]\011/* ShiftPointByLastPoint */
CALL[ ]\011/* CallFunction */
SRP1[ ]\011/* SetRefPoint1 */
SVTCA[0]\011/* SetFreedomAndProjectionVectorToAxis */
SHP[1]\011/* ShiftPointByLastPoint */
IUP[1]\011/* InterpolateUntPts */
IUP[0]\011/* InterpolateUntPts */";
};
width = 1229;
}
);
note = infinity;
unicode = 221E;
},
{
glyphname = plusminus;
lastChange = "2019-12-17 15:39:55 +0000";
layers = (
{
layerId = "90A2DC70-B0EC-4941-B875-3E2B1B2F3578";
paths = (
{
closed = 1;
nodes = (
"1111 680 LINE",
"1111 825 LINE",
"687 825 LINE",
"687 1219 LINE",
"540 1219 LINE",
"540 825 LINE",
"116 825 LINE",
"116 680 LINE",
"540 680 LINE",
"540 285 LINE",
"687 285 LINE",
"687 680 LINE"
);
},
{
closed = 1;
nodes = (
"1111 0 LINE",
"1111 145 LINE",
"116 145 LINE",
"116 0 LINE"
);
}
);
userData = {
assembly = "NPUSHB[ ]\011/* 43 values pushed */
4 2 14 12 13 173 89 12 4 2 14 89 7 5 14 15 7 1 15 7 31 7 95 7 111 7 175 7 191 7 6 17 3 7 5 0 4 5 4 173 89 9 5 
PUSHW[ ]\011/* 1 value pushed */
-64 
PUSHB[ ]\011/* 4 values pushed */
19 22 72 5 
SVTCA[0]\011/* SetFreedomAndProjectionVectorToAxis */
MDAP[1]\011/* MoveDirectAbsPt */
CALL[ ]\011/* CallFunction */
SHP[1]\011/* ShiftPointByLastPoint */
CALL[ ]\011/* CallFunction */
SRP1[ ]\011/* SetRefPoint1 */
SVTCA[0]\011/* SetFreedomAndProjectionVectorToAxis */
SHP[1]\011/* ShiftPointByLastPoint */
RTG[ ]\011/* RoundToGrid */
SRP0[ ]\011/* SetRefPoint0 */
MDRP[00110]\011/* MoveDirectRelPt */
SDS[ ]\011/* SetDeltaShiftInGState */
SDB[ ]\011/* SetDeltaBaseInGState */
DELTAP1[ ]\011/* DeltaExceptionP1 */
DELTAP2[ ]\011/* DeltaExceptionP2 */
CALL[ ]\011/* CallFunction */
CALL[ ]\011/* CallFunction */
SVTCA[0]\011/* SetFreedomAndProjectionVectorToAxis */
RTG[ ]\011/* RoundToGrid */
MDAP[1]\011/* MoveDirectAbsPt */
CALL[ ]\011/* CallFunction */
CALL[ ]\011/* CallFunction */
IUP[1]\011/* InterpolateUntPts */
IUP[0]\011/* InterpolateUntPts */";
};
width = 1229;
}
);
note = plusminus;
unicode = 00B1;
},
{
glyphname = lessequal;
lastChange = "2019-12-17 15:39:55 +0000";
layers = (
{
layerId = "90A2DC70-B0EC-4941-B875-3E2B1B2F3578";
paths = (
{
closed = 1;
nodes = (
"1112 236 LINE",
"1112 389 LINE",
"254 733 LINE",
"1112 1077 LINE",
"1112 1231 LINE",
"117 836 LINE",
"117 631 LINE"
);
},
{
closed = 1;
nodes = (
"1110 0 LINE",
"1110 145 LINE",
"115 145 LINE",
"115 0 LINE"
);
}
);
userData = {
assembly = "NPUSHB[ ]\011/* 42 values pushed */
7 8 173 89 7 1 0 4 4 2 5 208 6 1 47 6 63 6 207 6 3 6 3 176 2 192 2 2 143 2 1 112 2 1 15 2 79 2 95 2 3 2 
SVTCA[0]\011/* SetFreedomAndProjectionVectorToAxis */
MDAP[1]\011/* MoveDirectAbsPt */
DELTAP1[ ]\011/* DeltaExceptionP1 */
DELTAP1[ ]\011/* DeltaExceptionP1 */
DELTAP1[ ]\011/* DeltaExceptionP1 */
DELTAP1[ ]\011/* DeltaExceptionP1 */
SHP[1]\011/* ShiftPointByLastPoint */
MDAP[1]\011/* MoveDirectAbsPt */
DELTAP1[ ]\011/* DeltaExceptionP1 */
DELTAP1[ ]\011/* DeltaExceptionP1 */
SHP[1]\011/* ShiftPointByLastPoint */
SRP2[ ]\011/* SetRefPoint2 */
IP[ ]\011/* InterpolatePts */
RTDG[ ]\011/* RoundToDoubleGrid */
MDAP[1]\011/* MoveDirectAbsPt */
SHP[1]\011/* ShiftPointByLastPoint */
SHP[1]\011/* ShiftPointByLastPoint */
RTG[ ]\011/* RoundToGrid */
MDAP[1]\011/* MoveDirectAbsPt */
CALL[ ]\011/* CallFunction */
IUP[1]\011/* InterpolateUntPts */
IUP[0]\011/* InterpolateUntPts */";
};
width = 1229;
}
);
note = lessequal;
unicode = 2264;
},
{
glyphname = greaterequal;
lastChange = "2019-12-17 15:39:55 +0000";
layers = (
{
layerId = "90A2DC70-B0EC-4941-B875-3E2B1B2F3578";
paths = (
{
closed = 1;
nodes = (
"1111 631 LINE",
"1111 836 LINE",
"116 1231 LINE",
"116 1077 LINE",
"974 733 LINE",
"116 389 LINE",
"116 236 LINE"
);
},
{
closed = 1;
nodes = (
"1111 0 LINE",
"1111 145 LINE",
"116 145 LINE",
"116 0 LINE"
);
}
);
userData = {
assembly = "NPUSHB[ ]\011/* 41 values pushed */
7 8 173 89 7 6 5 2 2 3 176 4 192 4 2 143 4 1 112 4 1 15 4 79 4 95 4 3 4 1 208 0 1 47 0 63 0 207 0 3 0 
SVTCA[0]\011/* SetFreedomAndProjectionVectorToAxis */
MDAP[1]\011/* MoveDirectAbsPt */
DELTAP1[ ]\011/* DeltaExceptionP1 */
DELTAP1[ ]\011/* DeltaExceptionP1 */
SHP[0]\011/* ShiftPointByLastPoint */
MDAP[1]\011/* MoveDirectAbsPt */
DELTAP1[ ]\011/* DeltaExceptionP1 */
DELTAP1[ ]\011/* DeltaExceptionP1 */
DELTAP1[ ]\011/* DeltaExceptionP1 */
DELTAP1[ ]\011/* DeltaExceptionP1 */
SHP[1]\011/* ShiftPointByLastPoint */
IP[ ]\011/* InterpolatePts */
RTDG[ ]\011/* RoundToDoubleGrid */
MDAP[1]\011/* MoveDirectAbsPt */
SHP[1]\011/* ShiftPointByLastPoint */
SHP[1]\011/* ShiftPointByLastPoint */
RTG[ ]\011/* RoundToGrid */
MDAP[1]\011/* MoveDirectAbsPt */
CALL[ ]\011/* CallFunction */
IUP[1]\011/* InterpolateUntPts */
IUP[0]\011/* InterpolateUntPts */";
};
width = 1229;
}
);
note = greaterequal;
unicode = 2265;
},
{
glyphname = yen;
lastChange = "2019-12-17 15:39:55 +0000";
layers = (
{
layerId = "90A2DC70-B0EC-4941-B875-3E2B1B2F3578";
paths = (
{
closed = 1;
nodes = (
"1333 1349 LINE",
"1134 1349 LINE",
"649 732 LINE",
"408 1349 LINE",
"209 1349 LINE",
"490 679 LINE",
"170 679 LINE",
"142 537 LINE",
"525 537 LINE",
"497 400 LINE",
"116 400 LINE",
"88 256 LINE",
"469 256 LINE",
"419 0 LINE",
"597 0 LINE",
"647 256 LINE",
"1030 256 LINE",
"1058 400 LINE",
"675 400 LINE",
"701 537 LINE",
"1084 537 LINE",
"1112 679 LINE",
"791 679 LINE"
);
}
);
userData = {
assembly = "NPUSHB[ ]\011/* 42 values pushed */
7 10 13 10 96 89 4 13 3 14 17 14 96 89 20 0 17 0 13 1 240 13 1 127 13 143 13 2 13 17 13 17 8 19 21 22 3 18 3 9 8 18 
SVTCA[0]\011/* SetFreedomAndProjectionVectorToAxis */
MIAP[1]\011/* MoveIndirectAbsPt */
SHP[1]\011/* ShiftPointByLastPoint */
MIAP[1]\011/* MoveIndirectAbsPt */
SLOOP[ ]\011/* SetLoopVariable */
SHP[1]\011/* ShiftPointByLastPoint */
SRP2[ ]\011/* SetRefPoint2 */
IP[ ]\011/* InterpolatePts */
IP[ ]\011/* InterpolatePts */
MDAP[1]\011/* MoveDirectAbsPt */
MDAP[1]\011/* MoveDirectAbsPt */
DELTAP1[ ]\011/* DeltaExceptionP1 */
DELTAP1[ ]\011/* DeltaExceptionP1 */
DELTAP2[ ]\011/* DeltaExceptionP2 */
SRP1[ ]\011/* SetRefPoint1 */
SHP[1]\011/* ShiftPointByLastPoint */
SHP[1]\011/* ShiftPointByLastPoint */
CALL[ ]\011/* CallFunction */
SRP1[ ]\011/* SetRefPoint1 */
SVTCA[0]\011/* SetFreedomAndProjectionVectorToAxis */
SHP[1]\011/* ShiftPointByLastPoint */
SRP1[ ]\011/* SetRefPoint1 */
SHP[1]\011/* ShiftPointByLastPoint */
CALL[ ]\011/* CallFunction */
SRP1[ ]\011/* SetRefPoint1 */
SVTCA[0]\011/* SetFreedomAndProjectionVectorToAxis */
SHP[1]\011/* ShiftPointByLastPoint */
IUP[1]\011/* InterpolateUntPts */
IUP[0]\011/* InterpolateUntPts */";
};
width = 1229;
}
);
note = yen;
unicode = 00A5;
},
{
glyphname = mu1;
lastChange = "2019-12-17 15:39:55 +0000";
layers = (
{
layerId = "90A2DC70-B0EC-4941-B875-3E2B1B2F3578";
paths = (
{
closed = 1;
nodes = (
"979 0 LINE",
"979 7 OFFCURVE",
"987 56 OFFCURVE",
"998 123 OFFCURVE",
"1012 199 OFFCURVE",
"1018 233 QCURVE SMOOTH",
"1183 1082 LINE",
"1002 1082 LINE",
"882 465 LINE SMOOTH",
"854 315 OFFCURVE",
"640 121 OFFCURVE",
"509 121 QCURVE SMOOTH",
"294 121 OFFCURVE",
"294 331 QCURVE SMOOTH",
"294 368 OFFCURVE",
"306 438 QCURVE SMOOTH",
"431 1082 LINE",
"249 1082 LINE",
"-37 -393 LINE",
"145 -393 LINE",
"217 -20 LINE",
"237 102 LINE",
"241 102 LINE",
"262 44 OFFCURVE",
"377 -20 OFFCURVE",
"459 -20 QCURVE SMOOTH",
"687 -20 OFFCURVE",
"836 199 QCURVE",
"840 199 LINE",
"831 148 OFFCURVE",
"814 24 OFFCURVE",
"811 4 OFFCURVE",
"811 0 QCURVE"
);
}
);
userData = {
assembly = "NPUSHB[ ]\011/* 16 values pushed */
25 15 15 14 27 4 21 7 21 80 89 10 7 22 0 21 
SVTCA[0]\011/* SetFreedomAndProjectionVectorToAxis */
MIAP[1]\011/* MoveIndirectAbsPt */
MIAP[1]\011/* MoveIndirectAbsPt */
SHP[1]\011/* ShiftPointByLastPoint */
CALL[ ]\011/* CallFunction */
SRP1[ ]\011/* SetRefPoint1 */
SVTCA[0]\011/* SetFreedomAndProjectionVectorToAxis */
SHP[1]\011/* ShiftPointByLastPoint */
RTG[ ]\011/* RoundToGrid */
MIAP[1]\011/* MoveIndirectAbsPt */
MIAP[1]\011/* MoveIndirectAbsPt */
SHP[1]\011/* ShiftPointByLastPoint */
IUP[1]\011/* InterpolateUntPts */
IUP[0]\011/* InterpolateUntPts */";
};
width = 1229;
}
);
note = mu1;
unicode = 00B5;
},
{
glyphname = partialdiff;
lastChange = "2019-12-17 15:39:55 +0000";
layers = (
{
layerId = "90A2DC70-B0EC-4941-B875-3E2B1B2F3578";
paths = (
{
closed = 1;
nodes = (
"1123 1201 OFFCURVE",
"895 1477 OFFCURVE",
"685 1477 QCURVE SMOOTH",
"563 1477 OFFCURVE",
"439 1415 QCURVE",
"400 1268 LINE",
"452 1304 OFFCURVE",
"590 1343 OFFCURVE",
"650 1343 QCURVE SMOOTH",
"795 1343 OFFCURVE",
"941 1134 OFFCURVE",
"941 938 QCURVE SMOOTH",
"941 884 OFFCURVE",
"936 821 QCURVE",
"932 821 LINE",
"895 905 OFFCURVE",
"741 1004 OFFCURVE",
"641 1004 QCURVE SMOOTH",
"524 1004 OFFCURVE",
"329 904 OFFCURVE",
"189 725 OFFCURVE",
"105 474 OFFCURVE",
"105 356 QCURVE SMOOTH",
"105 174 OFFCURVE",
"301 -27 OFFCURVE",
"482 -27 QCURVE SMOOTH",
"627 -27 OFFCURVE",
"862 110 OFFCURVE",
"1031 377 OFFCURVE",
"1123 759 OFFCURVE",
"1123 938 QCURVE SMOOTH"
);
},
{
closed = 1;
nodes = (
"883 521 OFFCURVE",
"766 258 OFFCURVE",
"601 109 OFFCURVE",
"506 109 QCURVE SMOOTH",
"406 109 OFFCURVE",
"295 243 OFFCURVE",
"295 358 QCURVE SMOOTH",
"295 487 OFFCURVE",
"401 750 OFFCURVE",
"565 883 OFFCURVE",
"666 883 QCURVE SMOOTH",
"751 883 OFFCURVE",
"885 769 OFFCURVE",
"906 680 QCURVE"
);
}
);
userData = {
assembly = "NPUSHB[ ]\011/* 24 values pushed */
31 16 16 13 13 34 81 89 13 13 5 28 28 22 80 89 28 0 5 41 80 89 5 22 
SVTCA[0]\011/* SetFreedomAndProjectionVectorToAxis */
MIAP[1]\011/* MoveIndirectAbsPt */
CALL[ ]\011/* CallFunction */
SVTCA[0]\011/* SetFreedomAndProjectionVectorToAxis */
RTG[ ]\011/* RoundToGrid */
MIAP[1]\011/* MoveIndirectAbsPt */
CALL[ ]\011/* CallFunction */
SRP1[ ]\011/* SetRefPoint1 */
SRP2[ ]\011/* SetRefPoint2 */
SVTCA[0]\011/* SetFreedomAndProjectionVectorToAxis */
IP[ ]\011/* InterpolatePts */
RTG[ ]\011/* RoundToGrid */
MDAP[1]\011/* MoveDirectAbsPt */
CALL[ ]\011/* CallFunction */
SRP1[ ]\011/* SetRefPoint1 */
SVTCA[0]\011/* SetFreedomAndProjectionVectorToAxis */
SHP[1]\011/* ShiftPointByLastPoint */
SRP1[ ]\011/* SetRefPoint1 */
SHP[1]\011/* ShiftPointByLastPoint */
IUP[1]\011/* InterpolateUntPts */
IUP[0]\011/* InterpolateUntPts */";
};
width = 1229;
}
);
note = partialdiff;
unicode = 2202;
},
{
glyphname = summation;
lastChange = "2019-12-17 15:39:55 +0000";
layers = (
{
layerId = "90A2DC70-B0EC-4941-B875-3E2B1B2F3578";
paths = (
{
closed = 1;
nodes = (
"1201 -455 LINE",
"1201 -303 LINE",
"271 -303 LINE",
"871 458 LINE",
"287 1197 LINE",
"1133 1197 LINE",
"1133 1349 LINE",
"43 1349 LINE",
"43 1243 LINE",
"662 456 LINE",
"27 -346 LINE",
"27 -455 LINE"
);
}
);
userData = {
assembly = "NPUSHB[ ]\011/* 19 values pushed */
3 7 4 7 95 89 8 2 2 9 4 3 1 9 0 9 95 89 0 
SVTCA[0]\011/* SetFreedomAndProjectionVectorToAxis */
MDAP[1]\011/* MoveDirectAbsPt */
CALL[ ]\011/* CallFunction */
SRP1[ ]\011/* SetRefPoint1 */
SVTCA[0]\011/* SetFreedomAndProjectionVectorToAxis */
SHP[1]\011/* ShiftPointByLastPoint */
RTG[ ]\011/* RoundToGrid */
MIAP[1]\011/* MoveIndirectAbsPt */
SRP2[ ]\011/* SetRefPoint2 */
IP[ ]\011/* InterpolatePts */
RTHG[ ]\011/* RoundToHalfGrid */
MDAP[1]\011/* MoveDirectAbsPt */
SHP[1]\011/* ShiftPointByLastPoint */
CALL[ ]\011/* CallFunction */
SRP1[ ]\011/* SetRefPoint1 */
SVTCA[0]\011/* SetFreedomAndProjectionVectorToAxis */
SHP[1]\011/* ShiftPointByLastPoint */
IUP[1]\011/* InterpolateUntPts */
IUP[0]\011/* InterpolateUntPts */";
};
width = 1229;
}
);
note = summation;
unicode = 2211;
},
{
glyphname = product;
lastChange = "2019-12-17 15:39:55 +0000";
layers = (
{
layerId = "90A2DC70-B0EC-4941-B875-3E2B1B2F3578";
paths = (
{
closed = 1;
nodes = (
"1122 -455 LINE",
"1122 1349 LINE",
"105 1349 LINE",
"105 -455 LINE",
"296 -455 LINE",
"296 1187 LINE",
"938 1187 LINE",
"938 -455 LINE"
);
}
);
userData = {
assembly = "PUSHB[ ]\011/* 8 values pushed */
5 2 95 89 5 3 4 0 
SVTCA[0]\011/* SetFreedomAndProjectionVectorToAxis */
MDAP[1]\011/* MoveDirectAbsPt */
SHP[0]\011/* ShiftPointByLastPoint */
MIAP[1]\011/* MoveIndirectAbsPt */
CALL[ ]\011/* CallFunction */
IUP[1]\011/* InterpolateUntPts */
IUP[0]\011/* InterpolateUntPts */";
};
width = 1229;
}
);
note = product;
unicode = 220F;
},
{
glyphname = integral;
lastChange = "2019-12-17 15:39:55 +0000";
layers = (
{
layerId = "90A2DC70-B0EC-4941-B875-3E2B1B2F3578";
paths = (
{
closed = 1;
nodes = (
"944 1368 OFFCURVE",
"993 1341 QCURVE",
"993 1489 LINE",
"949 1507 OFFCURVE",
"862 1507 QCURVE SMOOTH",
"696 1507 OFFCURVE",
"522 1325 OFFCURVE",
"522 1153 QCURVE SMOOTH",
"522 -80 LINE SMOOTH",
"522 -313 OFFCURVE",
"352 -313 QCURVE SMOOTH",
"295 -313 OFFCURVE",
"235 -289 QCURVE",
"235 -436 LINE",
"290 -455 OFFCURVE",
"369 -455 QCURVE SMOOTH",
"532 -455 OFFCURVE",
"706 -272 OFFCURVE",
"706 -100 QCURVE SMOOTH",
"706 1135 LINE SMOOTH",
"706 1249 OFFCURVE",
"795 1368 OFFCURVE",
"878 1368 QCURVE SMOOTH"
);
}
);
userData = {
assembly = "NPUSHB[ ]\011/* 10 values pushed */
18 0 173 89 18 7 12 173 89 7 
SVTCA[0]\011/* SetFreedomAndProjectionVectorToAxis */
MDAP[1]\011/* MoveDirectAbsPt */
CALL[ ]\011/* CallFunction */
SVTCA[0]\011/* SetFreedomAndProjectionVectorToAxis */
RTG[ ]\011/* RoundToGrid */
MDAP[1]\011/* MoveDirectAbsPt */
CALL[ ]\011/* CallFunction */
IUP[1]\011/* InterpolateUntPts */
IUP[0]\011/* InterpolateUntPts */";
};
width = 1229;
}
);
note = integral;
unicode = 222B;
},
{
glyphname = ordfeminine;
lastChange = "2019-12-17 15:39:55 +0000";
layers = (
{
layerId = "90A2DC70-B0EC-4941-B875-3E2B1B2F3578";
paths = (
{
closed = 1;
nodes = (
"881 1191 OFFCURVE",
"867 1116 QCURVE",
"675 1112 LINE SMOOTH",
"318 1107 OFFCURVE",
"270 870 QCURVE SMOOTH",
"265 842 OFFCURVE",
"265 821 QCURVE SMOOTH",
"265 740 OFFCURVE",
"380 651 OFFCURVE",
"486 651 QCURVE SMOOTH",
"684 651 OFFCURVE",
"809 817 QCURVE",
"813 817 LINE",
"809 775 LINE",
"809 657 OFFCURVE",
"942 657 QCURVE SMOOTH",
"994 657 OFFCURVE",
"1046 670 QCURVE",
"1065 764 LINE",
"1038 756 OFFCURVE",
"1014 756 QCURVE SMOOTH",
"957 756 OFFCURVE",
"957 819 QCURVE SMOOTH",
"957 843 OFFCURVE",
"963 874 QCURVE SMOOTH",
"1019 1165 LINE SMOOTH",
"1026 1195 OFFCURVE",
"1026 1230 QCURVE SMOOTH",
"1026 1330 OFFCURVE",
"885 1432 OFFCURVE",
"752 1432 QCURVE SMOOTH",
"606 1432 OFFCURVE",
"406 1310 OFFCURVE",
"368 1206 QCURVE",
"515 1196 LINE",
"541 1273 OFFCURVE",
"647 1341 OFFCURVE",
"731 1341 QCURVE SMOOTH",
"881 1341 OFFCURVE",
"881 1212 QCURVE SMOOTH"
);
},
{
closed = 1;
nodes = (
"418 941 OFFCURVE",
"549 1027 OFFCURVE",
"696 1030 QCURVE SMOOTH",
"851 1034 LINE",
"841 983 LINE SMOOTH",
"831 929 OFFCURVE",
"743 820 OFFCURVE",
"615 752 OFFCURVE",
"546 752 QCURVE SMOOTH",
"478 752 OFFCURVE",
"418 815 OFFCURVE",
"418 860 QCURVE SMOOTH"
);
}
);
userData = {
assembly = "NPUSHB[ ]\011/* 21 values pushed */
5 5 38 9 38 48 231 89 38 38 9 30 27 19 43 30 43 228 89 24 30 
PUSHW[ ]\011/* 1 value pushed */
278 
PUSHB[ ]\011/* 5 values pushed */
9 2 230 89 9 
PUSHW[ ]\011/* 1 value pushed */
277 
SVTCA[0]\011/* SetFreedomAndProjectionVectorToAxis */
MIAP[1]\011/* MoveIndirectAbsPt */
CALL[ ]\011/* CallFunction */
SVTCA[0]\011/* SetFreedomAndProjectionVectorToAxis */
RTG[ ]\011/* RoundToGrid */
MIAP[1]\011/* MoveIndirectAbsPt */
SHP[1]\011/* ShiftPointByLastPoint */
CALL[ ]\011/* CallFunction */
SRP1[ ]\011/* SetRefPoint1 */
SVTCA[0]\011/* SetFreedomAndProjectionVectorToAxis */
SHP[1]\011/* ShiftPointByLastPoint */
SHP[1]\011/* ShiftPointByLastPoint */
SRP1[ ]\011/* SetRefPoint1 */
SRP2[ ]\011/* SetRefPoint2 */
IP[ ]\011/* InterpolatePts */
RTG[ ]\011/* RoundToGrid */
MDAP[1]\011/* MoveDirectAbsPt */
CALL[ ]\011/* CallFunction */
SRP1[ ]\011/* SetRefPoint1 */
SRP2[ ]\011/* SetRefPoint2 */
SVTCA[0]\011/* SetFreedomAndProjectionVectorToAxis */
IP[ ]\011/* InterpolatePts */
RTG[ ]\011/* RoundToGrid */
MDAP[1]\011/* MoveDirectAbsPt */
IUP[1]\011/* InterpolateUntPts */
IUP[0]\011/* InterpolateUntPts */";
};
width = 1229;
}
);
note = ordfeminine;
unicode = 00AA;
},
{
glyphname = ordmasculine;
lastChange = "2019-12-17 15:39:55 +0000";
layers = (
{
layerId = "90A2DC70-B0EC-4941-B875-3E2B1B2F3578";
paths = (
{
closed = 1;
nodes = (
"743 651 OFFCURVE",
"917 724 OFFCURVE",
"1043 861 OFFCURVE",
"1111 1053 OFFCURVE",
"1111 1149 QCURVE SMOOTH",
"1111 1288 OFFCURVE",
"946 1432 OFFCURVE",
"788 1432 QCURVE SMOOTH",
"648 1432 OFFCURVE",
"431 1306 OFFCURVE",
"314 1071 OFFCURVE",
"314 943 QCURVE SMOOTH",
"314 805 OFFCURVE",
"479 651 OFFCURVE",
"633 651 QCURVE SMOOTH"
);
},
{
closed = 1;
nodes = (
"962 1078 OFFCURVE",
"919 916 OFFCURVE",
"845 812 OFFCURVE",
"727 756 OFFCURVE",
"651 756 QCURVE SMOOTH",
"466 756 OFFCURVE",
"466 945 QCURVE SMOOTH",
"466 1040 OFFCURVE",
"538 1232 OFFCURVE",
"675 1327 OFFCURVE",
"772 1327 QCURVE SMOOTH",
"962 1327 OFFCURVE",
"962 1144 QCURVE SMOOTH"
);
}
);
userData = {
assembly = "PUSHB[ ]\011/* 5 values pushed */
7 17 228 89 7 
PUSHW[ ]\011/* 1 value pushed */
277 
PUSHB[ ]\011/* 5 values pushed */
0 23 228 89 0 
PUSHW[ ]\011/* 1 value pushed */
278 
SVTCA[0]\011/* SetFreedomAndProjectionVectorToAxis */
MIAP[1]\011/* MoveIndirectAbsPt */
CALL[ ]\011/* CallFunction */
SVTCA[0]\011/* SetFreedomAndProjectionVectorToAxis */
RTG[ ]\011/* RoundToGrid */
MIAP[1]\011/* MoveIndirectAbsPt */
CALL[ ]\011/* CallFunction */
IUP[1]\011/* InterpolateUntPts */
IUP[0]\011/* InterpolateUntPts */";
};
width = 1229;
}
);
note = ordmasculine;
unicode = 00BA;
},
{
glyphname = Ohm;
lastChange = "2019-12-17 15:39:55 +0000";
layers = (
{
layerId = "90A2DC70-B0EC-4941-B875-3E2B1B2F3578";
paths = (
{
closed = 1;
nodes = (
"370 1370 OFFCURVE",
"83 1047 OFFCURVE",
"83 771 QCURVE SMOOTH",
"83 583 OFFCURVE",
"257 254 OFFCURVE",
"420 145 QCURVE",
"303 156 OFFCURVE",
"259 156 QCURVE SMOOTH",
"59 156 LINE",
"59 0 LINE",
"542 0 LINE",
"542 224 LINE",
"409 322 OFFCURVE",
"278 585 OFFCURVE",
"278 758 QCURVE SMOOTH",
"278 978 OFFCURVE",
"448 1214 OFFCURVE",
"616 1214 QCURVE SMOOTH",
"780 1214 OFFCURVE",
"952 982 OFFCURVE",
"952 758 QCURVE SMOOTH",
"952 586 OFFCURVE",
"822 322 OFFCURVE",
"688 224 QCURVE",
"688 0 LINE",
"1171 0 LINE",
"1171 156 LINE",
"971 156 LINE SMOOTH",
"927 156 OFFCURVE",
"810 145 QCURVE",
"973 253 OFFCURVE",
"1147 582 OFFCURVE",
"1147 771 QCURVE SMOOTH",
"1147 1046 OFFCURVE",
"860 1370 OFFCURVE",
"615 1370 QCURVE SMOOTH"
);
}
);
userData = {
assembly = "NPUSHB[ ]\011/* 18 values pushed */
12 24 24 9 27 26 27 95 89 11 26 18 0 18 95 89 0 4 
SVTCA[0]\011/* SetFreedomAndProjectionVectorToAxis */
MIAP[1]\011/* MoveIndirectAbsPt */
CALL[ ]\011/* CallFunction */
SVTCA[0]\011/* SetFreedomAndProjectionVectorToAxis */
RTG[ ]\011/* RoundToGrid */
MIAP[1]\011/* MoveIndirectAbsPt */
SHP[1]\011/* ShiftPointByLastPoint */
CALL[ ]\011/* CallFunction */
SRP1[ ]\011/* SetRefPoint1 */
SVTCA[0]\011/* SetFreedomAndProjectionVectorToAxis */
SHP[1]\011/* ShiftPointByLastPoint */
SHP[1]\011/* ShiftPointByLastPoint */
RTG[ ]\011/* RoundToGrid */
MDAP[1]\011/* MoveDirectAbsPt */
SHP[1]\011/* ShiftPointByLastPoint */
IUP[1]\011/* InterpolateUntPts */
IUP[0]\011/* InterpolateUntPts */";
};
width = 1229;
}
);
note = Ohm;
unicode = 2126;
},
{
glyphname = ae;
lastChange = "2019-12-17 15:39:55 +0000";
layers = (
{
layerId = "90A2DC70-B0EC-4941-B875-3E2B1B2F3578";
paths = (
{
closed = 1;
nodes = (
"1201 503 LINE",
"1205 527 LINE SMOOTH",
"1234 670 OFFCURVE",
"1234 781 QCURVE SMOOTH",
"1234 1102 OFFCURVE",
"982 1102 QCURVE SMOOTH",
"820 1102 OFFCURVE",
"709 963 QCURVE",
"667 1102 OFFCURVE",
"489 1102 QCURVE SMOOTH",
"349 1102 OFFCURVE",
"164 959 OFFCURVE",
"117 810 QCURVE",
"282 793 LINE",
"307 884 OFFCURVE",
"390 965 OFFCURVE",
"464 965 QCURVE SMOOTH",
"517 965 OFFCURVE",
"567 909 OFFCURVE",
"567 844 QCURVE SMOOTH",
"567 793 OFFCURVE",
"540 660 QCURVE",
"373 656 LINE SMOOTH",
"42 651 OFFCURVE",
"-26 302 QCURVE SMOOTH",
"-38 241 OFFCURVE",
"-38 190 QCURVE SMOOTH",
"-38 -20 OFFCURVE",
"169 -20 QCURVE SMOOTH",
"370 -20 OFFCURVE",
"512 212 QCURVE",
"523 89 OFFCURVE",
"638 -20 OFFCURVE",
"759 -20 QCURVE SMOOTH",
"1004 -20 OFFCURVE",
"1123 236 QCURVE",
"994 281 LINE",
"964 209 OFFCURVE",
"856 115 OFFCURVE",
"781 115 QCURVE SMOOTH",
"650 115 OFFCURVE",
"650 313 QCURVE SMOOTH",
"650 410 OFFCURVE",
"672 503 QCURVE"
);
},
{
closed = 1;
nodes = (
"135 303 OFFCURVE",
"192 453 OFFCURVE",
"298 527 OFFCURVE",
"393 530 QCURVE SMOOTH",
"516 534 LINE",
"498 445 LINE SMOOTH",
"471 307 OFFCURVE",
"314 117 OFFCURVE",
"221 117 QCURVE SMOOTH",
"135 117 OFFCURVE",
"135 230 QCURVE SMOOTH"
);
},
{
closed = 1;
nodes = (
"1008 969 OFFCURVE",
"1073 876 OFFCURVE",
"1073 776 QCURVE SMOOTH",
"1073 727 OFFCURVE",
"1062 641 QCURVE",
"701 641 LINE",
"734 794 OFFCURVE",
"861 969 OFFCURVE",
"942 969 QCURVE SMOOTH"
);
}
);
userData = {
assembly = "NPUSHB[ ]\011/* 45 values pushed */
30 30 34 58 7 7 15 50 0 58 0 80 89 22 13 58 29 58 2 20 4 58 58 15 34 55 27 34 27 80 89 38 36 34 16 4 46 15 46 80 89 13 10 15 22 
SVTCA[0]\011/* SetFreedomAndProjectionVectorToAxis */
MIAP[1]\011/* MoveIndirectAbsPt */
SHP[1]\011/* ShiftPointByLastPoint */
SHP[1]\011/* ShiftPointByLastPoint */
CALL[ ]\011/* CallFunction */
SRP1[ ]\011/* SetRefPoint1 */
SVTCA[0]\011/* SetFreedomAndProjectionVectorToAxis */
SHP[1]\011/* ShiftPointByLastPoint */
RTG[ ]\011/* RoundToGrid */
MIAP[1]\011/* MoveIndirectAbsPt */
SHP[1]\011/* ShiftPointByLastPoint */
SHP[1]\011/* ShiftPointByLastPoint */
CALL[ ]\011/* CallFunction */
SRP1[ ]\011/* SetRefPoint1 */
SVTCA[0]\011/* SetFreedomAndProjectionVectorToAxis */
SHP[1]\011/* ShiftPointByLastPoint */
SRP1[ ]\011/* SetRefPoint1 */
SRP2[ ]\011/* SetRefPoint2 */
IP[ ]\011/* InterpolatePts */
RTG[ ]\011/* RoundToGrid */
MDAP[1]\011/* MoveDirectAbsPt */
SDS[ ]\011/* SetDeltaShiftInGState */
SDB[ ]\011/* SetDeltaBaseInGState */
DELTAP1[ ]\011/* DeltaExceptionP1 */
SHP[1]\011/* ShiftPointByLastPoint */
CALL[ ]\011/* CallFunction */
SRP1[ ]\011/* SetRefPoint1 */
SVTCA[0]\011/* SetFreedomAndProjectionVectorToAxis */
SHP[1]\011/* ShiftPointByLastPoint */
SRP2[ ]\011/* SetRefPoint2 */
IP[ ]\011/* InterpolatePts */
RTG[ ]\011/* RoundToGrid */
MDAP[1]\011/* MoveDirectAbsPt */
SRP1[ ]\011/* SetRefPoint1 */
SRP2[ ]\011/* SetRefPoint2 */
IP[ ]\011/* InterpolatePts */
MDAP[1]\011/* MoveDirectAbsPt */
IUP[1]\011/* InterpolateUntPts */
IUP[0]\011/* InterpolateUntPts */";
};
width = 1229;
}
);
note = ae;
unicode = 00E6;
},
{
glyphname = oslash;
lastChange = "2019-12-17 15:39:55 +0000";
layers = (
{
layerId = "90A2DC70-B0EC-4941-B875-3E2B1B2F3578";
paths = (
{
closed = 1;
nodes = (
"649 -20 OFFCURVE",
"885 86 OFFCURVE",
"1052 298 OFFCURVE",
"1137 595 OFFCURVE",
"1137 725 QCURVE SMOOTH",
"1137 845 OFFCURVE",
"1095 926 QCURVE",
"1192 1016 LINE",
"1128 1084 LINE",
"1040 1002 LINE",
"937 1102 OFFCURVE",
"724 1102 QCURVE SMOOTH",
"575 1102 OFFCURVE",
"344 998 OFFCURVE",
"179 791 OFFCURVE",
"92 502 OFFCURVE",
"92 371 QCURVE SMOOTH",
"92 248 OFFCURVE",
"136 163 QCURVE",
"33 68 LINE",
"96 0 LINE",
"190 87 LINE",
"297 -20 OFFCURVE",
"500 -20 QCURVE SMOOTH"
);
},
{
closed = 1;
nodes = (
"947 619 OFFCURVE",
"888 367 OFFCURVE",
"781 194 OFFCURVE",
"631 113 OFFCURVE",
"524 113 QCURVE SMOOTH",
"380 113 OFFCURVE",
"321 208 QCURVE",
"942 784 LINE",
"947 744 OFFCURVE",
"947 713 QCURVE SMOOTH"
);
},
{
closed = 1;
nodes = (
"281 474 OFFCURVE",
"341 720 OFFCURVE",
"448 888 OFFCURVE",
"598 969 OFFCURVE",
"701 969 QCURVE SMOOTH",
"851 969 OFFCURVE",
"908 880 QCURVE",
"287 304 LINE",
"281 339 OFFCURVE",
"281 379 QCURVE SMOOTH"
);
}
);
userData = {
assembly = "NPUSHB[ ]\011/* 30 values pushed */
27 36 26 37 4 39 29 12 39 80 89 2 5 17 14 4 12 0 15 15 12 16 0 29 80 89 3 3 0 22 
SVTCA[0]\011/* SetFreedomAndProjectionVectorToAxis */
MIAP[1]\011/* MoveIndirectAbsPt */
SHP[0]\011/* ShiftPointByLastPoint */
MDAP[1]\011/* MoveDirectAbsPt */
CALL[ ]\011/* CallFunction */
SVTCA[0]\011/* SetFreedomAndProjectionVectorToAxis */
RTG[ ]\011/* RoundToGrid */
MIAP[1]\011/* MoveIndirectAbsPt */
SHP[1]\011/* ShiftPointByLastPoint */
MDAP[1]\011/* MoveDirectAbsPt */
SRP1[ ]\011/* SetRefPoint1 */
SRP2[ ]\011/* SetRefPoint2 */
SLOOP[ ]\011/* SetLoopVariable */
IP[ ]\011/* InterpolatePts */
CALL[ ]\011/* CallFunction */
SRP1[ ]\011/* SetRefPoint1 */
SRP2[ ]\011/* SetRefPoint2 */
SVTCA[0]\011/* SetFreedomAndProjectionVectorToAxis */
SLOOP[ ]\011/* SetLoopVariable */
IP[ ]\011/* InterpolatePts */
IUP[1]\011/* InterpolateUntPts */
IUP[0]\011/* InterpolateUntPts */";
};
width = 1229;
}
);
note = oslash;
unicode = 00F8;
},
{
glyphname = questiondown;
lastChange = "2019-12-17 15:39:55 +0000";
layers = (
{
layerId = "90A2DC70-B0EC-4941-B875-3E2B1B2F3578";
paths = (
{
closed = 1;
nodes = (
"613 642 OFFCURVE",
"488 512 OFFCURVE",
"350 430 QCURVE SMOOTH",
"240 364 OFFCURVE",
"109 224 OFFCURVE",
"55 74 OFFCURVE",
"55 3 QCURVE SMOOTH",
"55 -136 OFFCURVE",
"274 -289 OFFCURVE",
"471 -289 QCURVE SMOOTH",
"680 -289 OFFCURVE",
"988 -74 OFFCURVE",
"1051 121 QCURVE",
"869 133 LINE",
"829 4 OFFCURVE",
"632 -139 OFFCURVE",
"498 -139 QCURVE SMOOTH",
"377 -139 OFFCURVE",
"242 -48 OFFCURVE",
"242 40 QCURVE SMOOTH",
"242 137 OFFCURVE",
"369 289 OFFCURVE",
"518 379 QCURVE SMOOTH",
"642 454 OFFCURVE",
"782 619 OFFCURVE",
"806 724 QCURVE",
"631 724 LINE"
);
},
{
closed = 1;
nodes = (
"688 1081 LINE",
"649 880 LINE",
"844 880 LINE",
"883 1081 LINE"
);
}
);
userData = {
assembly = "NPUSHB[ ]\011/* 20 values pushed */
0 0 30 17 30 29 158 91 30 15 0 13 1 17 3 13 13 17 17 10 
PUSHW[ ]\011/* 4 values pushed */
282 89 17 271 
SVTCA[0]\011/* SetFreedomAndProjectionVectorToAxis */
MIAP[1]\011/* MoveIndirectAbsPt */
CALL[ ]\011/* CallFunction */
SRP1[ ]\011/* SetRefPoint1 */
SVTCA[0]\011/* SetFreedomAndProjectionVectorToAxis */
SHP[1]\011/* ShiftPointByLastPoint */
RTG[ ]\011/* RoundToGrid */
MDAP[1]\011/* MoveDirectAbsPt */
SDS[ ]\011/* SetDeltaShiftInGState */
SDB[ ]\011/* SetDeltaBaseInGState */
DELTAP1[ ]\011/* DeltaExceptionP1 */
MIAP[1]\011/* MoveIndirectAbsPt */
CALL[ ]\011/* CallFunction */
SRP1[ ]\011/* SetRefPoint1 */
SRP2[ ]\011/* SetRefPoint2 */
SVTCA[0]\011/* SetFreedomAndProjectionVectorToAxis */
IP[ ]\011/* InterpolatePts */
RTG[ ]\011/* RoundToGrid */
MDAP[1]\011/* MoveDirectAbsPt */
IUP[1]\011/* InterpolateUntPts */
IUP[0]\011/* InterpolateUntPts */";
};
width = 1229;
}
);
note = questiondown;
unicode = 00BF;
},
{
glyphname = exclamdown;
lastChange = "2019-12-17 15:39:55 +0000";
layers = (
{
layerId = "90A2DC70-B0EC-4941-B875-3E2B1B2F3578";
paths = (
{
closed = 1;
nodes = (
"358 -266 LINE",
"554 -266 LINE",
"715 685 LINE",
"567 685 LINE"
);
},
{
closed = 1;
nodes = (
"624 1082 LINE",
"585 881 LINE",
"779 881 LINE",
"818 1082 LINE"
);
}
);
userData = {
assembly = "NPUSHB[ ]\011/* 11 values pushed */
0 0 7 2 7 6 158 91 7 15 2 
PUSHW[ ]\011/* 1 value pushed */
270 
SVTCA[0]\011/* SetFreedomAndProjectionVectorToAxis */
MIAP[1]\011/* MoveIndirectAbsPt */
MIAP[1]\011/* MoveIndirectAbsPt */
CALL[ ]\011/* CallFunction */
SRP1[ ]\011/* SetRefPoint1 */
SRP2[ ]\011/* SetRefPoint2 */
SVTCA[0]\011/* SetFreedomAndProjectionVectorToAxis */
IP[ ]\011/* InterpolatePts */
RTG[ ]\011/* RoundToGrid */
MDAP[1]\011/* MoveDirectAbsPt */
IUP[1]\011/* InterpolateUntPts */
IUP[0]\011/* InterpolateUntPts */";
};
width = 1229;
}
);
note = exclamdown;
unicode = 00A1;
},
{
glyphname = logicalnot;
lastChange = "2019-12-17 15:39:55 +0000";
layers = (
{
layerId = "90A2DC70-B0EC-4941-B875-3E2B1B2F3578";
paths = (
{
closed = 1;
nodes = (
"1111 180 LINE",
"1111 754 LINE",
"116 754 LINE",
"116 608 LINE",
"966 608 LINE",
"966 180 LINE"
);
}
);
userData = {
assembly = "NPUSHB[ ]\011/* 13 values pushed */
15 0 1 12 3 0 2 3 2 173 89 3 179 
SVTCA[0]\011/* SetFreedomAndProjectionVectorToAxis */
MIAP[1]\011/* MoveIndirectAbsPt */
CALL[ ]\011/* CallFunction */
SVTCA[0]\011/* SetFreedomAndProjectionVectorToAxis */
RTG[ ]\011/* RoundToGrid */
SRP0[ ]\011/* SetRefPoint0 */
MDRP[00110]\011/* MoveDirectRelPt */
SDS[ ]\011/* SetDeltaShiftInGState */
SDB[ ]\011/* SetDeltaBaseInGState */
DELTAP1[ ]\011/* DeltaExceptionP1 */
IUP[1]\011/* InterpolateUntPts */
IUP[0]\011/* InterpolateUntPts */";
};
width = 1229;
}
);
note = logicalnot;
unicode = 00AC;
},
{
glyphname = radical;
lastChange = "2019-12-17 15:39:55 +0000";
layers = (
{
layerId = "90A2DC70-B0EC-4941-B875-3E2B1B2F3578";
paths = (
{
closed = 1;
nodes = (
"1149 1620 LINE",
"1020 1620 LINE",
"590 205 LINE",
"348 895 LINE",
"78 895 LINE",
"78 778 LINE",
"260 778 LINE",
"543 -14 LINE",
"649 -14 LINE"
);
}
);
userData = {
assembly = "NPUSHB[ ]\011/* 10 values pushed */
5 2 175 89 5 5 7 25 6 0 
SVTCA[0]\011/* SetFreedomAndProjectionVectorToAxis */
MDAP[1]\011/* MoveDirectAbsPt */
SHP[0]\011/* ShiftPointByLastPoint */
MIAP[1]\011/* MoveIndirectAbsPt */
IP[ ]\011/* InterpolatePts */
MDAP[1]\011/* MoveDirectAbsPt */
CALL[ ]\011/* CallFunction */
IUP[1]\011/* InterpolateUntPts */
IUP[0]\011/* InterpolateUntPts */";
};
width = 1229;
}
);
note = radical;
unicode = 221A;
},
{
glyphname = florin;
lastChange = "2019-12-17 15:39:55 +0000";
layers = (
{
layerId = "90A2DC70-B0EC-4941-B875-3E2B1B2F3578";
paths = (
{
closed = 1;
nodes = (
"1043 1349 LINE",
"1008 1359 OFFCURVE",
"926 1369 OFFCURVE",
"894 1369 QCURVE SMOOTH",
"765 1369 OFFCURVE",
"613 1245 OFFCURVE",
"581 1088 QCURVE SMOOTH",
"552 936 LINE",
"401 936 LINE",
"374 805 LINE",
"526 805 LINE",
"290 -425 LINE",
"470 -425 LINE",
"706 805 LINE",
"919 805 LINE",
"944 936 LINE",
"733 936 LINE",
"759 1072 LINE SMOOTH",
"776 1162 OFFCURVE",
"840 1242 OFFCURVE",
"902 1242 QCURVE SMOOTH",
"932 1242 OFFCURVE",
"995 1232 OFFCURVE",
"1012 1227 QCURVE"
);
}
);
userData = {
assembly = "NPUSHB[ ]\011/* 19 values pushed */
10 14 15 14 97 89 7 15 15 20 12 20 3 97 89 20 7 12 27 
SVTCA[0]\011/* SetFreedomAndProjectionVectorToAxis */
MIAP[1]\011/* MoveIndirectAbsPt */
MIAP[1]\011/* MoveIndirectAbsPt */
CALL[ ]\011/* CallFunction */
SRP1[ ]\011/* SetRefPoint1 */
SRP2[ ]\011/* SetRefPoint2 */
SVTCA[0]\011/* SetFreedomAndProjectionVectorToAxis */
IP[ ]\011/* InterpolatePts */
RTG[ ]\011/* RoundToGrid */
MDAP[1]\011/* MoveDirectAbsPt */
SHP[1]\011/* ShiftPointByLastPoint */
CALL[ ]\011/* CallFunction */
SRP1[ ]\011/* SetRefPoint1 */
SVTCA[0]\011/* SetFreedomAndProjectionVectorToAxis */
SHP[1]\011/* ShiftPointByLastPoint */
IUP[1]\011/* InterpolateUntPts */
IUP[0]\011/* InterpolateUntPts */";
};
width = 1229;
}
);
note = florin;
unicode = 0192;
},
{
glyphname = approxequal;
lastChange = "2019-12-17 15:39:55 +0000";
layers = (
{
layerId = "90A2DC70-B0EC-4941-B875-3E2B1B2F3578";
paths = (
{
closed = 1;
nodes = (
"945 758 OFFCURVE",
"1060 796 OFFCURVE",
"1120 838 QCURVE",
"1120 987 LINE",
"1006 893 OFFCURVE",
"876 893 QCURVE SMOOTH",
"847 893 OFFCURVE",
"769 908 OFFCURVE",
"680 938 QCURVE SMOOTH",
"665 943 LINE SMOOTH",
"595 968 OFFCURVE",
"448 1012 OFFCURVE",
"371 1012 QCURVE SMOOTH",
"222 1012 OFFCURVE",
"108 928 QCURVE",
"108 784 LINE",
"179 835 OFFCURVE",
"293 872 OFFCURVE",
"356 872 QCURVE SMOOTH",
"440 872 OFFCURVE",
"573 827 QCURVE SMOOTH",
"646 801 OFFCURVE",
"791 758 OFFCURVE",
"860 758 QCURVE SMOOTH"
);
},
{
closed = 1;
nodes = (
"840 473 OFFCURVE",
"753 493 OFFCURVE",
"606 544 QCURVE SMOOTH",
"473 590 OFFCURVE",
"371 590 QCURVE SMOOTH",
"219 590 OFFCURVE",
"108 506 QCURVE",
"108 365 LINE",
"173 412 OFFCURVE",
"289 453 OFFCURVE",
"356 453 QCURVE SMOOTH",
"440 453 OFFCURVE",
"573 406 QCURVE SMOOTH",
"646 380 OFFCURVE",
"791 336 OFFCURVE",
"860 336 QCURVE SMOOTH",
"943 336 OFFCURVE",
"1060 373 OFFCURVE",
"1120 418 QCURVE",
"1120 565 LINE",
"1006 473 OFFCURVE",
"876 473 QCURVE SMOOTH"
);
}
);
userData = {
assembly = "NPUSHB[ ]\011/* 86 values pushed */
41 35 173 89 26 15 41 31 41 47 41 3 18 3 41 64 23 28 72 41 64 9 12 72 41 30 64 38 30 30 24 173 89 95 30 1 30 64 18 21 72 0 30 16 30 2 10 3 30 11 5 173 89 20 15 11 31 11 47 11 3 18 3 11 64 23 28 72 11 64 9 12 72 11 0 64 8 0 0 18 173 89 63 0 1 0 
SVTCA[0]\011/* SetFreedomAndProjectionVectorToAxis */
MDAP[1]\011/* MoveDirectAbsPt */
DELTAP1[ ]\011/* DeltaExceptionP1 */
CALL[ ]\011/* CallFunction */
SRP1[ ]\011/* SetRefPoint1 */
SVTCA[0]\011/* SetFreedomAndProjectionVectorToAxis */
SHP[1]\011/* ShiftPointByLastPoint */
SMD[ ]\011/* SetMinimumDistance */
RTG[ ]\011/* RoundToGrid */
SRP0[ ]\011/* SetRefPoint0 */
MDRP[01101]\011/* MoveDirectRelPt */
CALL[ ]\011/* CallFunction */
CALL[ ]\011/* CallFunction */
SDS[ ]\011/* SetDeltaShiftInGState */
SDB[ ]\011/* SetDeltaBaseInGState */
DELTAP1[ ]\011/* DeltaExceptionP1 */
SHP[0]\011/* ShiftPointByLastPoint */
CALL[ ]\011/* CallFunction */
SVTCA[0]\011/* SetFreedomAndProjectionVectorToAxis */
RTG[ ]\011/* RoundToGrid */
MDAP[1]\011/* MoveDirectAbsPt */
SDS[ ]\011/* SetDeltaShiftInGState */
SDB[ ]\011/* SetDeltaBaseInGState */
DELTAP1[ ]\011/* DeltaExceptionP1 */
CALL[ ]\011/* CallFunction */
DELTAP1[ ]\011/* DeltaExceptionP1 */
CALL[ ]\011/* CallFunction */
SRP1[ ]\011/* SetRefPoint1 */
SVTCA[0]\011/* SetFreedomAndProjectionVectorToAxis */
SHP[1]\011/* ShiftPointByLastPoint */
SMD[ ]\011/* SetMinimumDistance */
RTG[ ]\011/* RoundToGrid */
SRP0[ ]\011/* SetRefPoint0 */
MDRP[01101]\011/* MoveDirectRelPt */
CALL[ ]\011/* CallFunction */
CALL[ ]\011/* CallFunction */
SDS[ ]\011/* SetDeltaShiftInGState */
SDB[ ]\011/* SetDeltaBaseInGState */
DELTAP1[ ]\011/* DeltaExceptionP1 */
SHP[0]\011/* ShiftPointByLastPoint */
CALL[ ]\011/* CallFunction */
IUP[1]\011/* InterpolateUntPts */
IUP[0]\011/* InterpolateUntPts */";
};
width = 1229;
}
);
note = approxequal;
unicode = 2248;
},
{
glyphname = uni2206;
lastChange = "2019-12-17 15:39:55 +0000";
layers = (
{
layerId = "90A2DC70-B0EC-4941-B875-3E2B1B2F3578";
paths = (
{
closed = 1;
nodes = (
"1216 0 LINE",
"1216 147 LINE",
"733 1409 LINE",
"489 1409 LINE",
"12 145 LINE",
"12 0 LINE"
);
},
{
closed = 1;
nodes = (
"710 997 LINE",
"1024 156 LINE",
"204 156 LINE",
"514 997 LINE",
"612 1274 LINE"
);
}
);
userData = {
assembly = "NPUSHB[ ]\011/* 26 values pushed */
29 6 1 15 6 1 13 4 6 3 2 4 9 4 1 1 4 9 3 8 0 8 95 89 0 18 
SVTCA[0]\011/* SetFreedomAndProjectionVectorToAxis */
MIAP[1]\011/* MoveIndirectAbsPt */
CALL[ ]\011/* CallFunction */
SRP1[ ]\011/* SetRefPoint1 */
SVTCA[0]\011/* SetFreedomAndProjectionVectorToAxis */
SLOOP[ ]\011/* SetLoopVariable */
SHP[1]\011/* ShiftPointByLastPoint */
RTG[ ]\011/* RoundToGrid */
MDAP[1]\011/* MoveDirectAbsPt */
MDAP[1]\011/* MoveDirectAbsPt */
MDAP[1]\011/* MoveDirectAbsPt */
MIAP[1]\011/* MoveIndirectAbsPt */
SHP[1]\011/* ShiftPointByLastPoint */
SHP[1]\011/* ShiftPointByLastPoint */
SDS[ ]\011/* SetDeltaShiftInGState */
SDB[ ]\011/* SetDeltaBaseInGState */
DELTAP1[ ]\011/* DeltaExceptionP1 */
DELTAP1[ ]\011/* DeltaExceptionP1 */
IUP[1]\011/* InterpolateUntPts */
IUP[0]\011/* InterpolateUntPts */";
};
width = 1229;
}
);
note = uni2206;
unicode = 2206;
},
{
glyphname = guillemotleft;
lastChange = "2019-12-17 15:39:55 +0000";
layers = (
{
layerId = "90A2DC70-B0EC-4941-B875-3E2B1B2F3578";
paths = (
{
closed = 1;
nodes = (
"1042 141 LINE",
"1048 170 LINE",
"779 537 LINE",
"1190 909 LINE",
"1196 940 LINE",
"1018 940 LINE",
"608 569 LINE",
"595 506 LINE",
"862 141 LINE"
);
},
{
closed = 1;
nodes = (
"564 141 LINE",
"570 170 LINE",
"304 537 LINE",
"712 909 LINE",
"718 940 LINE",
"541 940 LINE",
"133 569 LINE",
"120 506 LINE",
"385 141 LINE"
);
}
);
userData = {
assembly = "NPUSHB[ ]\011/* 20 values pushed */
11 2 10 1 15 1 2 3 6 6 0 12 3 0 3 239 91 9 0 238 
SVTCA[0]\011/* SetFreedomAndProjectionVectorToAxis */
MIAP[1]\011/* MoveIndirectAbsPt */
SHP[0]\011/* ShiftPointByLastPoint */
CALL[ ]\011/* CallFunction */
SRP1[ ]\011/* SetRefPoint1 */
SVTCA[0]\011/* SetFreedomAndProjectionVectorToAxis */
SHP[1]\011/* ShiftPointByLastPoint */
SRP2[ ]\011/* SetRefPoint2 */
IP[ ]\011/* InterpolatePts */
RTDG[ ]\011/* RoundToDoubleGrid */
MDAP[1]\011/* MoveDirectAbsPt */
SLOOP[ ]\011/* SetLoopVariable */
SHP[1]\011/* ShiftPointByLastPoint */
SRP1[ ]\011/* SetRefPoint1 */
SHP[1]\011/* ShiftPointByLastPoint */
SRP1[ ]\011/* SetRefPoint1 */
SHP[1]\011/* ShiftPointByLastPoint */
IUP[1]\011/* InterpolateUntPts */
IUP[0]\011/* InterpolateUntPts */";
};
width = 1229;
}
);
note = guillemotleft;
unicode = 00AB;
},
{
glyphname = guillemotright;
lastChange = "2019-12-17 15:39:55 +0000";
layers = (
{
layerId = "90A2DC70-B0EC-4941-B875-3E2B1B2F3578";
paths = (
{
closed = 1;
nodes = (
"1093 506 LINE",
"1106 569 LINE",
"840 940 LINE",
"664 940 LINE",
"658 909 LINE",
"921 537 LINE",
"512 170 LINE",
"506 141 LINE",
"684 141 LINE"
);
},
{
closed = 1;
nodes = (
"615 506 LINE",
"628 569 LINE",
"365 940 LINE",
"187 940 LINE",
"181 909 LINE",
"444 537 LINE",
"35 170 LINE",
"29 141 LINE",
"209 141 LINE"
);
}
);
userData = {
assembly = "NPUSHB[ ]\011/* 20 values pushed */
17 8 16 7 12 7 8 3 3 3 0 15 6 0 6 239 91 9 0 238 
SVTCA[0]\011/* SetFreedomAndProjectionVectorToAxis */
MIAP[1]\011/* MoveIndirectAbsPt */
SHP[0]\011/* ShiftPointByLastPoint */
CALL[ ]\011/* CallFunction */
SRP1[ ]\011/* SetRefPoint1 */
SVTCA[0]\011/* SetFreedomAndProjectionVectorToAxis */
SHP[1]\011/* ShiftPointByLastPoint */
SRP2[ ]\011/* SetRefPoint2 */
IP[ ]\011/* InterpolatePts */
RTDG[ ]\011/* RoundToDoubleGrid */
MDAP[1]\011/* MoveDirectAbsPt */
SLOOP[ ]\011/* SetLoopVariable */
SHP[1]\011/* ShiftPointByLastPoint */
SRP1[ ]\011/* SetRefPoint1 */
SHP[1]\011/* ShiftPointByLastPoint */
SRP1[ ]\011/* SetRefPoint1 */
SHP[1]\011/* ShiftPointByLastPoint */
IUP[1]\011/* InterpolateUntPts */
IUP[0]\011/* InterpolateUntPts */";
};
width = 1229;
}
);
note = guillemotright;
unicode = 00BB;
},
{
glyphname = ellipsis;
lastChange = "2019-12-17 15:39:55 +0000";
layers = (
{
layerId = "90A2DC70-B0EC-4941-B875-3E2B1B2F3578";
paths = (
{
closed = 1;
nodes = (
"1007 0 LINE",
"1050 219 LINE",
"876 219 LINE",
"833 0 LINE"
);
},
{
closed = 1;
nodes = (
"596 0 LINE",
"639 219 LINE",
"467 219 LINE",
"424 0 LINE"
);
},
{
closed = 1;
nodes = (
"187 0 LINE",
"230 219 LINE",
"55 219 LINE",
"12 0 LINE"
);
}
);
userData = {
assembly = "NPUSHB[ ]\011/* 10 values pushed */
5 1 9 8 9 155 91 4 0 8 
SVTCA[0]\011/* SetFreedomAndProjectionVectorToAxis */
MDAP[1]\011/* MoveDirectAbsPt */
SHP[1]\011/* ShiftPointByLastPoint */
SHP[1]\011/* ShiftPointByLastPoint */
CALL[ ]\011/* CallFunction */
SRP1[ ]\011/* SetRefPoint1 */
SVTCA[0]\011/* SetFreedomAndProjectionVectorToAxis */
SHP[1]\011/* ShiftPointByLastPoint */
SHP[1]\011/* ShiftPointByLastPoint */
IUP[1]\011/* InterpolateUntPts */
IUP[0]\011/* InterpolateUntPts */";
};
width = 1229;
}
);
note = ellipsis;
unicode = 2026;
},
